<svg width="180" height="154" viewBox="0 0 180 154" fill="none" xmlns="http://www.w3.org/2000/svg">
<rect width="180" height="154" fill="#F5F5F5"/>
<path fill-rule="evenodd" clip-rule="evenodd" d="M26.4482 64.1809L25.6404 78.2649L24.7864 93.7503L24.4182 100.812L29.8992 108.887L11.5312 119.944L16.9744 128.501L17.0346 129.9L57.9482 113.388L72.553 102.43L100.937 102.51L112.055 100.864L111.861 92.9718L115.901 99.6414L119.284 100.399L150.179 95.5339L151.558 95.2483L152.346 93.5921L151.502 87.5245L154.692 86.2575L155.119 67.9889L154.828 64.0157L154.928 56.1505L153.456 28.3367L153.067 26.9913L131.381 26.7813L128.309 26.7953L100.798 26.9913L96.0968 27.1453L95.3156 27.9993L93.399 27.9279L93.2464 27.1705L82.3992 27.0389L81.6068 30.1903L77.8954 30.7405L77.9234 27.1593H63.8674L60.9344 27.1803L28.4348 26.5391L26.4482 64.1809Z" fill="#ED232A"/>
<path fill-rule="evenodd" clip-rule="evenodd" d="M154.692 86.2603L155.115 67.9917L154.827 64.0185L154.925 56.1533L153.456 28.3409L153.067 26.9941L131.377 26.7841L128.305 26.7981L100.797 26.9941L96.0926 27.1495L95.3156 28.0035L93.399 27.9307L93.2464 27.1733L82.3978 27.0459L81.6026 30.1931L77.8954 30.7447L77.9234 27.1663L63.8674 27.1621L60.9344 27.1831L28.4334 26.5391L26.4482 64.1837L25.6362 78.2677L24.785 93.7531L24.4168 100.816L29.8992 108.891L11.5312 119.944L16.9744 128.505L17.0332 129.902L57.9482 113.391L72.553 102.43L100.935 102.513L112.055 100.868L111.861 92.9747L115.898 99.6443L119.282 100.403L150.176 95.5367L151.556 95.2469L152.342 93.5949L151.502 87.5273L154.692 86.2603Z" stroke="#424242" stroke-width="1.26845" stroke-linecap="round" stroke-linejoin="round"/>
<path fill-rule="evenodd" clip-rule="evenodd" d="M63.8723 27.1621L62.3127 33.7603L72.8771 32.9721L70.6791 40.6441L68.5721 40.8779L67.4997 45.3887L69.3365 47.1723L68.1171 49.7343L63.3683 50.6989L66.4861 65.8875L63.1051 67.2063L63.1667 68.8975L61.0569 69.4379L61.3061 70.5677L58.9709 71.2495L58.1575 73.0821L52.8669 74.7719L53.0167 78.0815L40.1857 79.6789L41.0257 82.4817L37.2597 80.9529L36.2839 78.9425L32.5039 79.9995L28.0253 66.4839L28.5629 65.9463L27.6025 64.1221L26.4531 64.1837L28.4383 26.5391L60.9379 27.1831L63.8723 27.1621Z" fill="#ED232A"/>
<path fill-rule="evenodd" clip-rule="evenodd" d="M63.8723 27.1621L62.3127 33.7603L72.8771 32.9721L70.6791 40.6441L68.5721 40.8779L67.4997 45.3887L69.3365 47.1723L68.1171 49.7343L63.3683 50.6989L66.4861 65.8875L63.1051 67.2063L63.1667 68.8975L61.0569 69.4379L61.3061 70.5677L58.9709 71.2495L58.1575 73.0821L52.8669 74.7719L53.0167 78.0815L40.1857 79.6789L41.0257 82.4817L37.2597 80.9529L36.2839 78.9425L32.5039 79.9995L28.0253 66.4839L28.5629 65.9463L27.6025 64.1221L26.4531 64.1837L28.4383 26.5391L60.9379 27.1831L63.8723 27.1621Z" stroke="#424242" stroke-width="0.317114" stroke-linecap="round" stroke-linejoin="round"/>
<path fill-rule="evenodd" clip-rule="evenodd" d="M108.9 68.2734L107.846 70.1578L104.843 70.4462L101.798 64.968L86.3905 67.1128L86.3639 69.1274L83.3917 70.2572L83.3497 71.6418L80.0177 71.9302L78.7115 74.6574L77.6853 72.6162L76.4491 72.9326L76.5037 74.8478L74.8167 74.768L73.6575 73.3526L69.1383 73.69L69.5653 65.7772L66.4923 65.8948L63.3787 50.702L68.1247 49.7374L69.3427 47.1754L67.5059 45.3918L68.5825 40.8838L70.6867 40.65L72.8833 32.9738L62.3203 33.7662L63.8785 27.1652L77.9345 27.168L77.9065 30.7492L81.6179 30.1948L82.4089 27.0476L93.2575 27.175L93.4101 27.9338L95.3267 28.0094L96.1037 27.1554L100.808 27L101.964 35.7192L100.725 35.9362L100.364 44.0968L101.68 44.3068L101.481 48.6496L103.492 48.8176L105.755 61.9482L108.285 64.7958L108.9 68.2734Z" fill="#ED232A"/>
<path fill-rule="evenodd" clip-rule="evenodd" d="M108.9 68.2734L107.846 70.1578L104.843 70.4462L101.798 64.968L86.3905 67.1128L86.3639 69.1274L83.3917 70.2572L83.3497 71.6418L80.0177 71.9302L78.7115 74.6574L77.6853 72.6162L76.4491 72.9326L76.5037 74.8478L74.8167 74.768L73.6575 73.3526L69.1383 73.69L69.5653 65.7772L66.4923 65.8948L63.3787 50.702L68.1247 49.7374L69.3427 47.1754L67.5059 45.3918L68.5825 40.8838L70.6867 40.65L72.8833 32.9738L62.3203 33.7662L63.8785 27.1652L77.9345 27.168L77.9065 30.7492L81.6179 30.1948L82.4089 27.0476L93.2575 27.175L93.4101 27.9338L95.3267 28.0094L96.1037 27.1554L100.808 27L101.964 35.7192L100.725 35.9362L100.364 44.0968L101.68 44.3068L101.481 48.6496L103.492 48.8176L105.755 61.9482L108.285 64.7958L108.9 68.2734Z" stroke="#424242" stroke-width="0.317114" stroke-linecap="round" stroke-linejoin="round"/>
<path fill-rule="evenodd" clip-rule="evenodd" d="M108.891 68.261L108.277 64.7834L105.747 61.9358L103.483 48.8052L101.473 48.6372L101.671 44.2944L100.355 44.0844L100.717 35.9238L101.956 35.7068L100.799 26.9876L128.311 26.7916L131.384 26.7734L131.133 33.4024L122.494 33.4962L122.487 45.4382L126.53 45.6034L127.384 52.6552L125.329 54.009L124.378 56.1188L120.073 56.4058L121.593 58.0508L119.264 59.3598L118.684 61.1504L119.101 63.1678L115.688 64.2906L115.043 65.1488L114.418 68.9022L112.051 69.0982L111.138 70.0866L108.891 68.261Z" fill="#ED232A"/>
<path fill-rule="evenodd" clip-rule="evenodd" d="M108.891 68.261L108.277 64.7834L105.747 61.9358L103.483 48.8052L101.473 48.6372L101.671 44.2944L100.355 44.0844L100.717 35.9238L101.956 35.7068L100.799 26.9876L128.311 26.7916L131.384 26.7734L131.133 33.4024L122.494 33.4962L122.487 45.4382L126.53 45.6034L127.384 52.6552L125.329 54.009L124.378 56.1188L120.073 56.4058L121.593 58.0508L119.264 59.3598L118.684 61.1504L119.101 63.1678L115.688 64.2906L115.043 65.1488L114.418 68.9022L112.051 69.0982L111.138 70.0866L108.891 68.261Z" stroke="#424242" stroke-width="0.317114" stroke-linecap="round" stroke-linejoin="round"/>
<path fill-rule="evenodd" clip-rule="evenodd" d="M154.92 56.144L154.823 64.0092L149.925 63.8538L143.027 65.2314L127.288 62.7618L121.584 58.0508L120.062 56.4016L124.367 56.116L125.322 54.009L127.375 52.6524L126.521 45.5992L122.476 45.4382L122.483 33.4962L131.127 33.4024L131.373 26.7734L153.063 26.9834L153.448 28.3302L154.92 56.144Z" fill="#ED232A"/>
<path fill-rule="evenodd" clip-rule="evenodd" d="M154.92 56.144L154.823 64.0092L149.925 63.8538L143.027 65.2314L127.288 62.7618L121.584 58.0508L120.062 56.4016L124.367 56.116L125.322 54.009L127.375 52.6524L126.521 45.5992L122.476 45.4382L122.483 33.4962L131.127 33.4024L131.373 26.7734L153.063 26.9834L153.448 28.3302L154.92 56.144Z" stroke="#424242" stroke-width="0.317114" stroke-linecap="round" stroke-linejoin="round"/>
<path fill-rule="evenodd" clip-rule="evenodd" d="M111.861 92.9643L111.831 91.2311L110.508 90.0467L108.623 89.7023L107.283 86.6209L117.194 84.9717L115.641 75.2851L107.654 76.2245L104.832 70.4299L107.835 70.1401L108.891 68.2571L111.136 70.0813L112.049 69.0929L114.414 68.8969L115.041 65.1435L115.688 64.2867L119.099 63.1639L118.684 61.1465L119.263 59.3559L121.593 58.0469L127.292 62.7607L143.032 65.2261L149.93 63.8527L154.829 64.0067L155.116 67.9813L154.693 86.2485L151.502 87.5155L152.342 93.5831L151.558 95.2365L150.177 95.5263L119.284 100.391L115.899 99.6339L111.861 92.9643Z" fill="#ED232A"/>
<path fill-rule="evenodd" clip-rule="evenodd" d="M111.861 92.9643L111.831 91.2311L110.508 90.0467L108.623 89.7023L107.283 86.6209L117.194 84.9717L115.641 75.2851L107.654 76.2245L104.832 70.4299L107.835 70.1401L108.891 68.2571L111.136 70.0813L112.049 69.0929L114.414 68.8969L115.041 65.1435L115.688 64.2867L119.099 63.1639L118.684 61.1465L119.263 59.3559L121.593 58.0469L127.292 62.7607L143.032 65.2261L149.93 63.8527L154.829 64.0067L155.116 67.9813L154.693 86.2485L151.502 87.5155L152.342 93.5831L151.558 95.2365L150.177 95.5263L119.284 100.391L115.899 99.6339L111.861 92.9643Z" stroke="#424242" stroke-width="0.317114" stroke-linecap="round" stroke-linejoin="round"/>
<path fill-rule="evenodd" clip-rule="evenodd" d="M26.4482 64.1788L25.6404 78.2628L24.7864 93.7482L24.4182 100.81L29.8992 108.885L11.5312 119.942L16.9744 128.499L17.0346 129.898L57.9482 113.386L57.0984 110.848L57.643 109.595L57.0256 106.082L58.3794 103.789L59.82 98.5992L56.5188 96.306L53.9778 91.6846L52.092 90.5828L49.7834 87.5602L48.0446 87.2536L47.1766 86.058L45.393 85.9306L44.6496 84.7812L43.4624 85.057L42.9906 83.0046L41.025 82.4768L37.2548 80.948L36.2804 78.9376L32.499 79.9946L28.0218 66.479L28.5594 65.9414L27.5976 64.1172L26.4482 64.1788Z" fill="#ED232A"/>
<path fill-rule="evenodd" clip-rule="evenodd" d="M57.9482 113.386L17.0332 129.898L16.9744 128.499L11.5312 119.939L29.8979 108.885L24.4169 100.81L24.785 93.7482L25.6349 78.2628L26.4483 64.1788L27.5963 64.1172L28.5581 65.9414L28.0204 66.479L32.499 79.9946L36.279 78.9376L37.2548 80.948L41.0208 82.4768L42.9864 83.0046L43.461 85.057L44.6482 84.7812L45.3916 85.9306L47.1724 86.058L48.0404 87.2536L49.7834 87.5602L52.092 90.5828L53.9736 91.6818L56.5174 96.306L59.8187 98.5992L58.378 103.789L57.0242 106.082L57.643 109.595L57.0971 110.848L57.9482 113.386Z" stroke="#424242" stroke-width="0.317114" stroke-linecap="round" stroke-linejoin="round"/>
<path fill-rule="evenodd" clip-rule="evenodd" d="M83.3398 71.6149L83.3846 70.2345L86.3526 69.1047L86.3806 67.0915L101.786 64.9453L104.831 70.4207L107.656 76.2167L115.645 75.2759L117.196 84.9625L107.283 86.6117L108.625 89.6945L110.511 90.0417L111.833 91.2233L111.865 92.9551L112.055 100.847L100.936 102.493L99.6904 102.366L95.8404 96.6021L94.8198 96.1947L93.9168 89.9451L91.0104 85.9033L84.7524 86.9701L85.3628 81.7019L84.6306 81.4709L83.3398 71.6149Z" fill="#ED232A"/>
<path fill-rule="evenodd" clip-rule="evenodd" d="M83.3398 71.6149L83.3846 70.2345L86.3526 69.1047L86.3806 67.0915L101.786 64.9453L104.831 70.4207L107.656 76.2167L115.645 75.2759L117.196 84.9625L107.283 86.6117L108.625 89.6945L110.511 90.0417L111.833 91.2233L111.865 92.9551L112.055 100.847L100.936 102.493L99.6904 102.366L95.8404 96.6021L94.8198 96.1947L93.9168 89.9451L91.0104 85.9033L84.7524 86.9701L85.3628 81.7019L84.6306 81.4709L83.3398 71.6149Z" stroke="#424242" stroke-width="0.317114" stroke-linecap="round" stroke-linejoin="round"/>
<path fill-rule="evenodd" clip-rule="evenodd" d="M57.9588 113.398L57.1076 110.86L57.6536 109.607L57.0348 106.094L58.3886 103.801L59.8292 98.6112L56.528 96.318L53.9842 91.6938L52.1026 90.5948L49.794 87.5722L48.051 87.2656L47.183 86.07L45.4022 85.9426L44.6588 84.7932L43.4716 85.069L42.997 83.0166L41.0314 82.4888L40.1914 79.686L53.0224 78.0886L52.8726 74.779L58.1632 73.0892L58.9752 71.2567L61.3118 70.5749L61.0654 69.445L63.1724 68.9047L63.1108 67.2135L66.4918 65.8947L69.5634 65.7812L69.1364 73.6941L73.6528 73.3539L74.812 74.7692L76.5032 74.8519L76.4472 72.9338L77.6834 72.6174L78.711 74.6628L80.0158 71.9314L83.345 71.6416L84.64 81.4976L85.3694 81.7286L84.7618 86.9968L91.017 85.93L93.9234 89.9718L94.825 96.2214L95.8456 96.6288L99.6956 102.393L100.946 102.52L72.5636 102.437L57.9588 113.398Z" fill="#ED232A"/>
<path fill-rule="evenodd" clip-rule="evenodd" d="M57.9588 113.398L57.1076 110.86L57.6536 109.607L57.0348 106.094L58.3886 103.801L59.8292 98.6112L56.528 96.318L53.9842 91.6938L52.1026 90.5948L49.794 87.5722L48.051 87.2656L47.183 86.07L45.4022 85.9426L44.6588 84.7932L43.4716 85.069L42.997 83.0166L41.0314 82.4888L40.1914 79.686L53.0224 78.0886L52.8726 74.779L58.1632 73.0892L58.9752 71.2567L61.3118 70.5749L61.0654 69.445L63.1724 68.9047L63.1108 67.2135L66.4918 65.8947L69.5634 65.7812L69.1364 73.6941L73.6528 73.3539L74.812 74.7692L76.5032 74.8519L76.4472 72.9338L77.6834 72.6174L78.711 74.6628L80.0158 71.9314L83.345 71.6416L84.64 81.4976L85.3694 81.7286L84.7618 86.9968L91.017 85.93L93.9234 89.9718L94.825 96.2214L95.8456 96.6288L99.6956 102.393L100.946 102.52L72.5636 102.437L57.9588 113.398Z" stroke="#424242" stroke-width="0.317114" stroke-linecap="round" stroke-linejoin="round"/>
</svg>
