<svg width="180" height="154" viewBox="0 0 180 154" fill="none" xmlns="http://www.w3.org/2000/svg">
<rect width="180" height="154" fill="#F5F5F5"/>
<path fill-rule="evenodd" clip-rule="evenodd" d="M121.847 29.5491L117.392 31.733L115.747 34.5725L113.323 33.8299L110.709 34.5751L110.631 38.6391L108.255 38.443L107.777 39.496L106.314 41.1761L79.5402 41.641L78.256 41.5708L62.9909 41.206L55.3071 41.0826L34.9224 40.8567L30.7026 40.7606L20.3012 40.6217L16.4905 54.965L10.3984 80.3238L11.0645 82.0831L30.3663 82.4129L32.1036 82.396L40.4483 82.374L40.4405 84.5163L42.6426 84.1748L43.1126 82.2922L49.5565 82.3402L49.6357 82.8024L50.7796 82.8414L51.2418 82.3324L54.0372 82.2194L70.367 82.0636L72.1887 82.0468L85.07 82.1338L85.3011 82.9336L98.5005 82.2233L103.72 81.7858L103.625 83.8217L103.734 89.1762L105.964 88.6556L105.586 89.8644L105.97 90.9044L105.583 93.5635L105.891 95.2501L106.823 95.9382L109.193 97.1795L110.936 99.601L112.332 101.271L114.926 102.551L116.346 112.065L121.416 110.279L125.98 103.399L128.322 103.735L137.76 96.9185L136.204 107.582L137.466 108.492L146.419 106.345L147.87 103.757L167.288 99.4023L168.633 93.6569L166.21 85.7147L162.083 78.6826L158.233 76.1287L152.994 77.1012L159.943 80.2095L164.742 88.6023L164.122 93.0493L156.1 97.4963L150.115 97.8014L153.061 97.0873L146.395 96.0849L141.208 92.6338L140.777 85.2551L137.243 83.2088L133.837 72.4101L129.727 66.9361L127.505 66.3194L124.514 66.1233L123.24 68.019L118.265 65.1859L121.159 56.3919L124.051 55.3506L127.343 49.4027L135.105 46.9501L136.713 43.1081L130.272 42.3486L126.565 30.4398L125.017 30.7085L122.849 29.4062L121.847 29.5491Z" fill="white"/>
<path fill-rule="evenodd" clip-rule="evenodd" d="M136.204 107.583L137.466 108.494L146.417 106.346L147.87 103.758L167.284 99.4062L168.633 93.6608L166.213 85.716L162.083 78.6839L158.233 76.13L152.994 77.1025L159.941 80.2108L164.74 88.6023L164.125 93.0532L156.1 97.4963L150.114 97.8014L153.059 97.0873L146.398 96.0849L141.207 92.6351L140.78 85.2564L137.243 83.2101L133.837 72.4114L129.729 66.9335L127.508 66.3207L124.514 66.1246L123.24 68.0229L118.265 65.1872L121.159 56.3932L124.051 55.3545L127.343 49.404L135.102 46.9514L136.713 43.1094L130.275 42.3525L126.564 30.4398L125.017 30.7085L122.852 29.4062L121.847 29.5491L117.392 31.7369L115.747 34.5738L113.323 33.8338L110.712 34.5764L110.631 38.6417L108.255 38.443L107.777 39.4986L106.313 41.1761L79.5402 41.641L78.256 41.5708L62.9909 41.2073L55.3071 41.0839L34.9224 40.858L30.7026 40.7619L20.3012 40.6191L16.4931 54.9676L10.3984 80.3277L11.0645 82.087L30.3689 82.4116L32.1062 82.3973L40.4483 82.3779L40.4405 84.5176L42.6426 84.1761L43.1126 82.2961L49.5565 82.3441L49.6344 82.8037L50.7796 82.8453L51.2405 82.3324L54.0372 82.2207L70.3696 82.0636L72.1887 82.0468L85.0726 82.1338L85.3037 82.9349L98.5005 82.2233L103.72 81.7871L103.621 83.823L103.733 89.1775L105.961 88.6556L105.586 89.8657L105.969 90.907L105.583 93.5648L105.891 95.2514L106.823 95.9395L109.193 97.1808L110.939 99.6023L112.332 101.272L114.926 102.555L116.343 112.067L121.416 110.28L125.98 103.4L128.322 103.736L137.762 96.9198L136.204 107.583Z" stroke="#424242" stroke-width="1.10363" stroke-linecap="round" stroke-linejoin="round"/>
<path fill-rule="evenodd" clip-rule="evenodd" d="M140.49 115.998L141.49 115.539L140.712 112.789L139.179 114.909L139.01 112.266L136.321 113.543L132.767 117.967L132.051 121.37L131.471 119.773L128.758 120.112L132.162 122.944L133.455 120.773L144.632 119.877L143.202 116.572L140.49 115.998Z" fill="white"/>
<path fill-rule="evenodd" clip-rule="evenodd" d="M140.49 115.998L141.49 115.539L140.712 112.789L139.179 114.909L139.01 112.266L136.321 113.543L132.767 117.967L132.051 121.37L131.471 119.773L128.758 120.112L132.162 122.944L133.455 120.773L144.632 119.877L143.202 116.572L140.49 115.998Z" stroke="#424242" stroke-width="1.10363" stroke-linecap="round" stroke-linejoin="round"/>
<path fill-rule="evenodd" clip-rule="evenodd" d="M164.624 118.505L162.419 121.72L165.01 119.225L165.934 119.916L164.859 120.712L162.015 122.869L157.127 122.121L156.914 123.54L161.889 125.198L167.824 124.12L167.814 121.591L163.854 116.047L164.624 118.505Z" fill="white"/>
<path fill-rule="evenodd" clip-rule="evenodd" d="M167.817 121.588L163.854 116.047L164.624 118.503L162.418 121.721L165.009 119.225L165.933 119.915L164.859 120.715L162.015 122.869L157.13 122.118L156.914 123.541L161.889 125.198L167.827 124.12L167.817 121.588Z" stroke="#424242" stroke-width="1.10363" stroke-linecap="round" stroke-linejoin="round"/>
<path fill-rule="evenodd" clip-rule="evenodd" d="M118.241 55.8583L116.766 54.1522L117.652 52.6383L117.4 51.2464L116.175 51.114L115.896 49.9351L116.646 48.2381L117.659 48.39L117.765 47.8213L116.637 46.4632L113.539 47.1292L112.39 46.3281L111.964 47.0319L111.192 46.4684L111.545 46.01L107.59 43.7521L108.592 43.2847L107.778 39.4986L108.256 38.443L110.632 38.6417L110.714 34.5751L113.324 33.8338L115.748 34.5725L117.393 31.7356L121.847 29.5491L122.85 29.4062L125.018 30.7111L126.566 30.4398L130.275 42.3525L136.714 43.1081L135.103 46.9501L127.344 49.404L124.052 55.3545L121.159 56.3932L119.142 56.7399L118.892 55.7739L118.241 55.8583Z" fill="#ED232A"/>
<path fill-rule="evenodd" clip-rule="evenodd" d="M118.241 55.8583L116.766 54.1522L117.652 52.6383L117.4 51.2464L116.175 51.114L115.896 49.9351L116.646 48.2381L117.659 48.39L117.765 47.8213L116.637 46.4632L113.539 47.1292L112.39 46.3281L111.964 47.0319L111.192 46.4684L111.545 46.01L107.59 43.7521L108.592 43.2847L107.778 39.4986L108.256 38.443L110.632 38.6417L110.714 34.5751L113.324 33.8338L115.748 34.5725L117.393 31.7356L121.847 29.5491L122.85 29.4062L125.018 30.7111L126.566 30.4398L130.275 42.3525L136.714 43.1081L135.103 46.9501L127.344 49.404L124.052 55.3545L121.159 56.3932L119.142 56.7399L118.892 55.7739L118.241 55.8583Z" stroke="#424242" stroke-width="0.275907" stroke-linecap="round" stroke-linejoin="round"/>
<path fill-rule="evenodd" clip-rule="evenodd" d="M16.4892 54.9722L10.3984 80.331L11.0645 82.0903L30.3663 82.4175L30.4105 81.5528L29.2186 79.1027L29.7561 77.7238L29.2978 75.7723L30.5481 75.4698L31.1272 76.1567L32.2581 66.0838L30.9571 66.5006L29.647 65.3775L29.129 62.5132L29.3055 61.8329L31.7063 62.1354L33.0865 51.782L34.0849 45.7692L33.5669 45.207L32.3425 44.924L33.0111 43.6243L33.772 43.5412L33.8187 42.8634L30.7753 42.8375L30.7026 40.7678L20.3012 40.625L16.4892 54.9722Z" fill="#ED232A"/>
<path fill-rule="evenodd" clip-rule="evenodd" d="M11.0645 82.0903L10.3984 80.331L16.4905 54.9709L20.3012 40.625L30.7026 40.7678L30.7753 42.8375L33.82 42.866L33.772 43.5373L33.0111 43.6269L32.3425 44.924L33.5682 45.2096L34.0888 45.7692L33.0865 51.7794L31.7076 62.1341L29.3094 61.8316L29.1303 62.5132L29.6483 65.3775L30.9545 66.5006L32.2581 66.0825L31.1285 76.1554L30.5494 75.4698L29.3004 75.7723L29.76 77.7238L29.2199 79.1014L30.4118 81.5515L30.3676 82.4175L11.0645 82.0903Z" stroke="#424242" stroke-width="0.275907" stroke-linecap="round" stroke-linejoin="round"/>
<path fill-rule="evenodd" clip-rule="evenodd" d="M30.7031 40.7656L34.9229 40.8604L55.3089 41.0876L62.9927 41.211L63.3056 43.6013L65.2428 44.5569L65.779 46.7836L64.4002 47.7068L64.308 49.7323L63.5965 49.7855L63.812 52.2862L64.8286 53.8897L63.2056 55.3296L63.4407 57.7459L62.5616 59.3962L62.4266 63.1589L61.6216 65.0416L60.4855 65.5934L60.3791 62.4201L59.1871 59.2897L54.6765 59.9701L54.3156 58.6821L45.1308 60.3479L45.2178 57.581L42.4678 58.0342L42.521 57.2564L37.8806 56.0321L37.8897 53.8287L37.1249 53.3496L37.1509 52.4654L33.0909 51.7785L34.0893 45.767L33.5687 45.2061L32.3456 44.9205L33.0117 43.6247L33.7764 43.5377L33.8206 42.8625L30.7758 42.8379L30.7031 40.7656Z" fill="#ED232A"/>
<path fill-rule="evenodd" clip-rule="evenodd" d="M30.7031 40.7656L34.9229 40.8604L55.3089 41.0876L62.9927 41.211L63.3056 43.6013L65.2428 44.5569L65.779 46.7836L64.4002 47.7068L64.308 49.7323L63.5965 49.7855L63.812 52.2862L64.8286 53.8897L63.2056 55.3296L63.4407 57.7459L62.5616 59.3962L62.4266 63.1589L61.6216 65.0416L60.4855 65.5934L60.3791 62.4201L59.1871 59.2897L54.6765 59.9701L54.3156 58.6821L45.1308 60.3479L45.2178 57.581L42.4678 58.0342L42.521 57.2564L37.8806 56.0321L37.8897 53.8287L37.1249 53.3496L37.1509 52.4654L33.0909 51.7785L34.0893 45.767L33.5687 45.2061L32.3456 44.9205L33.0117 43.6247L33.7764 43.5377L33.8206 42.8625L30.7758 42.8379L30.7031 40.7656Z" stroke="#424242" stroke-width="0.275907" stroke-linecap="round" stroke-linejoin="round"/>
<path fill-rule="evenodd" clip-rule="evenodd" d="M111.45 65.7417L110.408 64.8588L109.91 63.4929L109.197 62.8229L105.38 64.333L106.329 67.8918L105.29 68.0879L104.604 70.4042L104.873 70.8041L102.698 71.4624L102.461 72.0558L100.83 72.0674L99.1564 73.6385L99.098 72.8569L97.9814 72.866L95.6663 72.0259L95.5248 71.2443L94.0044 71.2832L93.3422 69.9783L93.8421 67.6374L94.9535 67.0102L97.153 66.9141L98.4397 64.5433L98.0813 63.4137L95.1937 63.4669L93.8447 64.5199L93.2098 63.4007L92.175 62.7892L92.7151 61.1986L93.8681 60.2495L93.5409 59.6873L94.8445 58.4941L95.4768 55.5312L94.6263 55.0547L95.8325 52.3307L95.6585 51.1543L94.2121 50.6285L93.0735 51.2192L92.0932 50.6168L91.5816 51.1543L91.6465 52.1203L89.6587 51.5464L89.9223 46.9956L85.0364 45.0753L84.8767 45.8283L81.5334 45.9569L81.5165 43.4289L79.543 41.6449L106.317 41.1801L107.778 39.5L108.592 43.2861L107.593 43.7535L111.547 46.0101L111.195 46.4723L111.966 47.0319L112.392 46.3295L113.543 47.1306L116.637 46.4633L117.767 47.8253L117.661 48.394L116.646 48.2394L115.898 49.9364L116.176 51.1154L117.404 51.2465L117.656 52.6384L116.765 54.1536L118.243 55.8584L117.252 59.1991L116.329 59.1018L115.902 60.0431L116.696 61.2999L114.499 61.3947L113.62 60.6196L111.913 61.7089L112.98 62.9047L111.794 64.1226L112.53 64.6017L111.45 65.7417Z" fill="#ED232A"/>
<path fill-rule="evenodd" clip-rule="evenodd" d="M111.45 65.7417L110.408 64.8588L109.91 63.4929L109.197 62.8229L105.38 64.333L106.329 67.8918L105.29 68.0879L104.604 70.4042L104.873 70.8041L102.698 71.4624L102.461 72.0558L100.83 72.0674L99.1564 73.6385L99.098 72.8569L97.9814 72.866L95.6663 72.0259L95.5248 71.2443L94.0044 71.2832L93.3422 69.9783L93.8421 67.6374L94.9535 67.0102L97.153 66.9141L98.4397 64.5433L98.0813 63.4137L95.1937 63.4669L93.8447 64.5199L93.2098 63.4007L92.175 62.7892L92.7151 61.1986L93.8681 60.2495L93.5409 59.6873L94.8445 58.4941L95.4768 55.5312L94.6263 55.0547L95.8325 52.3307L95.6585 51.1543L94.2121 50.6285L93.0735 51.2192L92.0932 50.6168L91.5816 51.1543L91.6465 52.1203L89.6587 51.5464L89.9223 46.9956L85.0364 45.0753L84.8767 45.8283L81.5334 45.9569L81.5165 43.4289L79.543 41.6449L106.317 41.1801L107.778 39.5L108.592 43.2861L107.593 43.7535L111.547 46.0101L111.195 46.4723L111.966 47.0319L112.392 46.3295L113.543 47.1306L116.637 46.4633L117.767 47.8253L117.661 48.394L116.646 48.2394L115.898 49.9364L116.176 51.1154L117.404 51.2465L117.656 52.6384L116.765 54.1536L118.243 55.8584L117.252 59.1991L116.329 59.1018L115.902 60.0431L116.696 61.2999L114.499 61.3947L113.62 60.6196L111.913 61.7089L112.98 62.9047L111.794 64.1226L112.53 64.6017L111.45 65.7417Z" stroke="#424242" stroke-width="0.275907" stroke-linecap="round" stroke-linejoin="round"/>
<path fill-rule="evenodd" clip-rule="evenodd" d="M70.3654 82.0595L70.1473 74.4951L67.5985 74.9716L64.585 72.8176L65.2511 70.9388L66.7364 69.0743L66.2443 65.6154L64.1033 66.3295L63.3697 63.0874L62.4219 63.1511L62.5556 59.3883L63.4346 57.7381L63.1996 55.3218L64.8252 53.8819L63.8073 52.2784L63.5917 49.7777L64.3019 49.7244L64.3941 47.699L65.7743 46.7758L65.2368 44.5465L63.3035 43.5935L62.9867 41.2031L78.2518 41.5667L79.5359 41.6368L81.5082 43.4208L81.525 45.9487L84.8723 45.8202L85.0281 45.0671L89.9139 46.9913L89.6543 51.5409L91.6408 52.1148L91.5772 51.1462L92.0887 50.6086L93.0651 51.2137L94.2064 50.6203L95.6541 51.1462L95.8268 52.3251L94.6206 55.0478L95.4723 55.523L94.84 58.486L93.5325 59.6792L93.8597 60.2414L92.7068 61.1944L92.1692 62.7823L93.2053 63.3926L93.8403 64.5157L95.1893 63.4601L98.0743 63.4069L98.4326 64.5351L97.1446 66.9073L94.9491 67.0047L93.8377 67.6292L93.3365 69.9702L93.9974 71.2751L95.5165 71.2387L95.6619 72.0204L97.973 72.8604L99.0922 72.8487L99.1519 73.6304L99.1286 75.0469L98.2392 76.2375L98.4989 82.2192L85.3008 82.9307L85.0683 82.127L72.1844 82.0426L70.3654 82.0595Z" fill="#ED232A"/>
<path fill-rule="evenodd" clip-rule="evenodd" d="M70.3654 82.0595L70.1473 74.4951L67.5985 74.9716L64.585 72.8176L65.2511 70.9388L66.7364 69.0743L66.2443 65.6154L64.1033 66.3295L63.3697 63.0874L62.4219 63.1511L62.5556 59.3883L63.4346 57.7381L63.1996 55.3218L64.8252 53.8819L63.8073 52.2784L63.5917 49.7777L64.3019 49.7244L64.3941 47.699L65.7743 46.7758L65.2368 44.5465L63.3035 43.5935L62.9867 41.2031L78.2518 41.5667L79.5359 41.6368L81.5082 43.4208L81.525 45.9487L84.8723 45.8202L85.0281 45.0671L89.9139 46.9913L89.6543 51.5409L91.6408 52.1148L91.5772 51.1462L92.0887 50.6086L93.0651 51.2137L94.2064 50.6203L95.6541 51.1462L95.8268 52.3251L94.6206 55.0478L95.4723 55.523L94.84 58.486L93.5325 59.6792L93.8597 60.2414L92.7068 61.1944L92.1692 62.7823L93.2053 63.3926L93.8403 64.5157L95.1893 63.4601L98.0743 63.4069L98.4326 64.5351L97.1446 66.9073L94.9491 67.0047L93.8377 67.6292L93.3365 69.9702L93.9974 71.2751L95.5165 71.2387L95.6619 72.0204L97.973 72.8604L99.0922 72.8487L99.1519 73.6304L99.1286 75.0469L98.2392 76.2375L98.4989 82.2192L85.3008 82.9307L85.0683 82.127L72.1844 82.0426L70.3654 82.0595Z" stroke="#424242" stroke-width="0.275907" stroke-linecap="round" stroke-linejoin="round"/>
<path fill-rule="evenodd" clip-rule="evenodd" d="M66.7419 69.0796L65.3838 69.3588L64.6593 70.4092L63.8867 69.8833L61.5341 70.5157L60.5382 72.5658L58.962 72.6892L58.4283 70.3248L49.6603 71.5297L48.9916 70.2183L49.6551 67.8799L49.2357 67.2113L47.9958 68.3759L47.2544 70.8013L45.847 71.6167L45.9976 73.1423L41.9401 72.2685L41.8791 71.4401L41.2805 71.257L41.3026 70.4235L40.595 70.404L40.4794 69.9729L38.6357 70.1235L37.958 71.1791L36.1844 70.0924L37.2893 68.6304L37.1413 64.6599L36.5959 64.2626H34.1199L32.2619 66.0765L30.957 66.4946L29.6483 65.3714L29.1328 62.5072L29.3094 61.8256L31.7075 62.1281L33.089 51.7734L37.1504 52.459L37.1244 53.3471L37.8891 53.8223L37.8826 56.0296L42.5192 57.2526L42.466 58.0291L45.2172 57.5785L45.1302 60.3454L54.3137 58.6783L54.6747 59.9663L59.1866 59.2833L60.3811 62.4176L60.485 65.5896L61.6211 65.0378L62.4261 63.1564L63.3752 63.0889L64.1088 66.3349L66.2485 65.6207L66.7419 69.0796Z" fill="#ED232A"/>
<path fill-rule="evenodd" clip-rule="evenodd" d="M66.7419 69.0796L65.3838 69.3588L64.6593 70.4092L63.8867 69.8833L61.5341 70.5157L60.5382 72.5658L58.962 72.6892L58.4283 70.3248L49.6603 71.5297L48.9916 70.2183L49.6551 67.8799L49.2357 67.2113L47.9958 68.3759L47.2544 70.8013L45.847 71.6167L45.9976 73.1423L41.9401 72.2685L41.8791 71.4401L41.2805 71.257L41.3026 70.4235L40.595 70.404L40.4794 69.9729L38.6357 70.1235L37.958 71.1791L36.1844 70.0924L37.2893 68.6304L37.1413 64.6599L36.5959 64.2626H34.1199L32.2619 66.0765L30.957 66.4946L29.6483 65.3714L29.1328 62.5072L29.3094 61.8256L31.7075 62.1281L33.089 51.7734L37.1504 52.459L37.1244 53.3471L37.8891 53.8223L37.8826 56.0296L42.5192 57.2526L42.466 58.0291L45.2172 57.5785L45.1302 60.3454L54.3137 58.6783L54.6747 59.9663L59.1866 59.2833L60.3811 62.4176L60.485 65.5896L61.6211 65.0378L62.4261 63.1564L63.3752 63.0889L64.1088 66.3349L66.2485 65.6207L66.7419 69.0796Z" stroke="#424242" stroke-width="0.275907" stroke-linecap="round" stroke-linejoin="round"/>
<path fill-rule="evenodd" clip-rule="evenodd" d="M111.445 65.732L112.526 64.5921L112.777 64.9673L114.101 63.8052L115.244 61.4474L114.473 61.4019L112.976 62.8951L111.909 61.6993L113.616 60.6099L114.495 61.385L116.692 61.2903L115.897 60.0334L116.325 59.0921L117.248 59.1895L118.238 55.8487L118.892 55.7656L119.14 56.7316L121.157 56.3837L118.264 65.1802L117.867 66.1151L115.5 66.8266L114.696 68.3924L113.916 68.6911L111.445 65.732Z" fill="#ED232A"/>
<path fill-rule="evenodd" clip-rule="evenodd" d="M111.445 65.732L112.526 64.5921L112.777 64.9673L114.101 63.8052L115.244 61.4474L114.473 61.4019L112.976 62.8951L111.909 61.6993L113.616 60.6099L114.495 61.385L116.692 61.2903L115.897 60.0334L116.325 59.0921L117.248 59.1895L118.238 55.8487L118.892 55.7656L119.14 56.7316L121.157 56.3837L118.264 65.1802L117.867 66.1151L115.5 66.8266L114.696 68.3924L113.916 68.6911L111.445 65.732Z" stroke="#424242" stroke-width="0.275907" stroke-linecap="round" stroke-linejoin="round"/>
<path fill-rule="evenodd" clip-rule="evenodd" d="M66.7382 69.0748L65.2516 70.9393L64.5829 72.8155L67.5991 74.9695L70.1491 74.4956L70.3672 82.0587L54.0335 82.2158L51.2381 82.3249L50.7759 82.8377L49.6346 82.7962L49.5541 82.3366L43.1115 82.2885L42.6415 84.1712L40.4394 84.5127L40.4459 82.3703L32.1038 82.3898L30.3665 82.4067L30.4107 81.5406L29.2188 79.0906L29.7563 77.713L29.2967 75.7615L30.5457 75.459L31.1248 76.1445L32.2583 66.0717L34.1163 64.2578H36.5923L37.1376 64.6551L37.2856 68.6256L36.1807 70.0876L37.9543 71.1743L38.6321 70.1187L40.4758 69.9681L40.5913 70.3992L41.2989 70.4187L41.2769 71.2522L41.8754 71.4353L41.9365 72.2637L45.9939 73.1375L45.8433 71.6119L47.2507 70.7965L47.9921 68.3711L49.2321 67.2064L49.6515 67.8751L48.988 70.2135L49.6567 71.5249L58.4247 70.32L58.9583 72.6843L60.5345 72.561L61.5304 70.5108L63.8831 69.8785L64.6556 70.4044L65.3801 69.354L66.7382 69.0748Z" fill="#ED232A"/>
<path fill-rule="evenodd" clip-rule="evenodd" d="M66.7382 69.0748L65.2516 70.9393L64.5829 72.8155L67.5991 74.9695L70.1491 74.4956L70.3672 82.0587L54.0335 82.2158L51.2381 82.3249L50.7759 82.8377L49.6346 82.7962L49.5541 82.3366L43.1115 82.2885L42.6415 84.1712L40.4394 84.5127L40.4459 82.3703L32.1038 82.3898L30.3665 82.4067L30.4107 81.5406L29.2188 79.0906L29.7563 77.713L29.2967 75.7615L30.5457 75.459L31.1248 76.1445L32.2583 66.0717L34.1163 64.2578H36.5923L37.1376 64.6551L37.2856 68.6256L36.1807 70.0876L37.9543 71.1743L38.6321 70.1187L40.4758 69.9681L40.5913 70.3992L41.2989 70.4187L41.2769 71.2522L41.8754 71.4353L41.9365 72.2637L45.9939 73.1375L45.8433 71.6119L47.2507 70.7965L47.9921 68.3711L49.2321 67.2064L49.6515 67.8751L48.988 70.2135L49.6567 71.5249L58.4247 70.32L58.9583 72.6843L60.5345 72.561L61.5304 70.5108L63.8831 69.8785L64.6556 70.4044L65.3801 69.354L66.7382 69.0748Z" stroke="#424242" stroke-width="0.275907" stroke-linecap="round" stroke-linejoin="round"/>
<path fill-rule="evenodd" clip-rule="evenodd" d="M124.195 94.3779L119.914 95.1816L120.414 93.9754L119.407 92.7705L121.858 90.1556L120.426 85.8813L118.57 84.8231L116.754 76.7082L123.398 72.774L123.812 69.0658L123.241 68.0245L124.514 66.125L127.508 66.3211L126.758 67.0611L126.962 67.7324L126.498 68.192L127.867 69.741L129.052 68.7659L129.204 67.8142L127.508 66.3211L129.73 66.9378L133.838 72.4157L137.244 83.2131L140.781 85.2567L141.208 92.6368L137.481 95.4192L137.763 96.924L128.323 103.737L125.866 96.0243L125.236 96.2956L124.195 94.3779Z" fill="white"/>
<path d="M127.508 66.3211L124.514 66.125L123.241 68.0245L123.812 69.0658L123.398 72.774L116.754 76.7082L118.57 84.8231L120.426 85.8813L121.858 90.1556L119.407 92.7705L120.414 93.9754L119.914 95.1816L124.195 94.3779L125.236 96.2956L125.866 96.0243L128.323 103.737L137.763 96.924L137.481 95.4192L141.208 92.6368L140.781 85.2567L137.244 83.2131L133.838 72.4157L129.73 66.9378L127.508 66.3211ZM127.508 66.3211L126.758 67.0611L126.962 67.7324L126.498 68.192L127.867 69.741L129.052 68.7659L129.204 67.8142L127.508 66.3211Z" stroke="#424242" stroke-width="0.275907" stroke-linecap="round" stroke-linejoin="round"/>
<path fill-rule="evenodd" clip-rule="evenodd" d="M112.971 62.8981L114.468 61.4062L115.243 61.4504L114.096 63.8083L112.772 64.9703L112.52 64.5951L111.785 64.1199L112.971 62.8981Z" fill="white"/>
<path fill-rule="evenodd" clip-rule="evenodd" d="M112.971 62.8981L114.468 61.4062L115.243 61.4504L114.096 63.8083L112.772 64.9703L112.52 64.5951L111.785 64.1199L112.971 62.8981Z" fill="#ED232A" stroke="#424242" stroke-width="0.275907" stroke-linecap="round" stroke-linejoin="round"/>
<path fill-rule="evenodd" clip-rule="evenodd" d="M116.753 76.6896L104.816 83.6373L103.624 83.8048L103.719 81.7689L98.5032 82.2065L98.2422 76.2248L99.1329 75.0342L99.1549 73.6177L100.829 72.0492L102.459 72.0349L102.698 71.4416L104.872 70.7859L104.6 70.386L105.286 68.0696L106.325 67.8736L105.378 64.3121L109.195 62.8047L109.908 63.4721L110.404 64.838L111.448 65.7209L113.916 68.6838L114.699 68.3813L115.503 66.818L117.867 66.1065L118.265 65.169L123.24 68.0021L123.81 69.0473L123.396 72.7516L116.753 76.6896Z" fill="#ED232A"/>
<path fill-rule="evenodd" clip-rule="evenodd" d="M116.753 76.6896L104.816 83.6373L103.624 83.8048L103.719 81.7689L98.5032 82.2065L98.2422 76.2248L99.1329 75.0342L99.1549 73.6177L100.829 72.0492L102.459 72.0349L102.698 71.4416L104.872 70.7859L104.6 70.386L105.286 68.0696L106.325 67.8736L105.378 64.3121L109.195 62.8047L109.908 63.4721L110.404 64.838L111.448 65.7209L113.916 68.6838L114.699 68.3813L115.503 66.818L117.867 66.1065L118.265 65.169L123.24 68.0021L123.81 69.0473L123.396 72.7516L116.753 76.6896Z" stroke="#424242" stroke-width="0.275907" stroke-linecap="round" stroke-linejoin="round"/>
<path fill-rule="evenodd" clip-rule="evenodd" d="M126.756 67.0487L126.961 67.7212L126.496 68.1835L127.862 69.7312L129.051 68.7548L129.202 67.8017L127.504 66.3125L126.756 67.0487Z" fill="white"/>
<path fill-rule="evenodd" clip-rule="evenodd" d="M127.504 66.3125L129.199 67.803L129.051 68.7548L127.862 69.7325L126.496 68.1809L126.961 67.7212L126.753 67.0487L127.504 66.3125Z" stroke="#424242" stroke-width="0.275907" stroke-linecap="round" stroke-linejoin="round"/>
<path fill-rule="evenodd" clip-rule="evenodd" d="M112.333 101.26L110.939 99.5898L109.192 97.1683L106.823 95.927L105.891 95.2389L105.583 93.5523L105.972 90.8958L105.586 89.8532L105.963 88.6444L103.737 89.165L103.625 83.8105L104.817 83.643L116.754 76.6953L118.569 84.8076L120.427 85.8684L121.858 90.1388L119.407 92.7551L120.417 93.9613L119.913 95.1662L124.194 94.3651L125.235 96.2828L125.865 96.0088L128.322 103.724L125.979 103.388L121.416 110.268L116.345 112.052L114.926 102.542L112.333 101.26Z" fill="white"/>
<path fill-rule="evenodd" clip-rule="evenodd" d="M112.333 101.26L110.939 99.5898L109.192 97.1683L106.823 95.927L105.891 95.2389L105.583 93.5523L105.972 90.8958L105.586 89.8532L105.963 88.6444L103.737 89.165L103.625 83.8105L104.817 83.643L116.754 76.6953L118.569 84.8076L120.427 85.8684L121.858 90.1388L119.407 92.7551L120.417 93.9613L119.913 95.1662L124.194 94.3651L125.235 96.2828L125.865 96.0088L128.322 103.724L125.979 103.388L121.416 110.268L116.345 112.052L114.926 102.542L112.333 101.26Z" stroke="#424242" stroke-width="0.275907" stroke-linecap="round" stroke-linejoin="round"/>
<path fill-rule="evenodd" clip-rule="evenodd" d="M152.993 77.0884L159.94 80.1967L164.739 88.5895L164.121 93.0365L156.098 97.4834L150.11 97.7886L153.056 97.0745L146.394 96.0721L141.206 92.6223L137.478 95.4034L137.759 96.907L136.203 107.571L137.465 108.481L146.416 106.332L147.869 103.742L167.283 99.3908L168.632 93.6441L166.209 85.6993L162.081 78.6711L158.23 76.1172L152.993 77.0884Z" fill="white"/>
<path fill-rule="evenodd" clip-rule="evenodd" d="M137.762 96.907L137.479 95.4034L141.207 92.6223L146.397 96.0721L153.06 97.0745L150.113 97.786L156.102 97.4834L164.124 93.0365L164.743 88.5895L159.944 80.1941L152.993 77.0884L158.232 76.1172L162.081 78.6711L166.211 85.7032L168.632 93.6441L167.287 99.3908L147.869 103.743L146.42 106.329L137.468 108.481L136.203 107.571L137.762 96.907Z" stroke="#424242" stroke-width="0.275907" stroke-linecap="round" stroke-linejoin="round"/>
<path fill-rule="evenodd" clip-rule="evenodd" d="M139.181 114.912L140.715 112.789L141.492 115.541L140.494 116.001L143.202 116.575L144.634 119.877L133.459 120.775L132.166 122.946L128.758 120.112L131.475 119.773L132.054 121.371L132.77 117.969L136.325 113.545L139.01 112.266L139.181 114.912Z" fill="white"/>
<path fill-rule="evenodd" clip-rule="evenodd" d="M139.181 114.912L140.715 112.789L141.492 115.541L140.494 116.001L143.202 116.575L144.634 119.877L133.459 120.775L132.166 122.946L128.758 120.112L131.475 119.773L132.054 121.371L132.77 117.969L136.325 113.545L139.01 112.266L139.181 114.912Z" stroke="#424242" stroke-width="0.275907" stroke-linecap="round" stroke-linejoin="round"/>
<path fill-rule="evenodd" clip-rule="evenodd" d="M164.624 118.505L162.419 121.72L165.01 119.225L165.934 119.916L164.859 120.712L162.015 122.869L157.127 122.121L156.914 123.54L161.889 125.198L167.824 124.12L167.814 121.591L163.854 116.047L164.624 118.505Z" fill="white"/>
<path fill-rule="evenodd" clip-rule="evenodd" d="M164.859 120.72L165.933 119.923L165.01 119.233L162.418 121.726L164.623 118.511L163.854 116.055L167.817 121.594L167.827 124.128L161.887 125.207L156.914 123.549L157.127 122.126L162.013 122.876L164.859 120.72Z" stroke="#424242" stroke-width="0.275907" stroke-linecap="round" stroke-linejoin="round"/>
</svg>
