<svg width="180" height="154" viewBox="0 0 180 154" fill="none" xmlns="http://www.w3.org/2000/svg">
<rect width="180" height="154" fill="#F5F5F5"/>
<g clip-path="url(#clip0_2861_1367)">
<path d="M105.309 64.3027L105.717 64.092L105.929 63.5692L106.312 63.3738L106.703 63.3981L107.085 63.2407L107.275 62.93L107.401 62.2931L108.035 61.3187L108.653 60.6893L108.947 60.7053L109.259 60.4828L109.529 60.5162L110.189 59.2095L110.405 59.0468L110.737 58.7054L110.983 58.7653L111.374 58.3659L111.778 58.2407L112.189 58.322L112.553 58.5774L112.807 58.5251L113.214 57.918L113.461 58.0568L114.495 59.3176L115.688 59.7739L116.294 59.2796L116.212 59.4596L116.488 59.846L116.289 60.0891L116.569 60.6744L117.054 60.9243L117.482 61.4106L117.473 61.7242L117.913 61.6281L118.21 61.1881L118.538 61.75L119.217 62.2693L119.995 62.7902L119.931 63.7748L120.337 65.058L120.348 65.3793L120.065 66.0475L119.751 66.5243L120.03 66.8014L120.978 67.4292L121.247 67.9242L121.375 68.3896L120.68 68.9249L120.706 69.1355L120.055 68.9314L119.943 69.1584L119.508 69.2429L119.375 70.06L119.083 69.7308L118.919 69.9001L118.45 69.8841L118.637 71.0597L118.931 71.426L119.113 71.4309L119.386 71.7729L119.046 72.1308L118.905 72.4348L119.084 73.0111L119.037 73.3904L118.701 73.1882L117.966 72.4486L117.262 72.8097L117.33 73.133L117.794 73.2983L117.933 73.9858L117.947 74.4415L116.918 75.4717L116.239 75.5591L116.314 76.0139L116.912 76.0865L117.09 75.9899L117.516 76.2942L117.831 76.0449L118.002 76.6086L117.794 77.0076L117.723 77.7269L117.413 77.9642L117.292 78.3694L116.802 78.6793L116.727 79.0568L116.282 79.6362L115.914 79.7265L115.543 79.9886L115.574 80.3962L115.751 80.6146L115.637 81.0522L115.814 81.4889L116.111 81.8446L116.639 81.8062L116.773 81.9996L116.702 82.5447L116.436 82.1254L113.533 82.1832L113.275 81.9121L113.256 80.0014L112.843 80.0333L112.532 79.915L111.91 80.1585L111.448 80.5693L111.011 80.5398L110.973 80.8989L110.506 80.6688L110.439 79.9497L110.017 79.6627L109.949 79.387L110.377 78.9216L110.099 78.6594L110.165 78.3259L110.023 77.9311L110.399 77.7325L110.591 77.4038L110.465 76.7427L110.739 75.6839L111.051 75.3296L111.286 74.8939L111.289 73.9521L111.528 73.5594L111.201 73.2747L110.765 72.6071L110.819 72.1943L110.592 71.4893L110.628 71.104L110.331 70.475L110.331 70.0203L110.465 69.825L110.085 69.3831L109.636 69.0887L109.527 68.86L109.185 68.7354L108.792 68.2928L108.841 67.9816L108.676 67.5272L108.337 67.3244L108.183 67.4368L107.616 67.0129L107.036 66.9752L106.93 66.5874L106.636 66.2194L106.401 66.2939L105.983 66.1836L105.439 65.8668L105.603 65.5914L105.524 65.2677L105.809 64.9409L105.759 64.6962L105.437 64.6087L105.309 64.3027Z" fill="#ED232A" stroke="#424242" stroke-width="0.310184" stroke-linejoin="round"/>
<path d="M137.479 72.6525L137.348 72.1406L137.518 72.0129L137.402 71.3299L137.713 71.1568L137.844 70.7428L137.683 70.3184L137.895 70.045L138.129 69.2316L138.405 69.048L138.486 68.7797L139.513 67.9069L139.517 67.6875L139.784 67.4489L140.005 66.5246L140.233 66.0582L140.474 65.9629L140.975 65.3873L140.989 64.7154L141.163 64.484L141.451 63.6408L142.341 63.0599L143.01 62.459L144.196 62.1749L144.562 61.9375L145.726 76.6652L146.44 85.8072L146.171 85.3122L145.32 84.4101L144.905 84.1446L144.397 83.4391L144.172 83.4624L144.007 83.9082L143.116 83.9353L143.025 82.9694L142.459 82.914L141.662 82.6609L140.938 82.8055L140.506 83.1379L139.835 83.0912L139.538 82.9115L139.267 83.4683L138.372 84.0245L138.233 83.8008L137.821 84.1226L136.858 83.6422L136.709 83.0792L136.211 83.0943L136.016 82.9585L136.025 82.4999L135.25 81.5967L135.463 81.2262L135.919 81.2543L135.976 80.9649L135.79 80.378L135.994 80.1469L136.491 79.9319L136.779 79.6516L137.057 79.1731L137.586 79.2229L138.016 78.802L138.184 78.3805L138.943 77.8909L139.217 77.8572L139.449 77.4631L139.111 77.2567L139.174 76.9356L138.861 76.7947L138.772 76.5572L138.316 76.3732L138.484 75.6255L138.422 75.3621L137.879 75.0803L137.461 74.2476L137.673 73.6278L137.522 73.299L137.479 72.6525Z" fill="white" stroke="#424242" stroke-width="0.310184" stroke-linejoin="round"/>
<path d="M98.1729 79.2948L98.2313 79.0001L99.583 77.5902L100.368 76.8289L102.878 74.2255L101.946 73.2672L99.4963 70.8239L99.797 70.3609L100.058 70.286L100.132 69.8001L99.9034 69.555L101.58 66.5869L102.888 64.1781L103.015 63.7852L102.89 63.6303L103.357 63.3468L103.562 63.0117L104.271 63.8855L104.72 63.9523L105.312 64.306L105.419 64.5986L105.741 64.6879L105.791 64.9309L105.507 65.2577L105.585 65.5831L105.421 65.8568L105.965 66.1735L106.383 66.2856L106.62 66.2097L106.914 66.5777L107.02 66.9655L107.596 67.0007L108.147 67.4617L108.301 67.3493L108.641 67.5504L108.805 68.0065L108.757 68.3159L109.154 68.7758L109.495 68.9022L109.606 69.1312L110.054 69.4252L110.434 69.8672L110.3 70.0607L110.301 70.5175L110.597 71.1444L110.561 71.5297L110.788 72.2365L110.734 72.6493L111.17 73.3151L111.497 73.5998L111.257 73.9943L111.255 74.9343L111.021 75.3721L110.707 75.7262L110.434 76.7849L110.56 77.4442L110.366 77.7836L110.004 78.0016L110.147 78.3967L110.081 78.7301L110.358 78.992L109.932 79.4468L110 79.7243L110.422 80.0095L110.49 80.7307L110.958 80.9609L111.047 81.4369L110.695 81.5504L110.708 82.0738L110.409 82.7315L110.668 83.2227L110.546 83.6882L110.958 84.1107L110.842 84.4746L110.524 84.5951L110.524 84.8462L111.102 85.0578L110.8 85.6581L110.761 86.226L111.283 86.6522L111.508 87.111L111.508 87.9709L111.221 88.8547L111.277 89.5001L111.53 90.1553L111.422 90.9517L110.899 90.8719L110.488 90.545L109.683 90.2351L109.056 89.8909L109.081 89.2341L108.983 89.0569L108.963 88.228L108.829 87.9796L108.784 87.1511L108.391 87.0365L106.982 86.356L104.587 85.2456L104.041 85.2273L103.11 85.5839L102.28 85.4324L101.838 85.4456L101.591 85.2264L100.899 85.1205L100.651 85.2546L99.9772 85.3229L99.2666 85.5691L98.9013 85.8305L98.6273 86.4363L98.2834 86.6084L97.9929 87.0569L97.8482 87.0282L96.8074 83.5805L96.5273 83.0227L97.0483 82.827L97.7217 82.8338L97.9855 82.6221L98.1513 82.081L98.1114 81.3562L98.1729 79.2948Z" fill="#ED232A" stroke="#424242" stroke-width="0.310184" stroke-linejoin="round"/>
<path d="M51.5641 35.0859L60.2509 35.1705L68.2515 35.2109L73.6213 35.2969L78.9603 35.3346L82.7045 35.3518L82.5302 35.6491L82.0936 36.076L81.9382 36.4999L81.4901 36.7999L81.8552 37.4003L81.655 37.819L81.1652 38.4407L80.8765 39.0748L80.5105 39.4973L80.1431 39.4081L79.8646 39.518L79.784 39.7954L79.0942 40.0475L78.9026 40.5431L78.8232 41.0554L78.5057 42.3438L78.2528 42.6952L78.119 43.7688L77.8185 43.9624L77.5583 44.3509L77.23 45.342L77.2149 45.7057L77.5201 46.0998L77.2455 46.5606L77.4562 47.1909L77.0727 47.72L76.9828 48.1184L76.7055 48.5933L76.675 49.2474L76.5609 49.7217L76.5775 50.2952L76.174 51.583L75.8428 52.1445L75.6171 52.7287L75.3828 53.0325L75.2481 53.9812L74.5195 54.2348L74.151 54.0958L73.7291 54.1058L73.4448 54.088L73.166 53.8385L72.4211 53.5077L72.3072 52.9717L72.7894 52.6015L72.8529 52.0402L72.5342 51.4271L72.6635 51.1538L73.1366 50.9871L72.9928 50.3151L72.7249 49.8807L72.5333 49.2927L72.1692 49.0483L71.7569 49.0748L71.127 48.9501L70.7756 48.6972L70.8372 48.4692L71.2797 48.3735L71.3679 48.1691L70.9385 47.754L71.1175 47.4704L71.572 47.5733L71.6422 47.3947L71.0295 47.035L71.0378 46.5398L71.8893 46.1932L72.0944 45.8891L71.9188 45.7296L71.5375 45.7294L71.0322 46.1794L70.5982 46.1485L69.9739 45.9588L69.2543 45.7503L69.2759 45.4099L69.9733 44.8879L69.987 44.3094L69.6981 44.1477L69.4427 44.3172L69.3926 44.8206L68.7365 45.0134L68.5256 44.8561L68.5953 44.0504L68.3395 43.6019L67.7906 43.2255L67.7391 42.8834L68.0774 42.6846L69.3679 42.6486L69.6901 42.3365L69.816 41.3952L69.7449 40.9209L69.536 40.6889L68.9867 40.6388L67.8572 40.2318L67.9708 40.973L67.7262 41.0969L66.4846 40.7374L66.1459 40.1331L65.823 40.0692L66.0512 40.5746L65.9183 41.5695L65.6639 41.6787L65.4593 41.3045L65.5105 40.7774L65.1019 40.5535L64.5779 40.9686L63.6688 40.9298L63.3472 40.7579L62.9578 40.0208L62.4769 39.2637L61.0066 37.6891L60.5697 37.5531L60.2992 37.2428L59.919 37.052L59.0339 36.8181L58.6502 36.6541L58.2706 36.645L57.6772 36.401L57.2695 36.4229L56.9215 36.6987L56.5431 37.2857L55.6719 37.2965L55.4633 37.5632L55.7786 37.9428L55.6366 38.2062L55.2649 38.426L54.6893 38.9721L54.3981 39.4241L54.2259 39.9694L53.6484 39.8862L52.7576 39.4495L51.8427 39.1162L51.5546 38.7658L51.6384 38.3423L51.168 38.218L51.3103 37.9712L51.8862 37.702L51.5308 37.2649L51.728 37.0564L52.1343 37.2267L52.45 37.0399L52.4769 36.1633L51.8597 35.6873L51.8804 35.2495L51.5641 35.0859Z" fill="#ED232A" stroke="#424242" stroke-width="0.310184" stroke-linejoin="round"/>
<path d="M30.6908 34.8047L34.9712 34.8638L37.9948 34.8997L44.6243 35.0132L47.3462 35.0168L50.2316 35.0748L51.579 35.0849L51.8993 35.2363L51.8786 35.6741L52.4746 36.1826L52.4459 37.0589L52.132 37.2461L51.7243 37.0736L51.5289 37.2825L51.8843 37.7195L51.3092 38.0127L51.1682 38.2616L51.6372 38.3838L51.5534 38.8073L51.8415 39.1577L51.1978 38.9642L50.9531 39.1908L51.1217 39.5615L50.8132 39.638L50.4368 39.4278L50.1012 39.53L50.0823 39.8104L50.4546 40.282L50.2483 40.463L49.6176 40.0741L48.7382 39.691L48.3912 39.7213L48.2675 39.9571L48.7239 40.6709L49.5458 41.2884L49.618 41.5722L49.1613 41.832L48.7837 41.7114L48.4446 41.4425L47.9151 41.2277L47.429 41.3954L47.3845 41.7221L47.5236 42.01L48.0879 42.5215L48.5028 42.732L48.8278 43.1832L47.6398 43.7199L47.2687 43.7417L47.2616 44.2775L46.982 44.708L46.5607 44.6044L45.7568 44.6085L45.1094 44.3134L44.2074 44.4795L43.5063 44.5479L43.0711 44.2087L42.5719 43.9521L41.4742 43.5789L41.1922 43.6881L40.2407 43.7711L39.8487 43.5284L39.6021 43.5145L39.1127 43.2544L38.9354 42.9094L38.4917 42.7794L38.2538 42.4811L37.8314 42.3828L37.5894 41.8362L37.5256 41.3065L37.0758 41.6337L36.7081 41.5737L36.3322 41.2499L36.2194 40.8939L35.9511 40.5914L36.3137 40.2507L36.9083 40.2016L37.0646 40.403L37.545 40.0233L37.4635 39.657L37.0271 39.4349L36.4984 39.772L35.9887 39.6326L36.1722 38.9191L36.4372 38.5902L36.0843 38.5203L35.8594 38.9341L35.5188 38.8667L35.1438 39.3718L35.3387 39.9989L35.3388 40.34L34.8756 40.263L34.7664 40.7492L34.5156 41.0901L34.2618 41.159L34.2399 41.7047L34.464 41.7491L34.6923 42.161L34.4054 42.4892L33.8087 42.1694L33.3205 42.5146L33.3225 42.7918L32.9431 43.4024L32.61 43.5014L32.6533 43.829L32.4531 44.2569L31.8941 44.1352L31.7965 44.7118L31.3468 44.7603L31.3986 45.0822L31.0356 45.5915L30.9322 45.9377L30.3202 45.9449L30.0067 46.1854L30.1259 46.5096L29.8328 46.8788L29.4326 46.9829L29.5484 47.4166L29.4492 48.0936L29.133 48.1722L28.6678 47.6602L27.5704 47.0634L27.3219 46.7813L26.926 46.8643L26.7317 46.7341L26.6325 46.3093L26.2767 45.995L26.0255 46.1433L25.7652 46.5318L25.5469 46.1713L30.6908 34.8047Z" fill="white" stroke="#424242" stroke-width="0.310184" stroke-linejoin="round"/>
<path d="M121.567 57.2957L122.61 56.7396L123.073 56.9045L122.929 57.2427L122.081 57.8228L121.604 57.6258L121.567 57.2957ZM107.024 35.2474L114.781 35.168L114.98 40.1833L115.19 40.9748L115.42 41.3687L115.614 41.4237L115.879 42.3194L116.176 42.6716L116.195 43.4987L116.678 43.8399L116.767 44.1932L116.984 44.4047L117.741 44.4227L117.95 44.6364L118.416 44.8037L119.03 45.2188L119.229 45.1426L119.626 45.4413L119.947 45.448L119.749 45.8946L120.214 46.5367L120.559 46.5262L121.265 47.1756L121.37 47.6915L121.732 48.0823L121.784 48.5161L121.693 49.0482L121.957 49.2141L122.06 49.4929L122.004 49.9713L122.401 50.1949L122.525 50.6814L122.47 51.0812L122.803 51.3691L123.244 51.4564L123.136 52.095L122.992 52.2022L123.387 53.043L122.845 53.0716L122.733 53.5353L123.419 53.7773L123.329 54.2325L123.047 54.3967L122.281 53.8966L122.319 54.359L122.082 54.7227L121.759 54.9868L121.618 54.5134L121.194 54.6331L120.934 54.3835L120.647 54.5339L120.754 54.9217L121.092 55.0639L121.301 55.5655L121.685 55.5535L121.681 55.9725L121.314 55.9697L121.105 56.3225L121.244 56.4837L120.918 57.0205L120.934 57.3154L120.533 57.3881L120.125 57.0598L119.779 57.1324L119.62 57.6272L120.025 57.8046L120.302 58.1088L121.068 58.0936L121.142 58.2642L120.479 58.7067L120.215 59.3732L119.815 59.5415L119.606 59.8667L119.347 59.4725L119.541 59.1589L119.43 58.7905L119.034 58.756L118.868 58.9066L118.841 59.3705L118.245 59.4157L117.681 59.5773L117.488 59.2274L117.633 58.9591L117.609 58.4043L117.398 58.1627L117.062 58.3344L116.913 58.1583L116.89 57.7118L116.436 57.7741L116.379 51.5803L113.942 51.611L109.873 51.6379L109.915 56.0557L113.247 57.9328L112.841 58.5399L112.588 58.5926L112.225 58.3372L111.814 58.2558L111.409 58.3811L111.017 58.7801L110.77 58.7202L110.438 59.0616L110.146 58.9909L110.092 58.729L108.889 58.212L108.464 57.6457L108.03 57.3234L107.38 56.9984L106.927 56.6098L107.262 55.8455L107.248 55.4597L107.472 55.1739L107.168 55.0295L106.93 54.722L106.903 54.3701L106.352 54.327L105.89 54.1604L105.271 54.3312L104.76 54.2299L104.45 53.6626L103.999 53.5531L103.725 52.7049L103.814 52.3926L103.732 52.0407L103.48 51.7488L103.392 51.1998L103.833 50.9203L103.805 50.5976L103.61 50.471L103.752 49.5402L103.27 48.7278L103.722 48.1904L103.582 47.6877L103.353 47.4352L103.623 47.1917L103.668 46.8339L104.166 46.4686L104.255 45.6042L104.605 44.1592L106.343 37.6699L107.024 35.2474Z" fill="#ED232A" stroke="#424242" stroke-width="0.310184" stroke-linejoin="round"/>
<path d="M94.9609 86.3746L94.7542 85.6773L94.8734 84.5476L95.2533 83.9811L95.8307 83.4629L96.5385 83.0273L96.8186 83.5852L97.8591 87.0345L98.0037 87.0632L98.2797 86.5953L98.6237 86.4232L98.898 85.8156L99.2629 85.556L99.9739 85.3081L100.649 85.2419L100.896 85.1074L101.574 85.2161L101.829 85.4188L102.274 85.4042L103.104 85.5557L104.034 85.2008L104.59 85.2192L106.991 86.3345L108.398 87.0147L108.793 87.1296L108.838 87.9581L108.973 88.2065L108.991 89.0371L109.089 89.2122L109.065 89.8694L109.692 90.2135L110.496 90.5231L110.908 90.8503L111.429 90.9297L111.884 91.3627L111.491 92.6361L111.112 92.8545L110.567 92.7465L110.17 92.2132L109.595 92.0994L108.084 92.0568L107.856 92.2318L106.227 95.721L106.139 96.0446L105.698 96.5386L105.521 96.8701L105.218 97.1052L105.149 97.4528L104.398 97.8542L104.289 98.1571L104.396 98.4405L105.168 98.9931L105.255 99.4815L104.956 99.336L104.679 100.031L104.482 100.273L104.462 100.597L104.87 100.925L105.13 101.343L105.081 101.871L105.312 102.08L105.332 102.482L105.544 102.603L105.754 103.306L105.314 104.148L104.682 103.548L103.78 103.113L103.102 102.651L102.461 102.547L102.556 101.576L102.259 101.026L101.678 100.601L101.443 100.538L100.908 100.148L100.504 100.116L100.582 99.4711L100.308 99.1383L100.281 98.5828L100.131 97.6272L99.7691 96.9725L99.6561 96.3763L99.2597 95.6836L99.1203 95.2672L98.2403 95.313L96.9794 96.2551L96.5853 96.7271L96.4183 97.0608L95.8559 97.1236L95.2495 96.9173L95.0881 97.3804L94.7634 97.8075L94.0499 98.2162L93.211 98.9155L92.202 99.3263L91.8655 99.1735L90.637 98.2573L90.3816 97.3249L90.1065 96.7974L90.1746 96.4533L90.4147 96.0003L90.0784 95.3837L90.1858 95.119L89.8847 94.4176L90.0548 93.9563L89.7617 93.5847L90.0209 92.7945L90.1491 92.147L91.0841 90.2859L91.6838 90.1278L92.207 89.2633L92.7442 88.7078L93.0522 88.0042L93.5401 87.6975L94.3007 87.7546L95.0071 87.3444L95.1692 87.0905L95.4917 86.916L95.6929 86.4461L94.9609 86.3746Z" fill="#ED232A" stroke="#424242" stroke-width="0.310184" stroke-linejoin="round"/>
<path d="M82.7148 35.3621L83.0598 35.3608L91.7002 35.3555L91.758 35.6841L91.3914 35.8315L91.6464 36.1552L91.6766 36.4655L91.3841 36.591L90.7769 36.5368L91.0268 36.9969L91.0822 37.3563L90.7725 37.7166L90.0939 37.949L89.9541 38.4237L89.6162 38.7968L89.7683 39.0469L89.4948 39.3173L89.5676 39.5517L89.058 39.5883L88.8103 39.2184L88.3447 39.172L88.4135 39.5652L88.6912 40.0144L88.7622 40.4337L89.261 40.6461L89.7712 40.7178L90.0534 41.2559L90.1768 40.8916L90.5141 40.9199L90.5997 41.2284L91.26 41.7735L91.5284 41.7881L91.7747 42.1926L91.9366 41.9863L92.3281 41.9996L92.7987 42.5585L92.7937 42.7409L93.2222 42.8826L93.4186 43.3633L93.4518 44.1216L94.0349 44.1766L94.1202 44.672L94.5305 44.7385L94.8454 45.2409L95.467 45.8059L95.6569 46.0873L95.2708 46.7039L95.1916 47.3171L95.3261 47.5638L95.0595 47.984L94.7152 48.8802L94.2226 49.5161L94.1812 50.1698L93.9666 50.8277L93.8317 51.6664L93.6244 51.9077L93.492 52.5763L93.4674 52.599L91.4912 53.7735L90.1352 54.6215L85.305 57.5704L83.2121 58.8061L83.0606 58.8678L83.0158 58.4922L82.624 58.1928L82.0638 57.5776L81.288 57.3379L80.0406 56.6655L79.946 56.4487L79.4106 55.7725L79.374 55.0319L79.2043 54.8333L78.4322 55.0287L77.7975 54.9471L77.4385 54.9915L76.1902 54.6105L75.6464 54.3194L75.2539 53.9869L75.3886 53.0381L75.6317 52.7361L75.8574 52.1519L76.1854 51.5696L76.5889 50.2817L76.5723 49.7082L76.6864 49.2339L76.7169 48.5799L76.9943 48.105L77.0841 47.7066L77.4676 47.1774L77.2569 46.5472L77.5315 46.0863L77.2263 45.6922L77.2415 45.3285L77.5697 44.3374L77.83 43.9489L78.1305 43.7554L78.2642 42.6818L78.5172 42.3304L78.8346 41.042L78.9141 40.5297L79.1107 40.046L79.8075 39.7953L79.8881 39.5179L80.1648 39.4077L80.5339 39.4973L80.9 39.0747L81.1887 38.4407L81.6795 37.8137L81.8798 37.3949L81.5128 36.7942L81.9627 36.4946L82.1164 36.0703L82.5547 35.6438L82.7148 35.3621Z" fill="#ED232A" stroke="#424242" stroke-width="0.310184" stroke-linejoin="round"/>
<path d="M83.0627 58.8562L83.2143 58.7945L85.3072 57.5588L90.1357 54.6096L91.4917 53.7615L93.4627 52.5859L92.9241 52.9633L92.8171 53.3089L93.4106 54.4879L93.6192 54.7493L94.02 55.0028L94.5024 55.465L94.5043 55.8724L94.8432 56.5776L95.8109 56.6904L96.585 56.9665L97.0176 57.2355L97.3029 57.5541L97.3274 57.8377L97.9284 58.0062L98.2504 58.3798L98.3836 58.8187L98.9143 59.3144L99.207 59.4566L99.1107 59.9986L99.3715 60.0888L99.2477 60.64L99.5548 60.7741L99.5026 61.1396L99.6441 61.351L100.01 61.3574L100.518 61.5681L100.44 62.1449L101.153 62.3594L101.243 62.6375L101.048 62.8704L101.407 63.0788L102.104 62.6669L102.589 63.2028L103.049 63.2683L103.565 63.0038L103.359 63.3389L102.892 63.6224L103.018 63.7773L102.89 64.1702L101.583 66.579L99.906 69.5471L100.134 69.7922L100.06 70.2781L99.7997 70.353L99.5053 70.8117L98.1129 69.436L95.2864 72.2846L95.003 72.0213L94.6401 71.3078L94.3193 70.8904L93.6446 70.7146L93.0064 70.6781L92.4835 70.7726L92.0582 70.6059L91.6264 70.5644L91.3696 70.2312L91.1395 70.3286L90.7862 70.0387L90.6187 69.5141L90.3763 69.0994L90.5134 68.6847L90.7775 68.2768L90.726 68.0466L90.3918 67.8081L89.6962 67.6172L89.0323 67.0347L88.2477 66.7657L87.7657 66.5052L87.3339 66.2602L86.0819 66.3423L85.2068 66.169L84.3445 66.0698L83.8288 65.8962L83.2724 65.808L82.9225 65.6306L82.4192 64.506L82.1044 64.077L81.0436 63.6469L80.7112 63.2144L80.6133 62.348L81.0061 61.1882L81.4086 60.6646L82.1039 60.4961L82.4963 60.0604L82.5502 59.4275L83.0627 58.8562Z" fill="#ED232A" stroke="#424242" stroke-width="0.310184" stroke-linejoin="round"/>
<path d="M140.949 97.9414L141.286 97.6709L141.833 97.6893L141.749 97.306L141.423 96.9701L141.613 95.9553L142.218 95.8716L142.486 95.5579L142.54 95.2862L141.918 94.723L142.042 94.2709L142.634 93.994L142.663 93.7082L142.364 93.1631L142.661 92.782L143.401 92.6003L143.855 92.1603L144.474 91.9161L144.79 91.4947L144.875 90.8624L145.182 90.4336L145.642 90.4148L145.919 90.2477L146.368 89.7866L146.57 89.328L146.734 89.3164L147.098 94.0254L148.216 94.0635L151.948 94.1406L154.118 94.165L157.985 94.1808L159.884 94.1461L160.092 94.5962L160.306 95.4416L160.564 95.7127L160.8 96.3754L160.728 96.8471L160.362 97.4365L160.67 97.9576L160.865 98.0274L160.96 98.4717L161.217 98.7057L160.991 99.0279L160.658 99.7869L160.385 99.7916L159.836 100.398L159.474 100.693L159.194 101.774L155.859 102.031L154.289 102.173L150.183 102.52L149.703 102.359L149.435 102.049L149.033 102.041L148.791 101.81L148.351 101.607L147.969 101.86L147.63 101.912L147.145 102.788L147.041 103.227L146.264 103.136L145.749 102.396L145.53 102.574L145.064 102.482L144.693 102.273L144.453 102.374L144.424 102.722L144.072 103.158L143.526 103.25L143.347 103.717L143 103.701L142.599 103.45L142.152 103.667L141.738 103.679L141.529 104.12L140.748 104.222L140.856 103.955L140.611 103.815L140.372 104.305L140.189 104.452L140.261 105.016L139.935 105.062L139.47 104.179L139.415 103.787L139.125 103.447L139.459 103.002L139.677 102.365L139.423 102.074L139.725 101.658L140.326 100.328L140.482 100.409L140.77 99.6973L141.26 99.3525L141.502 98.6194L140.949 97.9414Z" fill="white" stroke="#424242" stroke-width="0.310184" stroke-linejoin="round"/>
<path d="M135.655 51.2112L135.956 51.544L136.252 51.4852L136.618 51.1911L137.147 51.2959L137.489 51.5139L137.767 51.3324L138.095 51.5276L138.622 51.6465L139.053 51.5761L139.448 51.8064L139.552 51.6436L140.068 51.4709L140.507 51.6164L141.368 51.1488L141.811 50.7617L142.269 51.0137L143.039 50.8306L143.675 50.9567L143.994 54.738L144.182 57.1221L143.754 57.0595L143.158 57.1816L142.717 57.3694L141.878 57.1537L140.999 56.6129L140.268 56.4535L139.933 56.8016L139.518 57.044L138.305 57.3539L138.04 57.3343L137.548 57.5853L137.267 57.4049L136.997 57.4982L136.48 57.2325L135.964 57.2533L135.858 57.5734L135.051 57.5749L134.697 58.1501L134.417 58.2121L133.412 58.972L132.985 59.8243L133.145 60.1841L133.789 60.3593L134.02 60.6251L133.936 61.0485L133.176 61.5636L132.836 61.6521L132.548 61.8829L132.88 62.3648L132.79 62.5671L132.155 62.8667L131.299 63.8504L130.693 63.9909L129.867 64.4598L128.908 64.3981L128.211 64.9148L128.173 65.3216L127.921 65.6677L128.014 66.1903L127.906 67.0106L128.105 67.3947L128.025 67.6703L128.322 68.3068L128.029 68.5292L127.236 68.0806L126.837 67.5964L126.894 67.0852L127.269 66.802L127.372 66.4557L127.231 66.0701L127.195 65.0473L127.035 64.2455L126.626 63.3835L126.706 62.8218L126.265 62.586L125.963 62.1926L125.578 62.0924L125.527 61.8386L125.616 61.1943L125.877 60.4813L126.419 59.5932L126.754 58.5594L127.091 57.9806L127.42 56.8266L127.818 56.2435L128.07 56.2934L128.211 55.7567L128.567 55.6897L128.814 55.2324L129.19 55.3601L129.342 55.0529L128.952 54.805L128.946 54.3327L128.694 54.2242L128.716 53.9113L129.069 53.7099L129.251 53.3039L129.633 53.1212L130.142 53.1833L130.228 53.4699L130.566 53.2545L130.433 52.7147L130.593 52.3211L131.16 51.9274L131.362 51.3916L132.247 51.4679L133.088 51.3795L134.146 51.5891L134.507 51.8438L134.918 51.6154L135.245 51.57L135.655 51.2112Z" fill="white" stroke="#424242" stroke-width="0.310184" stroke-linejoin="round"/>
<path d="M150.179 102.528L154.286 102.204L155.856 102.06L159.19 101.798L159.47 100.719L159.833 100.424L160.379 99.8224L160.652 99.8158L160.985 99.0586L161.21 98.7364L160.954 98.5024L160.859 98.0563L160.663 97.9883L160.356 97.4654L160.722 96.8778L160.793 96.4061L160.558 95.7416L160.3 95.4705L160.086 94.6268L159.878 94.1768L165.515 94.105L170.462 93.9844L170.305 95.7024L170.09 96.9011L169.726 98.5176L169.29 99.9879L168.987 100.036L168.673 100.605L168.048 102.584L167.758 103.66L167.153 105.401L166.784 106.631L166.115 109.365L165.609 110.806L164.832 112.435L163.916 114.087L158.219 114.867L150.008 115.929L150.165 115.319L149.828 115.311L149.739 114.835L149.451 114.594L148.849 114.292L148.602 113.735L148.793 113.249L149.039 113.248L149.17 113.512L149.487 113.256L150.011 113.07L150.238 112.589L150.183 112.211L150.488 112.088L150.838 112.377L151.492 112.417L151.87 111.997L151.834 111.623L152.178 111.471L152.512 111.636L152.784 111.54L152.762 111.011L152.849 110.574L152.54 110.17L152.507 109.917L151.617 109.017L151.763 108.521L152.506 107.95L152.672 107.616L152.705 107.181L152.571 106.866L152.26 106.583L152.173 106.3L151.59 105.671L151.552 105.26L151.171 105.091L150.989 104.688L150.467 103.907L150.499 103.411L150.272 103.039L150.179 102.528Z" fill="white" stroke="#424242" stroke-width="0.310184" stroke-linejoin="round"/>
<path d="M11.1461 34.5195L14.1478 34.5639L20.7098 34.6567L26.5126 34.7313L30.688 34.8027L25.5438 46.171L25.4987 46.3986L24.971 46.5361L24.3634 46.2618L24.2459 46.5869L24.5309 46.944L24.2992 47.1878L24.2702 47.4736L23.8511 47.8306L23.7563 48.0777L23.3119 48.4701L23.324 49.039L22.8256 49.065L22.7649 49.6031L22.5504 49.5753L22.5598 49.1664L22.35 48.9855L21.9346 49.7962L22.0938 50.2237L21.9697 50.443L21.5487 50.3468L21.263 50.5121L20.8284 50.3454L20.609 50.852L20.2763 51.1803L20.1923 51.5212L19.5685 51.4582L19.5224 51.6911L19.1884 51.6928L18.9182 51.8538L18.675 51.7763L18.7433 52.6442L18.5282 52.8693L18.2518 52.7651L18.0938 53.1372L17.7183 53.3764L17.6468 54.0058L17.403 54.4873L16.9652 54.4666L16.5224 54.2396L16.2597 54.4461L15.8801 54.4369L15.4574 54.7199L15.4785 55.0211L15.2123 55.1059L15.1054 55.4515L14.8316 55.5934L14.2019 55.7273L14.0849 55.9571L13.6842 56.184L13.4791 56.5999L12.975 57.173L12.675 57.2437L12.519 57.7445L11.9542 58.2543L11.1851 58.4998L10.8651 58.8563L10.2617 58.7369L10.358 55.9636L10.3147 55.2565L10.4369 52.2317L10.4969 52.2436L10.738 43.9143L10.8761 43.4209L11.0231 38.2246L11.0684 38.1346L11.1461 34.5195Z" fill="white" stroke="#424242" stroke-width="0.310184" stroke-linejoin="round"/>
<path d="M126.758 35.0287L130.253 34.9726L134.613 34.8973L135.13 34.9061L142.229 34.7698L142.618 34.7461L142.669 37.7558L142.728 38.7299L143.039 42.8343L143.684 50.9504L143.047 50.8243L142.277 51.0057L141.819 50.7554L141.376 51.1425L140.515 51.6101L140.076 51.4628L139.56 51.6373L139.456 51.8001L139.062 51.5699L138.63 51.6402L138.103 51.5213L137.775 51.3261L137.497 51.5058L137.155 51.2896L136.626 51.1848L136.265 51.4909L135.967 51.5493L135.666 51.2166L135.831 50.9852L135.513 50.7389L135.019 50.6905L134.236 50.7188L133.857 50.4807L134.145 49.8777L134.732 49.618L135.074 49.3282L135.405 48.5815L135.936 48.3548L136.308 47.3283L136.487 47.0447L136.066 46.69L135.806 46.7229L135.769 47.1301L135.399 47.3428L135.184 47.6614L134.925 47.3204L135.284 46.9148L135.468 46.4305L135.43 45.7978L135.666 45.4503L135.719 44.8191L135.89 44.5412L135.911 43.9532L136.556 43.6133L136.304 43.3581L136.395 43.1562L136.253 42.5963L136.749 42.1446L136.743 41.8501L137.02 41.5621L137 40.9346L136.687 40.9698L136.435 41.2574L136.425 41.6221L136.147 42.0106L135.204 42.484L134.975 43.1575L134.775 43.4845L134.572 43.1399L133.883 42.853L133.573 42.8706L133.516 43.1599L132.918 43.1607L132.481 43.2942L132.02 42.4697L130.31 40.0502L129.885 39.7625L129.355 38.3466L128.456 37.4351L127.511 36.6521L126.905 35.5915L126.758 35.0287Z" fill="#ED232A" stroke="#424242" stroke-width="0.310184" stroke-linejoin="round"/>
<path d="M143.333 103.716L143.511 103.249L144.057 103.157L144.421 102.727L144.45 102.377L144.69 102.278L145.061 102.485L145.527 102.577L145.746 102.401L146.261 103.139L147.039 103.231L147.142 102.791L147.628 101.915L147.966 101.863L148.342 101.605L148.781 101.81L149.024 102.041L149.426 102.047L149.694 102.359L150.174 102.52L150.255 103.037L150.48 103.408L150.448 103.904L150.97 104.685L151.154 105.089L151.535 105.256L151.573 105.668L152.156 106.297L152.243 106.58L152.554 106.862L152.687 107.178L152.655 107.612L152.489 107.946L151.755 108.515L151.607 109.012L152.505 109.914L152.537 110.166L152.846 110.57L152.762 110.995L152.784 111.524L152.512 111.621L152.178 111.454L151.834 111.607L151.87 111.981L151.492 112.401L150.838 112.362L150.488 112.072L150.183 112.195L150.238 112.573L150.011 113.052L149.487 113.24L149.176 113.505L149.036 113.217L148.79 113.219L148.599 113.706L148.829 114.272L149.431 114.575L149.733 114.818L149.837 115.297L150.174 115.305L150.017 115.916L149.729 116.267L149.617 116.612L149.398 116.79L149.174 117.226L148.821 117.576L148.121 117.19L147.633 117.248L146.719 116.733L146.794 116.247L146.387 116.475L146.445 117.053L145.946 117.444L145.812 117.197L145.912 116.802L145.829 116.463L145.292 116.858L145.436 117.179L144.629 117.02L144.208 117.019L143.497 117.83L142.752 117.601L142.678 117.975L142.956 118.274L142.886 118.627L142.561 118.649L142.448 119.019L141.637 119.408L141.45 119.615L140.823 119.735L140.56 119.949L140.278 119.709L140.102 119.266L140.253 119.156L140.247 118.625L140.348 117.991L140.79 118.148L141.233 118.078L141.395 117.89L141.247 117.435L141.361 117.042L141.14 116.855L140.754 117.219L140.327 116.886L140.478 115.987L140.905 115.179L141.124 114.591L140.864 114.459L140.988 114.148L141.466 113.96L141.72 114.055L141.983 114.484L142.466 113.971L142.593 113.608L142.869 113.686L143.355 113.269L143.676 113.234L143.945 112.845L144.271 112.679L144.498 112.111L143.896 111.809L143.913 112.362L143.436 112.344L143.519 112.85L143.153 112.844L142.819 112.633L142.33 112.606L141.918 112.39L141.488 112.558L141.4 112.955L140.96 113.004L140.934 112.533L140.771 112.024L141.195 112.013L141.125 111.654L141.465 110.863L141.939 110.457L142.129 110.423L142.095 109.838L142.475 109.494L142.809 109.584L143.144 109.494L143.294 109.707L143.61 109.363L143.927 109.27L143.895 108.878L143.181 109.14L142.661 108.803L142.135 108.682L141.959 108.959L141.31 109.17L140.878 109.112L140.647 109.225L140.54 108.838L140.052 108.84L139.672 109.12L139.208 109.01L138.897 108.728L138.649 108.815L138.756 109.135L139.054 109.39L139.098 109.648L138.504 109.993L138.597 110.319L138.34 110.569L138.118 110.224L138.205 109.981L137.821 109.7L137.661 109.393L137.818 108.947L138.086 107.803L137.933 107.465L138.26 107.035L138.915 106.877L139.437 106.555L140.225 106.216L140.615 106.476L141.107 106.352L141.936 105.799L142.073 105.523L142.384 105.618L142.741 105.139L142.486 105.002L141.77 104.913L141.552 105.145L141.21 105.019L141.339 104.7L142.056 104.162L142.55 103.893L143.284 103.889L143.333 103.716ZM136.541 118.051L134.621 118.074L134.585 116.894L134.471 116.36L134.524 115.708L134.633 115.482L134.55 114.978L134.773 114.39L134.988 114.412L135.496 114.071L136.015 114.146L136.19 114.696L136.709 114.953L137.032 115.627L136.564 116.572L136.58 117.003L136.414 117.395L136.678 117.611L136.541 118.051ZM134.246 111.466L134.612 111.692L134.996 111.607L135.02 111.131L134.756 111.112L134.681 110.38L135.28 110.132L135.358 109.806L135.736 109.792L135.722 110.187L135.442 110.399L135.401 110.884L135.659 111.008L135.937 111.566L136.013 112.171L135.686 112.26L135.368 111.941L134.689 112.026L134.246 111.466Z" fill="white" stroke="#424242" stroke-width="0.310184" stroke-linejoin="round"/>
<path d="M93.4681 52.5855L93.4927 52.5629L94.0893 52.8093L94.3162 52.6911L94.6533 52.2665L95.0304 52.0569L95.6584 51.9594L95.8669 51.832L96.7208 51.9736L96.8403 52.1384L97.3475 52.2719L97.867 52.2592L98.6981 52.6915L99.1782 52.4987L99.5925 52.4432L99.883 52.1891L100.42 52.1834L100.589 52.0611L100.857 52.3343L101.877 52.3419L102.04 52.5208L102.49 52.6741L102.889 52.5093L103.431 52.5506L103.728 52.69L104 53.536L104.453 53.6459L104.761 54.2147L105.272 54.316L105.873 54.1451L106.333 54.3115L106.885 54.3548L106.913 54.7068L107.147 55.0136L107.449 55.1559L107.227 55.4438L107.239 55.8293L106.904 56.5936L107.356 56.98L108.008 57.3054L108.442 57.6241L108.867 58.1905L110.07 58.7074L110.123 58.969L110.417 59.04L110.201 59.2027L109.541 60.5094L109.271 60.4743L108.959 60.6985L108.665 60.6807L108.047 61.3101L107.413 62.2845L107.287 62.9197L107.099 63.2308L106.715 63.3895L106.324 63.3652L105.941 63.5607L105.729 64.0817L105.321 64.2941L104.729 63.9386L104.28 63.8718L103.571 62.998L103.055 63.2625L102.595 63.1971L102.109 62.6608L101.413 63.0731L101.055 62.8646L101.249 62.6318L101.158 62.3533L100.447 62.1374L100.524 61.5623L100.016 61.3516L99.6505 61.3452L99.509 61.1338L99.5612 60.7683L99.2544 60.6324L99.3761 60.0826L99.117 59.9928L99.2134 59.4508L98.9189 59.3082L98.3899 58.8129L98.2551 58.3737L97.944 58.0187L97.3426 57.852L97.3184 57.5666L97.0332 57.248L96.6023 56.9701L95.8282 56.694L94.8605 56.5813L94.5212 55.8779L94.5198 55.4687L94.0374 55.0065L93.6383 54.7442L93.4297 54.4828L92.8359 53.3055L92.9429 52.96L93.4681 52.5855Z" fill="#ED232A" stroke="#424242" stroke-width="0.310184" stroke-linejoin="round"/>
<path d="M132.954 108.249L132.998 107.904L133.232 107.647L133.099 106.995L133.788 107.063L134.035 106.929L134.375 106.322L134.832 106.854L134.61 107.052L135.215 107.329L135.358 107.725L135.124 107.981L134.757 108.042L135.133 108.648L135.014 108.929L134.326 108.976L134.213 108.844L133.98 107.982L133.855 107.882L133.391 108.486L133.098 108.566L132.954 108.249ZM134.868 88.9713L135.051 88.8976L135.597 88.3036L136.192 88.0234L136.53 87.3149L136.565 86.9751L136.46 86.4649L136.608 86.2209L137.37 85.3725L137.44 84.6532L137.808 84.1467L138.221 83.8249L138.36 84.0486L139.254 83.4924L139.526 82.9356L139.821 83.115L140.493 83.162L140.926 82.8296L141.651 82.6836L142.448 82.9385L143.015 82.9938L143.106 83.9598L143.991 83.9408L144.157 83.495L144.381 83.4716L144.887 84.175L145.302 84.4406L146.156 85.343L146.425 85.838L146.698 89.3464L146.534 89.358L146.332 89.8165L145.874 90.276L145.597 90.4412L145.137 90.4619L144.832 90.891L144.745 91.5229L144.429 91.9443L143.812 92.1889L143.358 92.6289L142.64 92.7929L142.343 93.1741L142.642 93.7192L142.613 94.0032L142.021 94.2819L141.897 94.7322L142.518 95.2971L142.464 95.5688L142.199 95.8829L141.592 95.9663L141.402 96.9811L141.73 97.3173L141.811 97.7002L141.265 97.6836L140.942 97.9259L140.697 98.0389L141.002 98.7317L140.668 99.0597L139.91 99.3497L139.238 99.6787L139.154 99.8619L139.2 100.436L138.707 100.705L138.23 102.002L138.312 102.458L138.268 103.095L137.74 103.43L137.966 104.137L138.263 104.222L137.955 104.668L137.185 104.851L137.404 104.506L137.474 104.02L136.712 103.416L136.747 103.238L136.399 102.569L135.973 101.991L135.8 101.561L135.749 101.184L136.74 101.032L137.316 100.679L137.449 100.278L137.423 99.6952L136.97 98.6428L136.269 98.4784L136.092 98.26L135.639 98.7681L135.408 100.213L135.128 100.341L134.807 100.684L134.379 100.922L134.221 101.589L134.556 101.878L135.081 102.642L134.873 102.942L134.878 103.232L134.606 104.115L134.166 104.237L134.485 104.522L134.797 105.042L134.419 105.211L133.988 105.157L133.505 104.484L133.233 103.895L133.08 104.028L132.628 103.978L132.66 103.556L132.935 103.575L133.25 103.333L132.969 103.094L132.944 102.778L132.637 102.812L132.371 102.175L131.912 101.787L131.385 101.928L131.28 102.322L131.473 102.606L130.695 102.831L130.643 102.559L131.02 102.171L131.268 101.742L131.209 101.364L130.793 101.353L130.092 101.098L129.707 100.699L129.35 100.755L129.04 101.088L128.887 100.739L129.233 100.686L129.176 100.308L129.585 100.244L129.974 100.824L130.274 100.806L130.168 100.419L129.792 100.197L129.782 99.6894L129.431 99.2439L129.406 99.0556L128.868 98.8648L128.594 98.5263L128.144 98.8242L128.091 98.4835L128.257 98.1884L128.179 97.6594L127.878 97.4166L127.569 97.6892L127.764 98.0669L127.562 98.3551L127.528 98.8049L127.708 99.352L128.029 99.8794L128.344 100.076L128.391 100.492L128.099 100.596L127.988 101.235L128.153 101.51L128.581 101.857L128.767 102.261L129.272 102.109L129.617 102.302L129.511 103.238L129.707 103.664L130.08 104.009L130.174 104.248L130.79 104.205L131.51 104.511L131.396 104.904L131.001 105.046L130.66 104.834L130.298 104.427L129.846 104.306L129.569 103.796L129.325 103.565L129.167 102.947L128.829 102.513L128.575 101.942L127.927 101.515L127.737 101.197L127.708 100.5L127.575 100.182L127.598 99.7466L127.404 99.62L126.987 98.8628L125.944 98.0182L125.783 97.7021L125.87 97.041L125.733 96.4529L125.351 95.994L124.878 94.947L124.61 94.5418L124.299 94.3061L123.912 93.6483L123.855 93.362L124.216 92.8357L124.253 92.5662L124.672 92.6804L125.073 92.4443L126.019 92.7342L126.32 92.6105L126.794 91.5878L126.959 91.3638L127.5 91.2178L127.707 91.2792L127.94 90.9732L127.841 90.6034L127.399 90.538L127.062 90.7442L126.663 90.5334L126.219 90.4894L125.966 90.8426L125.786 90.8235L125.918 90.019L125.385 89.2405L125.051 89.2296L125.03 88.9668L125.388 88.8543L125.711 88.9733L125.901 88.6791L126.237 88.434L126.02 88.1526L125.975 87.6853L125.772 87.2399L126.032 87.0457L126.825 87.0523L126.654 86.7271L127.234 86.4752L127.369 86.6156L127.249 86.9806L128.08 87.3155L128.533 87.2476L128.933 86.8225L129.483 86.4419L129.773 86.4241L129.932 87.0333L129.786 87.6332L130.056 87.9635L130.37 87.9266L130.772 87.4398L131.079 87.926L131.766 88.5038L132.639 88.0147L132.771 88.3453L133.087 88.3785L133.09 88.6413L133.688 89.086L134.36 89.4409L134.957 89.207L134.868 88.9713Z" fill="white" stroke="#424242" stroke-width="0.310184" stroke-linejoin="round"/>
<path d="M125.633 56.0604L125.834 55.3062L126.137 55.4323L125.633 56.0604ZM126.535 35.043L126.755 35.0391L126.905 35.6077L127.511 36.67L128.456 37.4513L129.353 38.3769L129.883 39.791L130.308 40.0805L132.02 42.4913L132.48 43.3158L131.772 43.6413L131.702 43.9942L131.471 44.3646L131.251 45.104L130.841 45.9066L130.87 46.2589L131.237 46.0254L131.737 46.4911L132.272 46.4008L132.689 46.5291L133.132 47.706L132.386 48.3374L132.096 47.9465L131.71 48.0442L131.555 48.5157L131.134 48.7881L130.955 49.0901L130.06 49.8498L129.615 49.8094L129.077 50.6196L128.871 51.1692L128.63 51.0151L128.273 51.6373L127.394 52.1875L127.206 52.4951L126.961 52.3989L126.738 51.9588L126.37 51.9683L126.268 51.5593L126.355 50.6251L126.645 49.9491L126.606 49.7855L127.049 49.2775L127.241 48.9229L126.79 48.3443L126.808 47.9958L126.992 47.4822L126.617 47.2593L126.26 47.812L126.194 48.1436L126.42 48.4945L126.17 49.5874L125.664 50.0078L125.811 50.5119L125.456 51.0558L125.383 51.4979L125.059 51.617L125.831 52.0705L125.844 52.5023L126.088 52.6404L126.144 53.0696L125.414 53.8068L125.303 54.3643L125.292 54.8662L124.763 54.7614L124.984 54.3928L125.007 54.0471L124.676 53.4865L124.668 52.968L124.775 52.505L124.279 52.3152L124.28 52.0587L124.499 51.5373L124.517 51.2255L124.191 50.7027L123.325 50.6211L122.544 50.4663L122.528 50.6649L122.403 50.1781L122.007 49.9548L122.061 49.4761L121.938 49.204L121.672 49.0359L121.763 48.5038L121.72 48.0718L121.355 47.6898L121.238 47.1807L120.535 46.5299L120.188 46.5401L119.731 45.8831L119.931 45.4369L119.608 45.4315L119.211 45.1311L119.012 45.2073L118.411 44.7929L117.945 44.6256L117.736 44.4119L116.979 44.3939L116.767 44.1834L116.676 43.8298L116.204 43.4906L116.185 42.6635L115.888 42.3114L115.623 41.4156L115.431 41.361L115.19 40.9741L114.98 40.1827L114.781 35.1673L120.155 35.1129L126.535 35.043Z" fill="#ED232A" stroke="#424242" stroke-width="0.310184" stroke-linejoin="round"/>
<path d="M129.872 64.457L130.698 63.988L131.31 63.8581L132.167 62.8745L132.802 62.5749L132.892 62.3726L132.56 61.8907L132.847 61.6598L133.188 61.5713L133.949 61.0602L134.033 60.6332L133.802 60.3656L133.16 60.1925L133 59.8327L133.428 58.9804L134.424 58.2004L134.701 58.1399L135.058 57.5632L135.864 57.5634L135.968 57.2412L136.484 57.2204L137.003 57.4865L137.273 57.3949L137.555 57.5736L138.046 57.3226L138.31 57.3418L139.525 57.0322L139.939 56.7898L140.272 56.4414L141.003 56.6026L141.884 57.1438L142.724 57.3577L143.164 57.1699L143.759 57.0474L144.188 57.1104L144.422 60.3195L144.571 61.935L144.207 62.1727L143.02 62.4565L142.35 63.0574L141.446 63.6447L141.158 64.4879L140.985 64.7196L140.97 65.3913L140.469 65.9668L140.23 66.0625L140 66.5286L139.78 67.4531L139.511 67.6914L139.508 67.9108L138.483 68.784L138.4 69.0519L138.138 69.2383L137.904 70.0517L137.692 70.3252L137.841 70.7379L137.708 71.1516L137.394 71.3296L137.509 72.0144L137.339 72.142L137.471 72.6522L133.259 71.7008L132.82 71.6964L132.123 71.5108L131.89 71.7617L131.635 72.3456L131.481 72.9568L131.565 73.3877L131.958 74.0596L131.934 74.4215L131.248 74.4415L130.907 74.5684L130.275 74.4212L129.775 74.5826L129.561 75.2387L129.275 75.2665L129.12 75.575L128.719 75.38L128.419 76.078L128.245 75.728L128.376 75.3874L128.455 74.4331L128.567 73.8703L128.318 73.8394L128.255 73.2311L128.241 72.1923L127.952 72.0673L128.106 71.5753L127.654 71.4143L127.426 71.6973L127.161 71.6558L127.095 71.1092L126.834 70.5735L126.478 70.613L126.575 71.7726L126.229 72.1295L126.399 72.3831L126.185 72.7204L125.78 71.6923L124.964 72.3263L124.843 72.8031L125.05 73.196L124.846 73.5498L124.721 72.6432L124.221 72.6029L124.176 73.1532L123.955 73.1625L123.836 72.8347L123.59 72.839L123.366 73.1358L123.519 73.4081L123.437 74.0538L123.62 74.6125L123.724 75.3664L123.383 75.7737L123.03 75.7039L122.561 76.0512L122.399 76.7047L122.148 76.5525L122.155 75.8057L122.511 74.932L122.536 74.4491L122.47 73.3618L122.596 71.8684L122.87 71.0171L123.329 70.1912L123.503 70.1486L123.607 69.6193L123.912 69.1993L124.021 68.834L123.939 68.5739L124.05 67.912L124.348 67.3311L124.703 67.1227L124.596 67.7451L124.87 68.0779L125.006 68.7979L125.612 69.7999L126.242 69.732L126.815 69.8674L127.015 70.206L127.467 70.1487L127.732 70.3369L128.326 70.2088L128.718 69.8959L129.415 69.152L129.69 68.9406L129.696 68.4468L129.439 67.8L129.146 67.4284L129.18 66.8393L128.922 66.7442L129.236 66.1465L129.822 65.8205L130.116 65.16L130.376 64.7715L130.3 64.5363L129.872 64.457Z" fill="white" stroke="#424242" stroke-width="0.310184" stroke-linejoin="round"/>
<path d="M110.972 80.9509L111.01 80.5917L111.445 80.6209L111.908 80.2084L112.53 79.9648L112.841 80.0852L113.253 80.0513L113.273 81.962L113.531 82.2331L116.434 82.1753L116.701 82.5857L116.553 83.2001L116.574 84.2053L116.87 85.7306L117.198 86.5106L117.36 87.1476L117.187 88.3511L117.164 89.155L117.248 89.9693L117.168 90.7529L117.239 91.2307L117.599 92.3746L118.095 93.3895L118.412 93.797L119.447 94.8637L119.628 95.2771L120.165 95.6934L120.931 96.5656L121 96.8177L121.41 97.5259L121.689 97.7645L122.163 97.9004L121.837 98.4372L121.983 99.0842L121.343 100.039L120.834 100.899L120.149 100.795L119.668 100.881L118.918 100.806L118.281 100.68L118.497 99.9579L118.201 99.1236L117.819 98.5952L117.263 98.1716L116.626 97.4201L115.925 97.54L115.686 97.4357L115.546 97.0285L115.01 96.7848L114.32 96.221L113.926 96.1759L113.324 95.2759L112.24 94.2727L112.319 93.8704L111.817 92.9092L111.518 92.6667L111.911 91.3933L111.458 90.9625L111.566 90.1662L111.312 89.5109L111.257 88.8655L111.545 87.9821L111.545 87.1222L111.321 86.6633L110.797 86.2368L110.837 85.6692L111.14 85.0673L110.562 84.8574L110.561 84.6042L110.878 84.4837L110.994 84.1215L110.574 83.7012L110.696 83.2357L110.438 82.7445L110.736 82.0868L110.723 81.5634L111.075 81.4498L110.972 80.9509Z" fill="#ED232A" stroke="#424242" stroke-width="0.310184" stroke-linejoin="round"/>
<path d="M116.417 57.7754L116.03 57.3045L115.58 56.9752L115.207 57.0059L114.91 56.8316L114.366 56.8026L114.442 57.1587L115.127 57.7345L115.256 58.0111L115.178 58.5146L115.511 58.8702L116.308 59.3011L115.703 59.7975L114.51 59.3413L113.476 58.0805L113.228 57.9395L109.895 56.0641L109.852 51.6551L113.916 51.6294L116.335 51.582L116.417 57.7754Z" fill="#ED232A" stroke="#424242" stroke-width="0.310184" stroke-linejoin="round"/>
<path d="M111.502 92.6559L111.801 92.8983L112.312 93.8648L112.23 94.2777L113.315 95.2809L113.916 96.1809L114.31 96.226L115 96.7898L115.536 97.0336L115.676 97.4389L115.915 97.545L116.613 97.4008L117.251 98.1505L117.807 98.5759L118.188 99.1025L118.484 99.9439L118.268 100.666L118.905 100.792L118.73 101.166L119.383 102.225L120.033 102.354L120.498 102.226L120.732 101.737L121.233 101.746L121.715 101.544L122.472 101.971L122.426 102.204L121.796 102.976L121.629 103.507L121.617 103.872L122.148 105.82L123.011 107.019L123.322 107.669L124.033 108.532L124.571 109.519L124.084 110.127L123.832 110.559L124.163 111.358L124.258 112.634L124.56 113.703L123.988 113.527L123.434 113.549L123.125 113.255L122.736 112.214L122.279 111.742L122.041 111.645L121.977 111.231L121.501 111.043L120.924 111.092L120.579 110.474L120.586 110.164L120.313 109.691L120.393 108.803L120.225 108.512L119.819 108.589L119.109 108.87L119.421 109.526L119.4 109.901L119.117 110.472L119.281 111.068L118.999 111.232L118.69 110.654L117.91 109.582L117.314 109.494L116.905 109.814L116.786 109.224L116.514 108.928L116.252 107.864L116.033 107.315L115.302 106.549L114.654 106.054L113.124 105.531L112.587 105.56L111.632 105.131L111.126 105.082L111.131 104.81L110.699 104.843L110.488 105.168L109.945 105.195L109.857 104.825L109.496 104.594L109.037 105.457L108.765 105.722L107.805 105.431L107.905 105.093L107.83 104.75L107.357 104.359L106.988 104.428L106.827 104.251L106.684 103.533L106.929 103.167L106.752 102.766L106.077 101.943L106.163 101.657L105.957 101.446L105.721 100.482L106.005 99.8454L105.247 99.4754L105.161 98.9853L104.388 98.4344L104.281 98.151L104.392 97.8485L105.145 97.4566L105.217 97.0932L105.519 96.8559L105.696 96.5244L106.138 96.0142L106.224 95.6994L107.854 92.2102L108.081 92.0352L109.594 92.1056L110.166 92.2188L110.559 92.7715L111.124 92.8833L111.502 92.6559Z" fill="#ED232A" stroke="#424242" stroke-width="0.310184" stroke-linejoin="round"/>
<path d="M91.6976 35.3566L97.3363 35.3345L99.4603 35.3389L101.696 35.2884L103.346 35.2906L107.021 35.25L106.331 37.671L104.601 44.1638L104.251 45.6088L104.164 46.4735L103.672 46.8455L103.634 47.2047L103.366 47.4468L103.595 47.6993L103.737 48.1932L103.275 48.7306L103.749 49.5339L103.607 50.4646L103.802 50.5913L103.836 50.9153L103.394 51.1871L103.481 51.7361L103.732 52.0277L103.814 52.3796L103.724 52.6937L103.429 52.5545L102.887 52.5133L102.488 52.678L102.038 52.5248L101.874 52.3455L100.856 52.3383L100.587 52.0651L100.418 52.1874L99.882 52.1913L99.5893 52.4469L99.175 52.5024L98.6967 52.6955L97.8656 52.2632L97.3443 52.2755L96.8371 52.1421L96.7176 51.9773L95.8655 51.8361L95.6569 51.9634L95.0289 52.0609L94.6537 52.2708L94.3074 52.6955L94.0805 52.8137L93.4839 52.5672L93.6149 51.9056L93.8331 51.6555L93.968 50.8168L94.1826 50.1589L94.224 49.5052L94.7166 48.8694L95.061 47.9731L95.3275 47.5529L95.193 47.3062L95.2722 46.693L95.6584 46.0764L95.4575 45.8038L94.836 45.2389L94.5211 44.7365L94.1107 44.6699L94.0255 44.1745L93.4405 44.1192L93.4073 43.3609L93.211 42.8801L92.7825 42.7385L92.7893 42.5564L92.3169 41.9972L91.9254 41.9839L91.7635 42.1902L91.5173 41.7857L91.2488 41.7711L90.5927 41.2231L90.5142 40.9161L90.1797 40.8737L90.0559 41.2397L89.7738 40.7016L89.2639 40.6282L88.7648 40.4175L88.6938 39.9982L88.416 39.549L88.3359 39.1665L88.8037 39.2114L89.052 39.5686L89.5616 39.532L89.4889 39.2976L89.7624 39.0272L89.6103 38.7771L89.9485 38.4022L90.0883 37.9275L90.7669 37.6952L91.0763 37.3366L91.0227 36.9776L90.771 36.5171L91.3781 36.5713L91.6724 36.4462L91.6404 36.1355L91.3855 35.8118L91.7524 35.6626L91.6976 35.3566Z" fill="#ED232A" stroke="#424242" stroke-width="0.310184" stroke-linejoin="round"/>
<path d="M128.423 76.0934L128.723 75.3972L129.126 75.5926L129.279 75.2819L129.566 75.2563L129.781 74.6002L130.28 74.4387L130.911 74.5857L131.252 74.4587L131.939 74.4391L131.965 74.0683L131.57 73.3978L131.488 72.9673L131.642 72.3561L131.898 71.7704L132.131 71.5195L132.827 71.7069L133.266 71.7113L137.478 72.6626L137.533 73.3098L137.673 73.6383L137.461 74.2581L137.881 75.0893L138.425 75.3712L138.485 75.6342L138.316 76.3837L138.773 76.5677L138.862 76.8052L139.175 76.9461L139.111 77.2672L139.45 77.4736L139.218 77.8677L138.943 77.9013L138.186 78.3913L138.017 78.8125L137.587 79.2334L137.059 79.1839L136.781 79.6624L136.493 79.9427L135.996 80.1578L135.794 80.3892L135.979 80.9758L135.921 81.2669L135.464 81.2388L135.252 81.6092L136.019 82.5146L136.012 82.9735L136.205 83.109L136.704 83.0922L136.852 83.6552L137.815 84.1373L137.449 84.6441L137.376 85.3631L136.613 86.2185L136.465 86.4626L136.57 86.9727L136.535 87.3125L136.192 88.0274L135.599 88.3079L135.053 88.9019L134.869 88.9756L134.751 88.5561L133.973 87.9548L133.948 87.5097L133.233 87.0896L132.965 87.0107L132.863 86.5982L132.663 86.4872L131.768 86.7132L130.992 85.8978L130.532 85.99L130.206 85.0087L129.41 84.1763L129.559 83.6374L129.136 83.2841L128.642 84.1489L128.446 84.211L128.138 83.9135L128.109 83.4237L127.611 83.1583L127.177 82.4692L127.242 81.941L127.502 81.8386L127.184 81.3355L127.506 81.216L127.752 81.3471L128.015 81.711L128.365 81.2045L127.656 80.6535L127.649 80.2267L127.236 80.0882L127.006 80.2625L126.946 80.7476L126.575 80.7713L126.575 81.3561L126.032 81.9289L126.002 82.6563L125.599 82.3273L125.533 82.1161L125.104 81.9596L125.149 81.4185L124.992 80.7641L124.478 80.9612L124.487 81.6744L124.252 81.7507L124.07 82.2537L123.821 82.5032L123.727 82.9778L124.171 83.6157L124.03 84.1599L123.519 84.2586L123.279 83.5088L123.325 82.9531L123.554 82.0818L123.52 81.3288L123.399 80.8264L123.584 80.2726L123.843 80.1406L123.673 79.6961L124.063 79.392L124.547 78.5601L124.579 77.7837L124.973 77.075L125.311 77.1163L125.676 76.7283L125.554 76.6143L126.115 76.1589L126.346 76.3605L126.685 77.1885L126.99 77.566L127.445 77.3701L128.099 78.1102L127.875 78.3646L127.998 78.611L127.935 78.9963L128.451 79.4799L128.996 79.8792L129.197 80.3995L129.614 80.526L129.893 79.9029L129.252 79.4368L128.95 78.7298L128.502 78.2156L128.531 77.7814L128.816 76.9558L128.423 76.0934ZM121.645 80.0224L122.031 79.3656L122.305 79.6398L122.364 80.0348L122.61 80.5655L122.648 80.927L122.142 81.111L121.913 80.9887L121.665 80.4481L121.645 80.0224Z" fill="white" stroke="#424242" stroke-width="0.310184" stroke-linejoin="round"/>
</g>
<defs>
<clipPath id="clip0_2861_1367">
<rect width="161" height="86.491" fill="white" transform="translate(10 34)"/>
</clipPath>
</defs>
</svg>
