<svg width="180" height="154" viewBox="0 0 180 154" fill="none" xmlns="http://www.w3.org/2000/svg">
<rect width="180" height="154" fill="#F5F5F5"/>
<path fill-rule="evenodd" clip-rule="evenodd" d="M105.344 50.5218L105.76 52.2711L107.531 51.5873L110.065 49.0058L112.01 45.2328L110.799 42.7461L107.18 45.0556L105.344 50.5218Z" fill="white"/>
<path fill-rule="evenodd" clip-rule="evenodd" d="M105.344 50.5218L105.76 52.2711L107.531 51.5873L110.065 49.0058L112.01 45.2328L110.799 42.7461L107.18 45.0556L105.344 50.5218Z" stroke="#424242" stroke-width="1.25662" stroke-linecap="round" stroke-linejoin="round"/>
<path fill-rule="evenodd" clip-rule="evenodd" d="M71.8621 13.3607L71.9732 14.3077L70.8265 15.2959L69.8271 18.7757L70.2289 19.8463L68.8926 23.9662L67.7921 25.9201L66.497 26.9382L66.5369 27.9526L67.4827 27.6856L66.2737 29.1305L65.2693 31.3514L64.0328 32.6453L62.2024 33.6709L61.5336 35.1407L61.8792 35.9093L64.9948 38.658L65.4889 39.6262L66.3722 40.1589L66.6654 41.0423L64.9761 42.3711L65.6411 43.262L65.54 45.0088L64.5269 46.3351L62.805 46.6046L62.1662 48.3052L62.7152 49.5779L62.4607 51.8337L63.5599 52.52L62.7514 53.8089L63.4276 54.6136L63.5686 55.7091L64.2524 57.3473V58.106L65.0734 58.7248L67.4178 57.7267L69.5576 58.373L70.5545 59.552L71.1123 63.1716L72.1067 65.0382L73.8797 65.7244L74.6782 65.128L75.896 65.0844L77.6128 68.1088L78.5174 68.5805L79.2511 69.5549L81.16 69.9529L83.4209 72.3959L88.7523 75.2594L89.6894 76.6918L89.1304 78.2627L85.7079 79.5253L84.3741 82.0407L81.0465 83.9622L80.1856 85.5455L77.8736 87.6017L77.2048 89.0378L76.6184 89.7303L75.488 89.9349L74.5098 91.3573L74.4674 92.5901L75.4343 94.5602L75.3258 95.4648L73.5565 96.1111L71.2807 98.191L71.0436 98.5167L67.0722 99.2453L64.5007 102.683L64.9948 103.107L64.462 103.891L63.243 105.023L62.9024 106.345L63.1207 107.55L62.6154 107.964L60.3633 114.077L63.2941 116.373L62.7015 120.896L70.0367 125.915L85.1589 133.482L89.5297 131.696L94.0875 132.252L95.9566 135.102L94.4169 143.657L98.5705 143.574L98.0153 141.787L100.863 139.021L105.621 124.964L105.312 123.259L103.699 123.301L111.538 116.062L110.386 113.689L111.937 108.945L110.935 106.861L114.757 107.066L114.358 104.353L117.339 100.645L118.932 94.821L117.339 85.9111L118.664 76.1104L116.629 76.053L119.639 75.0361L119.843 72.9886L117.78 73.6586L117.088 72.2075L119.492 72.4633L119.123 59.6831L111.356 54.1133L107.116 55.5656L104.97 54.9043L103.878 52.2268L105.852 47.2983L107.331 42.0592L108.254 40.0891L108.455 43.4367L112.888 39.0797L115.219 32.7912L114.819 31.7419L115.26 30.312L115.027 28.4692L114 28.2458L114.007 25.8403L114.099 23.8639L113.573 21.8002L98.6192 18.0708L97.2006 17.5967L90.9932 15.6677L75.1998 10.3438L71.8621 13.3607Z" fill="white"/>
<path fill-rule="evenodd" clip-rule="evenodd" d="M119.84 72.9886L117.778 73.6586L117.085 72.2075L119.489 72.4633L119.12 59.6855L111.353 54.1133L107.113 55.5656L104.967 54.9043L103.874 52.2268L105.852 47.2983L107.331 42.0592L108.254 40.0891L108.455 43.4392L112.885 39.0797L115.216 32.7887L114.817 31.7419L115.257 30.3145L115.026 28.4692L114 28.2458L114.007 25.8365L114.099 23.8639L113.57 21.8002L98.619 18.0733L97.1979 17.5967L90.9906 15.6677L75.1996 10.3438L71.862 13.3607L71.973 14.3077L70.8264 15.2984L69.827 18.7757L70.2262 19.8463L68.8924 23.9662L67.7895 25.9226L66.4968 26.9407L66.5343 27.9526L67.4825 27.6856L66.271 29.1305L65.2654 31.3514L64.0326 32.6453L62.1985 33.6734L61.531 35.1407L61.8791 35.9093L64.9946 38.658L65.4862 39.6287L66.3683 40.1589L66.6615 41.0423L64.9746 42.3711L65.6384 43.262L65.5374 45.0113L64.5267 46.3376L62.8049 46.6046L62.1661 48.3052L62.715 49.5779L62.4568 51.8337L63.5572 52.5225L62.7475 53.8089L63.4237 54.6136L63.5685 55.7091L64.2522 57.3473V58.106L65.0707 58.7248L67.4152 57.7267L69.5575 58.3705L70.5519 59.552L71.1121 63.1741L72.1065 65.0382L73.8795 65.7244L74.6756 65.128L75.8921 65.0844L77.6089 68.1126L78.5135 68.5805L79.2496 69.5549L81.1599 69.9529L83.4195 72.3934L88.7522 75.2619L89.6867 76.6918L89.1277 78.2627L85.7078 79.5278L84.3702 82.0407L81.0463 83.9622L80.1817 85.5455L77.8734 87.6017L77.2047 89.0403L76.6182 89.7303L75.4853 89.9374L74.5096 91.3573L74.4659 92.5901L75.4304 94.5602L75.3244 95.4673L73.5539 96.1136L71.2768 98.1885L71.0435 98.5167L67.0695 99.2453L64.4993 102.683L64.9946 103.104L64.4593 103.891L63.2416 105.023L62.8997 106.345L63.1168 107.55L62.6152 107.964L60.3594 114.077L63.294 116.373L62.6988 120.896L70.0328 125.915L85.1563 133.482L89.5295 131.696L94.0874 132.252L95.9539 135.102L94.413 143.66L98.5666 143.574L98.0152 141.785L100.862 139.021L105.621 124.964L105.309 123.261L103.698 123.301L111.535 116.062L110.386 113.689L111.937 108.945L110.935 106.861L114.757 107.066L114.355 104.353L117.335 100.645L118.929 94.8185L117.335 85.9111L118.661 76.1104L116.626 76.0567L119.638 75.0386L119.84 72.9886Z" stroke="#424242" stroke-width="0.971429" stroke-linecap="round" stroke-linejoin="round"/>
<path fill-rule="evenodd" clip-rule="evenodd" d="M71.8534 13.3607L71.9645 14.3077L70.8178 15.2959L69.8184 18.7757L70.2202 19.8463L68.8839 23.9662L67.7834 25.9201L66.4883 26.9382L66.5282 27.9526L67.474 27.6856L78.0608 35.495L79.3422 34.9036L80.6622 35.2155L82.7621 34.0552L83.1427 32.3845L82.6648 31.5934L86.8783 23.6518L90.9845 15.6677L75.191 10.3438L71.8534 13.3607Z" fill="#ED232A"/>
<path fill-rule="evenodd" clip-rule="evenodd" d="M86.8758 23.6518L82.6623 31.5934L83.1427 32.3845L82.7596 34.0552L80.6597 35.2155L79.3422 34.9036L78.0608 35.495L67.4715 27.6856L66.527 27.9514L66.4883 26.9395L67.7809 25.9226L68.8839 23.9662L70.2177 19.8463L69.8184 18.7757L70.8191 15.2984L71.9645 14.3077L71.8534 13.3607L75.1923 10.3438L90.9833 15.6665L86.8758 23.6518Z" stroke="#424242" stroke-width="0.314155" stroke-linecap="round" stroke-linejoin="round"/>
<path fill-rule="evenodd" clip-rule="evenodd" d="M99.3349 31.6723L98.9494 30.4433L98.0797 29.7533L98.2968 28.452L97.0878 26.1849L94.0434 25.8542L93.0976 26.3571L90.7644 26.1213L90.6372 25.0931L89.8623 24.7026L88.7918 25.1256L88.4175 26.0676L87.7088 25.6072L87.3931 23.677L86.8828 23.6533L90.9903 15.668L97.1964 17.5982L98.615 18.0723L97.7017 25.1418L98.7947 25.5585L99.0355 26.1075L101.872 26.0589L102.361 25.7008L103.632 26.1499L104.006 28.1201L104.767 28.699L105.093 30.1551L106.484 31.4951L105.9 32.0304L106.552 33.8071L106.327 34.3773L99.3349 31.6723Z" fill="#ED232A"/>
<path fill-rule="evenodd" clip-rule="evenodd" d="M99.3349 31.6723L98.9494 30.4433L98.0797 29.7533L98.2968 28.452L97.0878 26.1849L94.0434 25.8542L93.0976 26.3571L90.7644 26.1213L90.6372 25.0931L89.8623 24.7026L88.7918 25.1256L88.4175 26.0676L87.7088 25.6072L87.3931 23.677L86.8828 23.6533L90.9903 15.668L97.1964 17.5982L98.615 18.0723L97.7017 25.1418L98.7947 25.5585L99.0355 26.1075L101.872 26.0589L102.361 25.7008L103.632 26.1499L104.006 28.1201L104.767 28.699L105.093 30.1551L106.484 31.4951L105.9 32.0304L106.552 33.8071L106.327 34.3773L99.3349 31.6723Z" stroke="#424242" stroke-width="0.314155" stroke-linecap="round" stroke-linejoin="round"/>
<path fill-rule="evenodd" clip-rule="evenodd" d="M113.989 28.2468L112.861 33.6556L111.243 33.3948L111.033 32.625L110.441 32.741L108.749 35.2514L108.529 36.554L107.089 37.1267L106.127 36.4841L106.321 34.3768L106.545 33.8065L105.894 32.0298L106.475 31.4945L105.087 30.1545L104.761 28.6984L103.997 28.1195L103.626 26.1531L102.354 25.7039L101.863 26.0608L99.0266 26.107L98.7846 25.558L97.6953 25.1437L98.6086 18.0742L113.562 21.8011L114.089 23.8648L113.997 25.8374L113.989 28.2468Z" fill="#ED232A"/>
<path fill-rule="evenodd" clip-rule="evenodd" d="M113.989 28.2468L112.861 33.6556L111.243 33.3948L111.033 32.625L110.441 32.741L108.749 35.2514L108.529 36.554L107.089 37.1267L106.127 36.4841L106.321 34.3768L106.545 33.8065L105.894 32.0298L106.475 31.4945L105.087 30.1545L104.761 28.6984L103.997 28.1195L103.626 26.1531L102.354 25.7039L101.863 26.0608L99.0266 26.107L98.7846 25.558L97.6953 25.1437L98.6086 18.0742L113.562 21.8011L114.089 23.8648L113.997 25.8374L113.989 28.2468Z" stroke="#424242" stroke-width="0.314155" stroke-linecap="round" stroke-linejoin="round"/>
<path fill-rule="evenodd" clip-rule="evenodd" d="M66.2674 29.1284L65.263 31.3494L64.029 32.6432L62.1961 33.6688L61.5273 35.1374L61.8755 35.9072L64.9885 38.6584L65.4826 39.6266L66.3659 40.1569L66.6592 41.039L64.9698 42.3691L65.6348 43.26L65.535 45.0067L64.5218 46.3356L62.8013 46.6026L62.1612 48.3032L62.7089 49.5758L62.4544 51.8305L63.5536 52.5167L62.7451 53.8068L63.4214 54.6103L63.5648 55.7083L64.2498 57.3453L65.9604 54.8312L67.2518 54.0464L67.7434 52.6627L69.5301 50.4779L71.0137 49.8903L72.4148 48.2196L73.146 46.217L73.8197 45.4559L73.8846 44.2369L74.8678 43.5444L74.9689 42.8432L75.846 42.6436L75.9433 41.7066L76.9652 40.3778L77.2946 38.6871L76.8155 37.5255L78.0632 35.493L67.4764 27.6836L66.2674 29.1284Z" fill="#ED232A"/>
<path fill-rule="evenodd" clip-rule="evenodd" d="M63.5648 55.7071L63.4214 54.6116L62.7451 53.8068L63.5536 52.5179L62.4544 51.8317L62.7127 49.5758L62.1612 48.3032L62.8013 46.6026L64.5243 46.3368L65.535 45.0067L65.6348 43.26L64.9723 42.3691L66.6592 41.0403L66.3659 40.1569L65.4826 39.6241L64.9885 38.6559L61.8755 35.9085L61.5273 35.1361L62.1961 33.6713L64.029 32.6432L65.263 31.3494L66.2674 29.1297L67.4764 27.6836L78.0657 35.4942L76.8155 37.5255L77.2946 38.6884L76.9677 40.3778L75.9471 41.7078L75.846 42.6436L74.9689 42.8432L74.8678 43.5432L73.8871 44.2369L73.8197 45.4534L73.1435 46.2208L72.4186 48.2196L71.0137 49.8915L69.5276 50.4779L67.7434 52.6627L67.2481 54.0464L65.9604 54.8324L64.2498 57.3428L63.5648 55.7071Z" stroke="#424242" stroke-width="0.314155" stroke-linecap="round" stroke-linejoin="round"/>
<path fill-rule="evenodd" clip-rule="evenodd" d="M82.2399 45.6956L80.2024 45.3213L77.7818 45.7031L77.6059 45.0817L74.8672 43.5445L74.9683 42.8421L75.8454 42.6437L75.9465 41.7092L76.9671 40.3778L77.294 38.6872L76.8149 37.5281L78.0651 35.4956L79.3465 34.9017L80.664 35.2136L82.7639 34.0557L83.147 32.385L82.6666 31.594L86.8801 23.6523L87.3904 23.6761L87.7061 25.6063L88.4148 26.0667L88.7891 25.1246L89.8596 24.7017L90.6345 25.0922L90.7617 26.1203L93.0949 26.3561L94.0407 25.8533L97.0851 26.1839L98.2941 28.451L98.077 29.7524L98.9467 30.4424L99.3322 31.6714L98.2205 31.1124L96.6097 31.4829L96.4662 31.8822L96.6921 33.246L97.9547 33.7525L96.4176 38.9006L96.6022 39.8014L97.2598 40.0148L96.979 41.3523L94.2229 45.3836L94.2141 45.9825L92.0331 47.7031L91.2695 46.5453L91.5927 44.4466L89.4491 42.8832L89.0224 42.1246L82.2399 45.6956Z" fill="#ED232A"/>
<path fill-rule="evenodd" clip-rule="evenodd" d="M82.2399 45.6956L80.2024 45.3213L77.7818 45.7031L77.6059 45.0817L74.8672 43.5445L74.9683 42.8421L75.8454 42.6437L75.9465 41.7092L76.9671 40.3778L77.294 38.6872L76.8149 37.5281L78.0651 35.4956L79.3465 34.9017L80.664 35.2136L82.7639 34.0557L83.147 32.385L82.6666 31.594L86.8801 23.6523L87.3904 23.6761L87.7061 25.6063L88.4148 26.0667L88.7891 25.1246L89.8596 24.7017L90.6345 25.0922L90.7617 26.1203L93.0949 26.3561L94.0407 25.8533L97.0851 26.1839L98.2941 28.451L98.077 29.7524L98.9467 30.4424L99.3322 31.6714L98.2205 31.1124L96.6097 31.4829L96.4662 31.8822L96.6921 33.246L97.9547 33.7525L96.4176 38.9006L96.6022 39.8014L97.2598 40.0148L96.979 41.3523L94.2229 45.3836L94.2141 45.9825L92.0331 47.7031L91.2695 46.5453L91.5927 44.4466L89.4491 42.8832L89.0224 42.1246L82.2399 45.6956Z" stroke="#424242" stroke-width="0.314155" stroke-linecap="round" stroke-linejoin="round"/>
<path fill-rule="evenodd" clip-rule="evenodd" d="M106.135 36.4861L105.701 38.3264L105.943 39.0077L107.475 38.6221L108.251 40.0944L107.325 42.0621L105.207 42.1132L103.862 41.5667L101.137 41.3347L99.5148 41.8387L96.9807 41.3571L97.2602 40.0171L96.6039 39.8037L96.418 38.9029L97.9564 33.7548L96.6925 33.2508L96.4679 31.887L96.6114 31.489L98.2222 31.1172L99.3339 31.6774L106.326 34.3812L106.135 36.4861Z" fill="#ED232A"/>
<path fill-rule="evenodd" clip-rule="evenodd" d="M106.135 36.4861L105.701 38.3264L105.943 39.0077L107.475 38.6221L108.251 40.0944L107.325 42.0621L105.207 42.1132L103.862 41.5667L101.137 41.3347L99.5148 41.8387L96.9807 41.3571L97.2602 40.0171L96.6039 39.8037L96.418 38.9029L97.9564 33.7548L96.6925 33.2508L96.4679 31.887L96.6114 31.489L98.2222 31.1172L99.3339 31.6774L106.326 34.3812L106.135 36.4861Z" stroke="#424242" stroke-width="0.314155" stroke-linecap="round" stroke-linejoin="round"/>
<path fill-rule="evenodd" clip-rule="evenodd" d="M112.865 33.6471L113.993 28.2383L115.02 28.4616L115.253 30.3082L114.813 31.7344L115.21 32.7837L112.882 39.0759L112.434 37.2243L112.865 33.6471Z" fill="#ED232A"/>
<path fill-rule="evenodd" clip-rule="evenodd" d="M112.865 33.6471L113.993 28.2383L115.02 28.4616L115.253 30.3082L114.813 31.7344L115.21 32.7837L112.882 39.0759L112.434 37.2243L112.865 33.6471Z" stroke="#424242" stroke-width="0.314155" stroke-linecap="round" stroke-linejoin="round"/>
<path fill-rule="evenodd" clip-rule="evenodd" d="M112.867 33.6556L112.436 37.2328L112.884 39.0844L108.45 43.4414L108.252 40.0938L107.476 38.6215L105.941 39.0058L105.699 38.322L106.133 36.4842L107.095 37.128L108.535 36.554L108.755 35.2514L110.447 32.741L111.039 32.625L111.249 33.3948L112.867 33.6556Z" fill="#ED232A"/>
<path fill-rule="evenodd" clip-rule="evenodd" d="M112.867 33.6556L112.436 37.2328L112.884 39.0844L108.45 43.4414L108.252 40.0938L107.476 38.6215L105.941 39.0058L105.699 38.322L106.133 36.4842L107.095 37.128L108.535 36.554L108.755 35.2514L110.447 32.741L111.039 32.625L111.249 33.3948L112.867 33.6556Z" stroke="#424242" stroke-width="0.314155" stroke-linecap="round" stroke-linejoin="round"/>
<path fill-rule="evenodd" clip-rule="evenodd" d="M85.1077 62.1564L82.7209 63.187L83.4134 64.6369L80.7832 65.6887L81.83 67.3631L78.5074 68.5821L77.6028 68.1117L75.8859 65.086L74.6694 65.1272L73.8734 65.7249L72.0992 65.0386L71.1047 63.1733L70.5483 59.5512L69.5513 58.3721L67.4078 57.7258L65.0633 58.7277L64.2461 58.1051V57.3465L65.9579 54.8336L67.2481 54.0476L67.7397 52.6664L69.5264 50.4791L71.0124 49.8927L72.4148 48.2208L73.1422 46.222L73.8185 45.4571L73.8834 44.2406L74.8641 43.5469L77.6028 45.0828L77.7825 45.7054L80.1993 45.3224L82.2368 45.6967L82.7047 46.9369L82.5225 47.6294L83.0578 47.8851L82.6036 49.0792L83.2312 49.6307L83.1276 50.3494L84.1221 50.6239L83.8725 52.6639L84.7522 53.294L83.7477 55.0645L83.2424 58.3796L82.001 58.1051L85.1077 62.1564Z" fill="#ED232A"/>
<path fill-rule="evenodd" clip-rule="evenodd" d="M85.1077 62.1564L82.7209 63.187L83.4134 64.6369L80.7832 65.6887L81.83 67.3631L78.5074 68.5821L77.6028 68.1117L75.8859 65.086L74.6694 65.1272L73.8734 65.7249L72.0992 65.0386L71.1047 63.1733L70.5483 59.5512L69.5513 58.3721L67.4078 57.7258L65.0633 58.7277L64.2461 58.1051V57.3465L65.9579 54.8336L67.2481 54.0476L67.7397 52.6664L69.5264 50.4791L71.0124 49.8927L72.4148 48.2208L73.1422 46.222L73.8185 45.4571L73.8834 44.2406L74.8641 43.5469L77.6028 45.0828L77.7825 45.7054L80.1993 45.3224L82.2368 45.6967L82.7047 46.9369L82.5225 47.6294L83.0578 47.8851L82.6036 49.0792L83.2312 49.6307L83.1276 50.3494L84.1221 50.6239L83.8725 52.6639L84.7522 53.294L83.7477 55.0645L83.2424 58.3796L82.001 58.1051L85.1077 62.1564Z" stroke="#424242" stroke-width="0.314155" stroke-linecap="round" stroke-linejoin="round"/>
<path fill-rule="evenodd" clip-rule="evenodd" d="M91.1622 63.6489L90.7655 63.0038L89.7773 62.9115L89.0623 63.6301L86.7104 64.5485L85.1134 62.1479L82.0078 58.0978L83.2468 58.3723L83.7521 55.0584L84.7603 53.2854L83.8769 52.6553L84.1264 50.6153L83.1357 50.3446L83.2356 49.6234L82.6105 49.0707L83.0646 47.8791L82.5269 47.6208L82.7115 46.9296L82.2449 45.6881L89.0274 42.1172L89.4541 42.8758L91.5964 44.4392L91.2733 46.5416L92.0369 47.6957L94.2179 45.9788L95.221 46.5553L95.6228 46.0362L96.8555 45.632L97.0651 46.4018L96.2292 48.4767L95.0201 49.6583L94.5685 50.4781L93.3008 51.3614L92.7867 52.9036L94.4961 53.9479L94.838 54.5506L96.2204 54.6417V55.9493L94.5248 58.8477L92.2577 60.869L91.9146 62.869L91.1622 63.6489Z" fill="#ED232A"/>
<path fill-rule="evenodd" clip-rule="evenodd" d="M91.1622 63.6489L90.7655 63.0038L89.7773 62.9115L89.0623 63.6301L86.7104 64.5485L85.1134 62.1479L82.0078 58.0978L83.2468 58.3723L83.7521 55.0584L84.7603 53.2854L83.8769 52.6553L84.1264 50.6153L83.1357 50.3446L83.2356 49.6234L82.6105 49.0707L83.0646 47.8791L82.5269 47.6208L82.7115 46.9296L82.2449 45.6881L89.0274 42.1172L89.4541 42.8758L91.5964 44.4392L91.2733 46.5416L92.0369 47.6957L94.2179 45.9788L95.221 46.5553L95.6228 46.0362L96.8555 45.632L97.0651 46.4018L96.2292 48.4767L95.0201 49.6583L94.5685 50.4781L93.3008 51.3614L92.7867 52.9036L94.4961 53.9479L94.838 54.5506L96.2204 54.6417V55.9493L94.5248 58.8477L92.2577 60.869L91.9146 62.869L91.1622 63.6489Z" stroke="#424242" stroke-width="0.314155" stroke-linecap="round" stroke-linejoin="round"/>
<path fill-rule="evenodd" clip-rule="evenodd" d="M105.846 47.3011L104.477 47.5319L102.506 48.6324L101.677 47.8575L95.7121 49.9187L95.0159 49.6655L96.2249 48.4851L97.0621 46.4102L96.85 45.6404L95.616 46.0434L95.2168 46.5662L94.2148 45.9872L94.2223 45.3846L96.9773 41.3532L99.5151 41.8374L101.136 41.332L103.861 41.5629L105.206 42.1094L107.324 42.0607L105.846 47.3011Z" fill="#ED232A"/>
<path fill-rule="evenodd" clip-rule="evenodd" d="M105.846 47.3011L104.477 47.5319L102.506 48.6324L101.677 47.8575L95.7121 49.9187L95.0159 49.6655L96.2249 48.4851L97.0621 46.4102L96.85 45.6404L95.616 46.0434L95.2168 46.5662L94.2148 45.9872L94.2223 45.3846L96.9773 41.3532L99.5151 41.8374L101.136 41.332L103.861 41.5629L105.206 42.1094L107.324 42.0607L105.846 47.3011Z" stroke="#424242" stroke-width="0.314155" stroke-linecap="round" stroke-linejoin="round"/>
<path fill-rule="evenodd" clip-rule="evenodd" d="M105.759 52.2698L105.344 50.5206L107.178 45.0531L110.796 42.7461L112.01 45.2328L110.065 49.0033L107.528 51.5836L105.759 52.2698Z" fill="#ED232A"/>
<path fill-rule="evenodd" clip-rule="evenodd" d="M105.759 52.2698L105.344 50.5206L107.178 45.0531L110.796 42.7461L112.01 45.2328L110.065 49.0033L107.528 51.5836L105.759 52.2698Z" stroke="#424242" stroke-width="0.314155" stroke-linecap="round" stroke-linejoin="round"/>
<path fill-rule="evenodd" clip-rule="evenodd" d="M98.7056 68.8473L98.3849 68.0749L96.6032 67.365L95.3667 67.3488L91.4502 66.156L90.5156 65.3811L91.0534 64.8509L91.1594 63.6543L91.9118 62.8732L92.2537 60.8732L94.522 58.8531L96.2176 55.9547V54.6496L94.8314 54.5548L94.4896 53.9521L92.7815 52.9078L93.2968 51.3656L94.5657 50.486L95.0161 49.6625L95.7098 49.9158L101.678 47.8546L102.504 48.6294L104.477 47.5289L105.847 47.2969L103.87 52.2241L104.964 54.9016L107.11 55.5642L106.431 56.7245L106.567 58.4489L101.678 66.4504L101.718 66.9395L99.9907 68.5865L98.7056 68.8473Z" fill="#ED232A"/>
<path fill-rule="evenodd" clip-rule="evenodd" d="M98.7056 68.8473L98.3849 68.0749L96.6032 67.365L95.3667 67.3488L91.4502 66.156L90.5156 65.3811L91.0534 64.8509L91.1594 63.6543L91.9118 62.8732L92.2537 60.8732L94.522 58.8531L96.2176 55.9547V54.6496L94.8314 54.5548L94.4896 53.9521L92.7815 52.9078L93.2968 51.3656L94.5657 50.486L95.0161 49.6625L95.7098 49.9158L101.678 47.8546L102.504 48.6294L104.477 47.5289L105.847 47.2969L103.87 52.2241L104.964 54.9016L107.11 55.5642L106.431 56.7245L106.567 58.4489L101.678 66.4504L101.718 66.9395L99.9907 68.5865L98.7056 68.8473Z" stroke="#424242" stroke-width="0.314155" stroke-linecap="round" stroke-linejoin="round"/>
<path fill-rule="evenodd" clip-rule="evenodd" d="M107.111 55.563L106.432 56.7208L106.564 58.4452L101.678 66.4492L101.718 66.9358L99.9878 68.5828L98.7064 68.846L98.7226 69.7319L96.5441 71.6534L95.9839 73.8007L95.1118 74.2149L94.9246 73.5699L94.0312 74.5892L95.4986 76.4271L97.7694 79.2606L98.9397 78.1689L102.455 72.9186L109.045 71.3414L110.422 74.1401L111.256 74.417L113.446 73.9754L114.394 74.1513L115.806 71.4949L117.039 71.8742L117.083 72.2049L119.487 72.4581L119.118 59.6804L111.351 54.1094L107.111 55.563Z" fill="#ED232A"/>
<path fill-rule="evenodd" clip-rule="evenodd" d="M97.772 79.2606L95.5012 76.4296L94.0352 74.588L94.9285 73.5711L95.1132 74.2137L95.9878 73.8019L96.548 71.6521L98.7265 69.7307L98.7103 68.8448L99.9917 68.584L101.722 66.937L101.679 66.4479L106.568 58.4464L106.432 56.7221L107.112 55.5617L111.352 54.1094L119.119 59.6816L119.488 72.4594L117.084 72.2036L117.043 71.8755L115.81 71.4937L114.398 74.15L113.449 73.9741L111.26 74.4158L110.424 74.1413L109.046 71.3402L102.458 72.9198L98.9436 78.1677L97.772 79.2606Z" stroke="#424242" stroke-width="0.314155" stroke-linecap="round" stroke-linejoin="round"/>
<path fill-rule="evenodd" clip-rule="evenodd" d="M89.6849 76.6869L88.7479 75.2583L83.4152 72.3898L81.1556 69.9493L79.2454 69.55L78.5117 68.5768L81.8319 67.3578L80.7888 65.6858L83.4152 64.634L82.7227 63.1805L85.1108 62.1523L86.7079 64.5504L89.0598 63.6321L89.7748 62.9147L90.7605 63.0058L91.1597 63.6521L91.0537 64.8486L90.5184 65.3789L91.4504 66.1537L95.3707 67.3465L96.6035 67.3628L98.3852 68.0727L98.7058 68.845L98.7221 69.7309L96.5436 71.6524L95.9846 73.8022L95.1125 74.2139L94.9278 73.5714L94.0344 74.5882L95.5005 76.4286L94.8929 76.5796L91.3331 74.9189L90.5596 75.2071L89.6849 76.6869Z" fill="#ED232A"/>
<path fill-rule="evenodd" clip-rule="evenodd" d="M89.6849 76.6869L88.7479 75.2583L83.4152 72.3898L81.1556 69.9493L79.2454 69.55L78.5117 68.5768L81.8319 67.3578L80.7888 65.6858L83.4152 64.634L82.7227 63.1805L85.1108 62.1523L86.7079 64.5504L89.0598 63.6321L89.7748 62.9147L90.7605 63.0058L91.1597 63.6521L91.0537 64.8486L90.5184 65.3789L91.4504 66.1537L95.3707 67.3465L96.6035 67.3628L98.3852 68.0727L98.7058 68.845L98.7221 69.7309L96.5436 71.6524L95.9846 73.8022L95.1125 74.2139L94.9278 73.5714L94.0344 74.5882L95.5005 76.4286L94.8929 76.5796L91.3331 74.9189L90.5596 75.2071L89.6849 76.6869Z" stroke="#424242" stroke-width="0.314155" stroke-linecap="round" stroke-linejoin="round"/>
<path fill-rule="evenodd" clip-rule="evenodd" d="M94.4015 100.094L92.2068 99.1548L90.9541 98.0194L89.7401 97.9583L87.5591 98.8404L86.385 98.3214L84.4136 93.7622L83.539 93.4478L82.5907 92.099L79.9331 91.0198L79.7622 89.5126L79.4116 89.2468L77.2031 89.0422L77.8719 87.5998L80.1839 85.5461L81.0448 83.964L84.3724 82.0425L85.7062 79.5259L89.1287 78.2645L89.6889 76.6924L90.5636 75.2126L91.3371 74.9219L94.8956 76.5851L95.502 76.4341L97.7728 79.2651L109.429 94.965L110.994 104.08L110.257 106.023L110.469 106.373L109.975 107.25L109.315 106.631L109.168 107.49L108.432 107.562L106.27 106.693L105.559 106.761L104.17 105.945L103.607 106.107L101.195 104.77L100.734 105.124L99.2938 104.998L97.6393 101.785L94.4015 100.094Z" fill="#ED232A"/>
<path fill-rule="evenodd" clip-rule="evenodd" d="M94.4015 100.094L92.2068 99.1548L90.9541 98.0194L89.7401 97.9583L87.5591 98.8404L86.385 98.3214L84.4136 93.7622L83.539 93.4478L82.5907 92.099L79.9331 91.0198L79.7622 89.5126L79.4116 89.2468L77.2031 89.0422L77.8719 87.5998L80.1839 85.5461L81.0448 83.964L84.3724 82.0425L85.7062 79.5259L89.1287 78.2645L89.6889 76.6924L90.5636 75.2126L91.3371 74.9219L94.8956 76.5851L95.502 76.4341L97.7728 79.2651L109.429 94.965L110.994 104.08L110.257 106.023L110.469 106.373L109.975 107.25L109.315 106.631L109.168 107.49L108.432 107.562L106.27 106.693L105.559 106.761L104.17 105.945L103.607 106.107L101.195 104.77L100.734 105.124L99.2938 104.998L97.6393 101.785L94.4015 100.094Z" stroke="#424242" stroke-width="0.314155" stroke-linecap="round" stroke-linejoin="round"/>
<path fill-rule="evenodd" clip-rule="evenodd" d="M102.456 72.9246L98.9411 78.1712L97.7695 79.2642L109.427 94.9641L110.991 104.082L110.255 106.023L110.464 106.372L110.929 106.862L114.753 107.067L114.352 104.354L117.334 100.645L118.926 94.8218L117.334 85.912L118.657 76.11L116.622 76.0563L119.632 75.0395L119.836 72.9882L117.774 73.662L117.084 72.2084L117.038 71.8803L115.808 71.501L114.395 74.1536L113.447 73.9789L111.257 74.4206L110.421 74.1461L109.046 71.3438L102.456 72.9246Z" fill="#ED232A"/>
<path fill-rule="evenodd" clip-rule="evenodd" d="M110.93 106.861L110.466 106.371L110.254 106.021L110.99 104.081L109.426 94.9628L97.7695 79.2629L98.9399 78.1712L102.455 72.9233L109.045 71.3438L110.423 74.1448L111.256 74.4193L113.446 73.9777L114.394 74.1523L115.806 71.4972L117.04 71.879L117.083 72.2072L117.777 73.6582L119.835 72.9882L119.634 75.0382L116.624 76.0551L118.659 76.1087L117.331 85.9107L118.926 94.8181L117.331 100.645L114.353 104.353L114.752 107.066L110.93 106.861Z" stroke="#424242" stroke-width="0.314155" stroke-linecap="round" stroke-linejoin="round"/>
<path fill-rule="evenodd" clip-rule="evenodd" d="M89.9061 108.372L86.7519 104.343L83.9134 103.95L83.3295 103.206L82.3213 102.99L82.0443 102.14L80.6669 101.033L79.0561 100.784L79.4142 100.038L78.5969 99.1879L78.4285 98.1186L77.5376 96.9994L75.3179 95.466L75.424 94.5589L74.457 92.5913L74.5007 91.3586L75.4764 89.9349L76.6081 89.7278L77.1957 89.0391L79.4067 89.2462L79.7573 89.5132L79.9257 91.0204L82.5846 92.0984L83.5304 93.4472L84.4075 93.7616L86.3776 98.3207L87.553 98.8398L89.7339 97.9577L90.9492 98.0201L92.2007 99.1555L94.3929 100.095L89.9061 108.372Z" fill="#ED232A"/>
<path fill-rule="evenodd" clip-rule="evenodd" d="M89.9061 108.372L86.7519 104.343L83.9134 103.95L83.3295 103.206L82.3213 102.99L82.0443 102.14L80.6669 101.033L79.0561 100.784L79.4142 100.038L78.5969 99.1879L78.4285 98.1186L77.5376 96.9994L75.3179 95.466L75.424 94.5589L74.457 92.5913L74.5007 91.3586L75.4764 89.9349L76.6081 89.7278L77.1957 89.0391L79.4067 89.2462L79.7573 89.5132L79.9257 91.0204L82.5846 92.0984L83.5304 93.4472L84.4075 93.7616L86.3776 98.3207L87.553 98.8398L89.7339 97.9577L90.9492 98.0201L92.2007 99.1555L94.3929 100.095L89.9061 108.372Z" stroke="#424242" stroke-width="0.314155" stroke-linecap="round" stroke-linejoin="round"/>
<path fill-rule="evenodd" clip-rule="evenodd" d="M82.7659 112.098L75.7812 108.166L74.2628 108.602L73.1685 107.988L71.9894 108.383L70.0305 108.08L67.9481 106.78L65.3591 103.968L64.457 103.887L64.9898 103.101L64.4945 102.679L67.0672 99.2415L71.0412 98.5128L71.2757 98.1847L73.5491 96.1097L75.3233 95.4609L77.5417 96.9981L78.4326 98.1173L78.601 99.1828L79.4195 100.036L79.0602 100.779L80.671 101.032L82.0484 102.135L82.3254 102.986L83.3336 103.2L83.9175 103.949L86.756 104.34L89.9102 108.367L86.6887 114.38L82.7659 112.098Z" fill="#ED232A"/>
<path fill-rule="evenodd" clip-rule="evenodd" d="M82.7659 112.098L75.7812 108.166L74.2628 108.602L73.1685 107.988L71.9894 108.383L70.0305 108.08L67.9481 106.78L65.3591 103.968L64.457 103.887L64.9898 103.101L64.4945 102.679L67.0672 99.2415L71.0412 98.5128L71.2757 98.1847L73.5491 96.1097L75.3233 95.4609L77.5417 96.9981L78.4326 98.1173L78.601 99.1828L79.4195 100.036L79.0602 100.779L80.671 101.032L82.0484 102.135L82.3254 102.986L83.3336 103.2L83.9175 103.949L86.756 104.34L89.9102 108.367L86.6887 114.38L82.7659 112.098Z" stroke="#424242" stroke-width="0.314155" stroke-linecap="round" stroke-linejoin="round"/>
<path fill-rule="evenodd" clip-rule="evenodd" d="M63.243 105.027L62.8999 106.349L63.1182 107.554L62.6154 107.968L60.3633 114.077L63.2941 116.375L62.699 120.9L70.0343 125.919L69.2707 124.126L69.5776 123.381L69.0997 122.856L68.9637 121.712L69.4578 121.223L70.6094 121.118L71.4604 119.49L72.4373 118.901L75.5179 114.479L83.3548 118.362L83.2949 115.047L82.5463 112.695L82.7683 112.104L75.7849 108.173L74.2665 108.61L73.171 107.996L71.9944 108.391L70.0343 108.087L67.9506 106.787L65.3616 103.976L64.4595 103.895L63.243 105.027Z" fill="#ED232A"/>
<path fill-rule="evenodd" clip-rule="evenodd" d="M82.7708 112.106L82.545 112.697L83.2949 115.049L83.3573 118.363L75.5179 114.479L72.4373 118.901L71.4616 119.49L70.6094 121.118L69.4603 121.225L68.9662 121.713L69.101 122.856L69.5801 123.381L69.2732 124.127L70.0355 125.919L62.699 120.9L63.2941 116.377L60.3633 114.078L62.6141 107.97L63.1195 107.555L62.9024 106.346L63.2455 105.027L64.462 103.895L65.3641 103.976L67.9531 106.788L70.0355 108.088L71.9944 108.391L73.1735 107.996L74.2677 108.61L75.7862 108.174L82.7708 112.106Z" stroke="#424242" stroke-width="0.314155" stroke-linecap="round" stroke-linejoin="round"/>
<path fill-rule="evenodd" clip-rule="evenodd" d="M94.5481 123.517L94.2311 120.516L93.4975 118.083L86.6875 114.377L89.9091 108.368L94.3958 100.09L97.6374 101.78L99.2881 104.993L100.728 105.119L101.19 104.765L103.603 106.103L104.164 105.94L105.555 106.754L106.264 106.689L108.426 107.559L109.162 107.485L109.312 106.627L109.972 107.245L110.464 106.368L110.929 106.859L111.931 108.941L110.38 113.686L111.532 116.059L103.692 123.298L102.961 123.829L102.318 123.547L101.136 124.168L96.3847 124.243L95.1644 124.045L94.5481 123.517Z" fill="#ED232A"/>
<path fill-rule="evenodd" clip-rule="evenodd" d="M94.5481 123.517L94.2311 120.516L93.4975 118.083L86.6875 114.377L89.9091 108.368L94.3958 100.09L97.6374 101.78L99.2881 104.993L100.728 105.119L101.19 104.765L103.603 106.103L104.164 105.94L105.555 106.754L106.264 106.689L108.426 107.559L109.162 107.485L109.312 106.627L109.972 107.245L110.464 106.368L110.929 106.859L111.931 108.941L110.38 113.686L111.532 116.059L103.692 123.298L102.961 123.829L102.318 123.547L101.136 124.168L96.3847 124.243L95.1644 124.045L94.5481 123.517Z" stroke="#424242" stroke-width="0.314155" stroke-linecap="round" stroke-linejoin="round"/>
<path fill-rule="evenodd" clip-rule="evenodd" d="M94.0862 132.253L89.5283 131.697L85.1576 133.484L70.0341 125.916L69.2718 124.123L69.5787 123.378L69.0996 122.853L68.9648 121.709L69.4589 121.22L70.6081 121.112L71.4603 119.487L72.436 118.898L75.5165 114.476L83.3559 118.359L83.2935 115.044L82.5436 112.692L82.7695 112.102L86.6923 114.381L93.5022 118.087L94.2359 120.52L94.5528 123.521L93.8528 124.549L93.9913 129.178L92.8235 130.531L94.0862 132.253Z" fill="#ED232A"/>
<path fill-rule="evenodd" clip-rule="evenodd" d="M94.0862 132.253L89.5283 131.697L85.1576 133.484L70.0341 125.916L69.2718 124.123L69.5787 123.378L69.0996 122.853L68.9648 121.709L69.4589 121.22L70.6081 121.112L71.4603 119.487L72.436 118.898L75.5165 114.476L83.3559 118.359L83.2935 115.044L82.5436 112.692L82.7695 112.102L86.6923 114.381L93.5022 118.087L94.2359 120.52L94.5528 123.521L93.8528 124.549L93.9913 129.178L92.8235 130.531L94.0862 132.253Z" stroke="#424242" stroke-width="0.314155" stroke-linecap="round" stroke-linejoin="round"/>
<path fill-rule="evenodd" clip-rule="evenodd" d="M103.695 123.302L102.964 123.834L102.321 123.549L101.139 124.174L96.3877 124.246L95.1674 124.05L94.551 123.522L93.8536 124.551L93.9896 129.18L92.8242 130.533L94.0844 132.253L95.9535 135.102L94.4125 143.658L98.5662 143.574L98.0122 141.788L100.859 139.02L105.618 124.965L105.309 123.262L103.695 123.302Z" fill="#ED232A"/>
<path fill-rule="evenodd" clip-rule="evenodd" d="M94.0869 132.255L92.8242 130.533L93.9921 129.18L93.8536 124.551L94.5535 123.522L95.1687 124.05L96.3902 124.246L101.141 124.174L102.323 123.552L102.967 123.834L103.698 123.304L105.311 123.262L105.621 124.967L100.862 139.024L98.0147 141.788L98.5662 143.574L94.4125 143.66L95.9535 135.105L94.0869 132.255Z" stroke="#424242" stroke-width="0.314155" stroke-linecap="round" stroke-linejoin="round"/>
</svg>
