<svg width="180" height="154" viewBox="0 0 180 154" fill="none" xmlns="http://www.w3.org/2000/svg">
<rect width="180" height="154" fill="#F5F5F5"/>
<g clip-path="url(#clip0_2861_1371)">
<mask id="mask0_2861_1371" style="mask-type:luminance" maskUnits="userSpaceOnUse" x="10" y="10" width="179" height="136">
<path d="M188.686 10H10V145.694H188.686V10Z" fill="white"/>
</mask>
<g mask="url(#mask0_2861_1371)">
<path d="M50.8939 6.49182C47.7398 8.35418 44.6242 10.2878 41.4985 12.2001C38.9319 11.4233 36.3615 10.6637 33.7908 9.89773C33.6902 7.40325 33.545 4.91051 33.3655 2.42395C33.1642 0.0991501 32.983 -2.22793 32.7305 -4.54803C31.997 -4.62886 31.2597 -4.66165 30.5234 -4.70815C30.6313 -6.10365 30.7869 -7.49579 30.8697 -8.89303C31.8203 -8.81514 32.771 -8.73724 33.7217 -8.65934C35.5191 -10.0354 37.2994 -11.4518 39.0707 -12.8659C39.3887 -12.4611 39.9 -12.8082 40.2566 -12.6144C40.856 -12.6111 41.4106 -12.6365 41.0906 -13.3727C41.1853 -13.7646 40.5849 -14.6812 41.2865 -14.5503C41.708 -14.7011 42.7318 -14.277 42.595 -14.9607C42.3648 -15.4749 42.9267 -16.0943 42.7354 -16.3889C42.3108 -16.6545 43.3051 -17.2601 43.1187 -17.5848C42.4401 -18.0122 41.7537 -18.4267 41.07 -18.8459C42.2079 -20.5902 43.3737 -22.3296 44.5278 -24.0547C47.1964 -22.547 49.7985 -20.9294 52.4934 -19.4684C53.022 -19.1698 53.5505 -18.8713 54.079 -18.5728C54.5969 -13.0335 55.1561 -7.50459 55.6543 -1.96572C55.8343 -0.206672 55.9889 1.55789 56.1563 3.31936C54.3986 4.36869 52.6574 5.451 50.8939 6.49182Z" fill="white" stroke="#424242" stroke-width="0.32538"/>
</g>
<mask id="mask1_2861_1371" style="mask-type:luminance" maskUnits="userSpaceOnUse" x="10" y="10" width="179" height="136">
<path d="M188.686 10H10V145.694H188.686V10Z" fill="white"/>
</mask>
<g mask="url(#mask1_2861_1371)">
<path d="M92.5636 -2.65397C92.3942 -2.35919 91.4302 -2.47357 90.9639 -2.33083C89.6968 -2.16445 88.4298 -1.99809 87.1627 -1.83172C88.0451 5.35684 88.7822 12.5626 89.742 19.7423C88.7713 19.8319 87.7991 19.9069 86.8294 20.0063C86.8169 20.554 87.2728 21.4916 86.3419 21.275C85.3721 21.3602 84.4022 21.4435 83.4322 21.5253C83.3004 21.008 83.5656 19.9879 82.7105 20.3338C80.481 20.554 78.2049 20.7803 75.9915 20.8737C73.9634 19.9661 71.9369 19.0553 69.9081 18.1496C69.7692 18.3653 69.0523 17.7986 68.6963 17.7299C67.3176 17.0955 65.9337 16.4724 64.5547 15.8386C65.6089 13.6105 66.675 11.3882 67.7399 9.16528C66.842 0.327977 65.947 -8.50987 65.0221 -17.3434C70.0721 -17.8683 75.0974 -18.6068 80.15 -19.103C81.7118 -19.2774 83.2728 -19.4588 84.8342 -19.6367C85.1323 -17.3525 85.4424 -15.0699 85.7301 -12.7843C84.7982 -12.1092 83.8662 -11.4341 82.9344 -10.759C84.3555 -9.02666 85.7763 -7.29408 87.1972 -5.56136C87.5205 -6.12931 88.1556 -6.13127 88.7009 -6.24312C89.0334 -6.26738 89.6351 -6.65927 89.8105 -6.12891C89.7873 -5.62554 90.6274 -5.61338 90.9763 -5.33464C91.4843 -5.24718 91.7025 -5.61073 92.1814 -5.14871C92.8286 -5.04236 92.9942 -4.85621 92.9963 -4.24573C92.7064 -3.83572 92.6919 -3.36823 92.6025 -2.89551C92.5895 -2.81472 92.5766 -2.73476 92.5636 -2.65397Z" fill="white" stroke="#424242" stroke-width="0.32538"/>
</g>
<mask id="mask2_2861_1371" style="mask-type:luminance" maskUnits="userSpaceOnUse" x="10" y="10" width="179" height="136">
<path d="M188.686 10H10V145.694H188.686V10Z" fill="white"/>
</mask>
<g mask="url(#mask2_2861_1371)">
<path d="M70.0316 23.4546C69.1644 23.8447 70.6628 24.5843 69.5773 24.6273C68.5305 24.4191 69.8167 25.8186 69.1 25.621C68.5539 25.7611 68.3951 26.0109 67.9763 26.0917C67.8045 26.4085 68.2342 27.0174 67.9197 27.3149C67.6576 27.7258 67.9743 28.252 68.188 28.6132C67.972 29.2682 68.7814 29.463 68.8688 30.0619C68.9776 30.7724 68.905 31.2715 68.9003 31.898C68.6741 33.7663 68.4408 35.6319 68.1621 37.4935C66.8316 36.9577 65.5022 36.4194 64.1633 35.9052C63.9551 36.9004 63.9463 38.0246 63.5972 38.9376C63.0488 39.6004 62.4154 38.5984 61.8239 38.4303C60.062 37.3968 58.2644 36.4254 56.4685 35.4464C56.0242 36.1849 55.5566 36.907 55.127 37.6535C54.309 37.7025 53.4911 37.7515 52.6732 37.8006C52.3343 36.8071 53.1644 36.8232 52.9307 35.9443C52.7593 33.5948 52.5734 31.246 52.3789 28.8985C54.2879 26.3667 55.9138 23.6476 57.5721 20.9486C57.5615 20.3597 56.9472 21.0839 56.4085 20.617C55.8105 20.4204 55.6312 20.0845 55.1269 19.8373C54.7937 19.7285 54.7164 20.3601 54.6249 19.5291C54.1464 19.8786 54.4907 18.8955 54.6076 18.6593C54.6782 18.2459 55.0444 17.8591 54.8413 17.4129C55.5104 17.3445 55.7396 17.424 56.092 17.1576C56.4968 16.8595 56.6153 16.1964 57.2783 16.258C57.1406 13.391 56.7026 10.3926 56.5061 7.47072C55.7713 -1.21827 54.8901 -9.88468 54.0752 -18.5664C55.3599 -17.8915 56.6044 -17.0156 57.9142 -16.4665C60.2814 -16.7592 62.6483 -17.0546 65.0157 -17.3451C65.9407 -8.51065 66.8356 0.327327 67.7335 9.16356C66.6686 11.3865 65.6025 13.6088 64.5483 15.8369C66.3351 16.6542 68.1237 17.4707 69.9146 18.2778C70.0348 19.9847 70.3518 21.7062 70.4902 23.3887C70.3216 23.5212 70.2009 23.3629 70.0316 23.4546Z" fill="white" stroke="#424242" stroke-width="0.32538"/>
</g>
<mask id="mask3_2861_1371" style="mask-type:luminance" maskUnits="userSpaceOnUse" x="10" y="10" width="179" height="136">
<path d="M188.686 10H10V145.694H188.686V10Z" fill="white"/>
</mask>
<g mask="url(#mask3_2861_1371)">
<path d="M114.542 3.44548C114.838 3.91114 114.114 4.29278 114.364 4.72165C114.785 4.86844 115.034 5.39203 115.507 5.45354C116.082 5.24679 115.94 4.66792 115.936 4.19397C116.511 3.97641 116.037 3.45878 116.403 3.13822C116.122 2.7211 116.888 2.91595 117.115 2.96463C117.464 2.84372 118.026 2.64787 118.381 2.88721C118.837 2.4331 118.707 3.33264 118.891 3.54935C119.354 3.85092 118.831 4.45769 119.073 4.67457C118.778 5.11195 119.498 4.84927 119.604 5.20002C120.129 5.26096 120.351 5.79544 120.609 6.15896C120.273 6.5747 121.193 6.94433 120.716 7.34031C120.556 7.73998 120.708 8.25246 120.636 8.71673C120.487 13.6776 120.378 18.6395 120.145 23.5974C120.03 27.0098 119.811 30.4174 119.714 33.8306C118.523 33.8103 117.186 33.8369 116.083 33.796C115.766 33.4042 115.341 33.4635 114.991 33.2156C114.499 33.3216 114.184 33.0475 113.716 33.4655C113.741 33.9876 113.015 33.7316 112.62 33.8155C110.817 33.848 109.014 33.9095 107.211 33.9388C107.542 33.5688 107.43 33.0374 107.358 32.6059C107.724 32.2932 108.33 32.1384 108.17 31.5248C108.222 31.0518 108.761 30.8148 108.733 30.2906C108.706 29.8364 108.802 29.3423 108.996 28.9581C109.495 28.6495 108.782 28.0429 109.245 27.6636C109.12 27.276 109.349 26.9295 109.318 26.5388C109.405 26.0157 109.072 25.7964 108.839 25.4163C108.43 24.8529 109.43 24.4155 108.994 23.8899C108.763 23.6115 108.849 23.3492 109.093 22.9768C108.828 22.5358 109.081 22.081 109.115 21.617C109.14 21.1104 108.733 20.8202 108.558 20.4258C108.374 20.016 109.106 19.8302 108.85 19.3871C108.655 18.9807 108.209 19.0488 108.482 18.4808C108.535 18.0152 109.06 17.6654 108.601 17.2758C108.187 14.5773 107.83 11.869 107.44 9.1671C107.115 8.63223 107.27 8.71371 107.296 8.35583C107.306 8.266 107.31 7.36721 107.778 7.61346C107.69 7.22933 107.947 6.69098 108.046 6.49259C108.34 6.15392 107.592 5.66615 108.326 5.45672C108.692 5.56445 109.2 5.2109 109.202 4.91732C108.883 4.93328 109.716 4.55278 109.624 4.19114C109.98 3.77503 110.305 3.28184 110.597 2.80948C110.765 2.4942 111.375 2.26306 111.357 2.21248C111.701 2.08823 111.831 1.75942 112.026 1.64913C112.342 1.30735 111.891 0.760298 112.286 0.501404C112.511 0.11332 112.416 -0.413468 112.775 -0.665886C112.821 -1.07248 112.916 -1.48002 113.166 -1.84257C113.317 -1.87086 113.231 -2.49805 113.215 -2.81762C112.91 -3.19231 113.716 -3.48606 113.126 -3.70774C112.472 -3.91988 113.397 -4.27809 113.53 -4.54618C113.923 -4.91178 113.985 -5.37068 114.544 -5.30189C115.055 -5.3593 115.567 -5.40985 116.078 -5.46484C116.016 -4.81315 116.928 -4.74268 116.901 -4.10589C117.274 -3.74862 116.844 -3.36144 116.677 -3.01402C116.319 -2.64246 116.389 -2.15277 116.377 -1.69103C116.058 -1.26377 115.683 -0.884514 115.499 -0.37542C115.013 -0.147481 115.319 0.386051 115.086 0.795095C114.854 1.18596 114.929 1.75722 114.486 1.99183C114.048 2.47806 115.037 2.83956 114.625 3.29227C114.597 3.34349 114.57 3.39426 114.542 3.44548Z" fill="white" stroke="#424242" stroke-width="0.32538"/>
</g>
<mask id="mask4_2861_1371" style="mask-type:luminance" maskUnits="userSpaceOnUse" x="10" y="10" width="179" height="136">
<path d="M188.686 10H10V145.694H188.686V10Z" fill="white"/>
</mask>
<g mask="url(#mask4_2861_1371)">
<path d="M112.585 -0.473281C112.363 -0.106867 112.54 0.46208 112.096 0.695192C112.116 0.997346 112.304 1.64189 111.885 1.67656C112.047 2.02329 111.262 2.05045 111.422 2.29829C111.007 2.20134 110.85 2.68019 110.538 2.87202C110.307 3.34661 109.974 3.78262 109.637 4.16966C109.706 4.54421 109.018 4.85666 109.147 4.94687C109.329 5.05847 108.836 5.472 108.533 5.48278C108.208 5.32225 107.695 5.92043 108.123 6.11347C108.235 6.45214 107.924 6.61275 107.829 6.98766C107.872 7.55419 107.682 7.52085 107.404 7.79473C107.319 8.22323 107.229 8.43678 107.323 8.65815C106.972 8.60423 107.568 9.15383 107.483 9.43714C107.859 12.0801 108.213 14.7266 108.617 17.3654C108.148 17.2227 107.631 17.6358 107.219 17.3308C106.72 17.3035 107.211 18.3145 106.607 18.0427C106.281 18.1628 105.78 17.7513 105.838 18.3219C106.243 18.5943 106.489 19.1648 105.881 19.2978C105.435 19.2373 105.721 18.5238 105.319 18.3695C105.088 18.6871 104.78 18.5841 104.493 18.8542C104.081 18.8591 103.351 19.086 103.665 19.6263C103.623 20.0998 103.298 20.4924 102.891 20.741C102.858 21.3179 102.349 21.1956 102.267 20.7063C102.016 20.1692 101.438 19.7614 100.84 19.8885C100.701 20.3654 100.123 19.862 100.281 19.5163C100.101 19.0549 100.737 18.8562 100.608 18.4539C100.411 18.1448 100.923 17.4774 100.496 17.4052C100.026 17.426 100.166 16.7407 99.797 16.5475C99.1377 16.4805 99.8722 15.978 99.5317 15.7526C99.156 15.5321 99.3519 15.0421 98.9142 14.8294C99.0263 14.472 99.1343 14.0158 98.8317 13.6917C98.7716 13.1044 98.3548 13.1793 97.8942 13.2831C94.9451 13.6529 91.9964 14.0228 89.047 14.3923C88.4388 8.98024 87.8015 3.57155 87.1602 -1.83726C95.7356 -2.9743 104.322 -4.02395 112.902 -5.12912C113.259 -5.07352 113.915 -5.42157 114.087 -5.1003C113.653 -4.85911 113.5 -4.30604 113.046 -4.13428C112.513 -3.70489 113.482 -3.7881 113.369 -3.34759C112.898 -3.15637 113.403 -2.62206 113.238 -2.25363C113.336 -1.79005 113.121 -1.87779 112.953 -1.43042C112.692 -1.13125 113.011 -0.618084 112.585 -0.473281Z" fill="white" stroke="#424242" stroke-width="0.32538"/>
</g>
<mask id="mask5_2861_1371" style="mask-type:luminance" maskUnits="userSpaceOnUse" x="10" y="10" width="179" height="136">
<path d="M188.686 10H10V145.694H188.686V10Z" fill="white"/>
</mask>
<g mask="url(#mask5_2861_1371)">
<path d="M30.0931 14.1993C29.9434 15.1945 28.6308 16.5368 30.0501 16.8737C30.0146 18.1553 29.7692 19.4991 29.68 20.8088C29.4543 21.8547 29.671 23.5067 29.1743 24.1714C28.3511 24.1897 27.9098 23.8489 27.5338 23.2901C26.7417 23.6989 25.9292 22.5113 25.1765 23.174C24.4539 22.3852 23.5838 21.9984 22.5309 22.0965C22.0176 21.4035 23.5201 21.6237 22.3409 21.3521C21.3177 20.5065 19.8502 20.5299 18.9056 19.5207C18.0784 18.0914 17.6603 20.2831 18.3254 20.8536C18.9569 21.9137 17.1494 22.3704 16.7257 21.1848C16.6858 20.4725 15.3209 20.0605 16.2143 21.0223C16.4935 21.9003 15.3794 22.6123 15.2822 21.3622C14.0905 20.1522 12.0654 20.9855 10.5214 20.8656C9.6357 20.9374 8.30914 21.2346 8.71904 19.8736C7.73109 19.2516 5.93248 19.8822 4.64714 19.7491C4.0412 18.8448 4.42246 16.8524 4.18863 15.5259C4.38237 14.1997 3.26898 12.2591 4.87915 11.6366C5.94461 10.9851 6.95124 9.94314 8.14118 9.84681C9.20591 8.91743 10.2651 7.59147 11.7864 7.44731C13.1061 7.44767 14.4315 8.64526 15.8344 7.66204C17.1051 7.4808 18.0575 6.64371 18.2364 5.33939C18.5576 3.78052 18.5995 2.15018 18.4242 0.576936C19.3208 0.155748 20.6929 0.669059 21.7676 0.642009C22.5891 0.510655 24.3041 1.31668 24.5697 0.606832C24.5413 0.123318 24.5128 -0.360182 24.4844 -0.84375C27.3698 -0.513382 30.2682 -0.316263 33.1571 -0.0214848C33.4741 3.28004 33.6499 6.59326 33.7933 9.90621C32.781 9.64443 31.4569 8.78629 31.4017 10.3788C30.9655 11.6523 30.5285 12.9255 30.0931 14.1993Z" fill="white" stroke="#424242" stroke-width="0.32538"/>
</g>
<mask id="mask6_2861_1371" style="mask-type:luminance" maskUnits="userSpaceOnUse" x="10" y="10" width="179" height="136">
<path d="M188.686 10H10V145.694H188.686V10Z" fill="white"/>
</mask>
<g mask="url(#mask6_2861_1371)">
<path d="M54.835 18.1123C54.6601 18.3878 54.4999 18.7967 54.4869 19.1326C54.1513 19.6225 54.6152 19.5384 54.6705 19.6876C54.7227 20.6061 54.9202 19.2671 55.2072 19.9256C55.7333 19.9234 55.6574 20.4713 56.1968 20.4869C56.5773 20.822 57.0819 20.8747 57.4922 20.6181C57.5599 20.9323 57.401 21.3279 57.0527 21.785C55.7195 23.9597 54.4091 26.1481 52.8818 28.1938C52.6308 28.5608 52.2408 28.8903 52.4272 29.3762C52.6108 31.8175 52.8203 34.2571 52.987 36.6998C52.5202 36.7949 51.9065 36.6779 51.5283 36.9064C51.2671 37.3293 50.6006 37.0371 50.1654 37.1672C48.3876 37.2522 46.6102 37.3691 44.8337 37.4875C44.7504 36.4303 44.6601 35.3736 44.5913 34.3153C43.4377 34.3349 42.2846 34.3624 41.1291 34.3759C41.1209 32.7703 40.9401 31.1692 40.8305 29.5678C40.3186 29.6044 39.806 29.63 39.2942 29.6673C39.4516 29.2864 38.7683 28.9725 39.0518 28.7888C39.531 28.2481 38.5804 28.4384 38.4416 27.9925C38.1703 27.8336 37.6152 27.787 37.7838 27.2654C37.846 26.9224 37.754 26.5911 37.4116 26.4388C37.5324 25.8841 36.6878 26.2745 36.6876 25.7965C36.1251 25.8555 36.5115 25.4425 36.1026 25.3123C35.9509 24.6829 35.3921 25.3746 35.4678 24.6028C35.3665 24.3143 34.9549 24.0636 34.6376 23.9634C34.3187 23.6393 33.8662 24.4315 33.5895 23.7114C33.1893 23.3263 32.8159 23.6015 32.5473 23.9374C32.1372 24.1627 31.6479 23.7738 31.212 24.0314C30.7162 23.8364 30.3804 24.2778 30.1016 24.5658C29.6903 24.5559 29.1657 24.1724 29.4042 23.6677C29.6155 21.3668 29.8417 19.0675 30.0935 16.7708C29.3783 16.6911 29.1177 16.3856 29.5371 15.7425C30.3039 13.604 31.0239 11.4492 31.7639 9.30119C35.0107 10.2627 38.2568 11.2211 41.497 12.2007C46.3516 9.18686 51.2697 6.28059 56.1546 3.32031C56.4316 6.38995 56.6412 9.46523 56.9802 12.5274C57.0931 13.7673 57.2059 15.0072 57.3187 16.2472C56.7843 16.2473 56.4723 16.56 56.2801 17.0262C55.8219 17.1193 55.9009 17.5335 55.4665 17.3119C54.7055 17.4264 54.9451 17.406 54.835 18.1123Z" fill="white" stroke="#424242" stroke-width="0.32538"/>
</g>
<mask id="mask7_2861_1371" style="mask-type:luminance" maskUnits="userSpaceOnUse" x="10" y="10" width="179" height="136">
<path d="M188.686 10H10V145.694H188.686V10Z" fill="white"/>
</mask>
<g mask="url(#mask7_2861_1371)">
<path d="M8.86571 22.8672C8.89854 23.4544 8.93287 24.0416 8.96957 24.6285C8.25713 24.5121 8.66433 25.1156 8.82243 25.454C8.84497 25.7451 9.27495 26.555 8.78857 26.5087C8.38524 26.2199 7.90147 26.6506 8.07725 27.0909C8.17175 28.4056 8.24891 29.7215 8.31609 31.0378C8.72294 31.0836 9.50826 30.7132 9.33434 31.403C9.46104 33.6937 9.60865 35.9833 9.73989 38.2737C10.8211 38.2067 11.904 38.1649 12.9857 38.1049C13.934 39.0977 15.1468 39.8677 15.7605 41.1395C15.9429 42.3916 15.9012 43.6995 15.9977 44.9729C16.049 46.1053 16.1059 47.2375 16.1535 48.3701C13.9253 48.4481 11.7038 48.5131 9.47587 48.5951C9.64451 47.9782 8.95744 48.2804 8.60432 48.2361C7.09852 48.2894 5.5938 48.3669 4.08786 48.4307C3.9465 48.0965 3.20823 48.4274 2.84258 48.3461C2.22822 48.5892 2.13207 48.0626 2.01923 47.5878C1.77025 46.7755 1.63715 45.854 0.895549 45.321C0.0393062 44.7487 -0.0720978 43.6839 -0.146904 42.7462C-0.215512 41.8312 -0.516435 40.8017 0.0963244 40.0022C0.454677 39.3568 0.649002 38.6017 0.38335 37.8885C0.587536 36.83 -0.359621 36.0097 -0.238195 34.9645C-0.24545 34.4107 0.0797858 33.8393 -0.252827 33.3314C-0.138117 32.9243 -0.220755 32.5438 0.153973 32.2582C-0.0860979 31.7615 0.594441 31.5845 0.368477 31.0847C0.344307 30.6781 0.984743 30.4604 0.57097 30.0215C0.304728 29.5055 0.568417 28.9001 0.526147 28.3719C0.841374 28.084 1.12381 27.781 1.01188 27.2914C0.851128 24.405 0.774898 21.5136 0.565096 18.6303C0.41633 17.9531 0.455584 17.1006 0.376266 16.357C0.272777 15.8617 0.298346 15.4756 0.910215 15.6227C1.50891 15.6076 1.8414 14.9409 2.20323 14.5402C2.70542 13.8215 2.99615 12.8807 3.72032 12.363C4.16034 11.9815 3.95941 12.7816 4.0363 13.0505C4.18454 15.2795 4.29125 17.5111 4.3995 19.7425C5.82832 19.6808 7.25794 19.612 8.68823 19.604C8.74258 20.6919 8.79076 21.7804 8.86571 22.8672Z" fill="white" stroke="#424242" stroke-width="0.32538"/>
</g>
<mask id="mask8_2861_1371" style="mask-type:luminance" maskUnits="userSpaceOnUse" x="10" y="10" width="179" height="136">
<path d="M188.686 10H10V145.694H188.686V10Z" fill="white"/>
</mask>
<g mask="url(#mask8_2861_1371)">
<path d="M100.29 19.2549C100.199 19.5921 100.336 20.2081 100.749 20.0425C100.932 19.7161 101.443 19.8861 101.72 20.0578C102.15 20.2976 102.244 20.8148 102.558 21.1504C102.89 21.1189 102.9 20.5437 103.286 20.4107C103.577 20.1494 103.755 19.6965 103.592 19.3241C103.695 18.8147 104.384 18.9739 104.708 18.7399C104.948 18.6426 105.244 18.3189 105.49 18.4943C105.581 18.7763 105.633 19.5346 106.078 19.2234C106.593 18.8621 105.992 18.5974 105.826 18.247C105.872 17.7687 106.374 18.1235 106.665 18.0907C107.251 18.1522 106.703 17.319 107.223 17.3247C107.641 17.657 108.233 17.1403 108.666 17.4137C109.08 17.7198 108.465 18.0315 108.515 18.4238C108.347 18.8209 108.395 19.0648 108.745 19.1888C109.056 19.5156 108.813 19.9197 108.547 20.1637C108.42 20.6105 108.915 20.7604 109.009 21.1315C109.16 21.4987 109.186 21.8627 108.999 22.2193C108.807 22.5944 109.342 22.927 108.955 23.285C108.573 23.6245 109.133 23.746 109.11 24.1216C109.197 24.5429 108.558 24.8365 108.798 25.2963C108.792 25.7296 109.383 25.7603 109.287 26.1906C109.362 26.5697 109.343 26.8948 109.196 27.2481C109.493 27.6238 108.884 27.9712 109.132 28.3753C109.419 28.8053 108.78 28.971 108.866 29.3991C108.619 29.8921 108.877 30.5196 108.492 30.9718C108.053 31.217 108.259 31.7615 108.08 32.1211C107.781 32.3546 107.149 32.495 107.424 32.9906C107.538 33.4631 107.326 34.1579 106.721 34.0643C106.269 34.2714 106.189 34.7832 105.837 35.1007C105.385 35.6435 105.486 36.4271 105.911 36.9465C105.898 37.3494 105.77 37.7135 105.937 38.0934C105.92 38.5689 106.259 38.9372 106.34 39.3975C106.435 39.7445 106.484 40.274 106.063 40.4048C105.822 40.6298 105.933 41.1209 105.62 41.2006C105.481 41.6057 105.084 41.4192 104.873 41.153C104.624 40.8632 104.589 40.4793 104.275 40.2322C104.538 39.9629 104.147 39.7535 104.198 39.4176C103.791 39.1681 103.515 39.7478 103.351 40.0447C103.205 40.4089 102.869 40.6501 102.674 40.9929C102.408 40.7785 101.99 40.5532 101.806 41.0597C101.597 41.467 101.038 41.3226 100.699 41.2114C100.514 40.8826 100.338 40.581 100.018 40.3303C99.6612 39.8104 99.428 39.1762 98.8919 38.8031C98.853 38.3253 98.7602 37.9186 98.2015 38.0374C98.1045 37.1277 98.0275 36.2092 97.8965 35.3021C97.2436 35.2622 96.7022 35.6814 96.1352 35.9339C95.7513 35.6709 95.6583 35.1562 95.2169 34.9396C94.66 34.3934 93.9594 34.0477 93.2686 33.7327C92.7497 33.2501 92.0187 33.3713 91.3705 33.2853C90.6 26.984 89.8975 20.6784 89.0508 14.3863C92.2466 13.988 95.4405 13.5812 98.6367 13.1875C98.7442 13.6408 99.2129 14.0678 98.9827 14.5533C98.7081 14.9761 99.4984 15.1003 99.3032 15.5721C99.8831 15.7535 99.4679 16.1055 99.5376 16.4113C99.885 16.5347 100.051 16.8297 100.171 17.1445C100.329 17.5314 100.906 17.3485 100.61 17.9575C100.52 18.35 100.794 18.7624 100.355 19.0223C100.332 19.0987 100.275 19.1711 100.29 19.2549Z" fill="#ED232A" stroke="#424242" stroke-width="0.32538"/>
</g>
<mask id="mask9_2861_1371" style="mask-type:luminance" maskUnits="userSpaceOnUse" x="10" y="10" width="179" height="136">
<path d="M188.686 10H10V145.694H188.686V10Z" fill="white"/>
</mask>
<g mask="url(#mask9_2861_1371)">
<path d="M90.1594 23.2292C90.5143 26.1713 90.859 29.1163 91.2197 32.0576C87.6932 32.0425 84.1672 31.9617 80.6404 31.9754C79.4635 31.9692 78.1678 31.9626 76.9429 31.9522C76.3657 31.9363 75.7711 32.0234 75.2424 31.7375C72.9436 30.8483 70.6261 30.0025 68.3199 29.1352C68.037 28.9344 68.3036 28.5799 68.0552 28.4007C67.8282 28.2094 68.0255 27.8456 67.7852 27.6391C67.7815 27.3128 68.2677 27.2077 68.0009 26.8465C67.8686 26.6072 68.0868 26.3516 67.9323 26.133C68.1249 26.0449 68.5046 26.1758 68.3305 25.8431C68.6544 25.8469 68.9074 25.7581 69.134 25.62C69.5644 25.788 69.2331 25.3303 69.188 25.1151C68.9447 24.6765 69.3582 24.7147 69.6122 24.596C69.9636 24.5211 70.2361 24.4355 69.8376 24.1018C69.5169 23.8771 69.9446 23.3708 70.252 23.4239C70.6639 23.5419 70.4591 22.9748 70.4401 22.7309C70.2387 21.206 70.0368 19.6812 69.9058 18.1484C71.9654 19.0679 74.0227 19.9924 76.0814 20.9138C77.6417 20.7582 79.2247 20.6759 80.7914 20.5188C81.6272 20.47 82.456 20.3342 83.2914 20.2992C83.3375 20.7075 83.3837 21.1157 83.4299 21.524C84.6015 21.4258 85.7727 21.3233 86.9439 21.221C86.905 20.8157 86.866 20.4103 86.8271 20.005C87.7968 19.9057 88.769 19.8305 89.7397 19.741C89.8828 20.9033 90.0312 22.0672 90.1594 23.2292Z" fill="white" stroke="#424242" stroke-width="0.32538"/>
</g>
<mask id="mask10_2861_1371" style="mask-type:luminance" maskUnits="userSpaceOnUse" x="10" y="10" width="179" height="136">
<path d="M188.686 10H10V145.694H188.686V10Z" fill="white"/>
</mask>
<g mask="url(#mask10_2861_1371)">
<path d="M23.4042 22.2307C23.9322 21.8102 24.361 22.8663 24.9666 22.8669C25.2373 23.4298 25.6997 22.7736 25.823 23.4787C26.4171 23.4608 26.1683 24.9446 26.3041 24.9564C26.5519 25.3647 27.449 24.9411 26.7604 25.5565C27.1048 26.1521 26.297 25.8372 26.2358 26.5349C25.8864 27.6003 27.4335 27.3282 28.0433 27.1792C28.458 28.2076 28.2334 29.5364 28.3924 30.6805C28.5731 33.9908 28.7008 37.3119 28.9518 40.6132C28.068 41.0822 26.7015 40.8367 25.6369 41.0222C24.4529 41.1279 23.2399 41.0997 22.0848 41.3151C20.0031 41.408 17.9223 41.5797 15.8394 41.6751C15.6913 40.3797 14.4867 39.5698 13.6107 38.7265C12.8166 37.6102 11.3084 38.4042 10.1472 38.2669C9.28262 38.286 9.86079 36.6826 9.60722 36.0107C9.50553 34.3389 9.40075 32.6671 9.31754 30.9943C8.44803 31.3204 8.13129 30.7658 8.2613 29.9648C8.20072 28.891 8.12298 27.8182 8.0625 26.7445C8.33581 26.1511 9.43664 26.8901 8.91736 25.838C8.80744 25.2375 8.29972 24.754 8.9649 24.4685C8.88689 23.294 8.81657 22.1172 8.75494 20.9411C10.5633 20.9101 12.3738 20.6729 14.178 20.7605C15.1474 20.5458 15.2687 21.8754 15.8505 22.0724C16.6562 21.6469 15.9144 20.726 15.9596 20.3865C16.782 20.6582 16.7557 21.7484 17.6594 21.9795C18.2404 22.1185 17.9768 21.2455 18.5736 21.5027C18.2986 20.7987 17.8836 20.2937 18.0436 19.4721C18.2164 18.2126 19.1045 19.9877 19.6724 20.1497C20.7553 20.451 21.6476 20.9141 22.5549 21.4254C22.8848 21.4261 22.9648 21.6769 22.4667 21.5799C22.1999 22.3701 22.9657 22.1228 23.4042 22.2307Z" fill="white" stroke="#424242" stroke-width="0.32538"/>
</g>
<mask id="mask11_2861_1371" style="mask-type:luminance" maskUnits="userSpaceOnUse" x="10" y="10" width="179" height="136">
<path d="M188.686 10H10V145.694H188.686V10Z" fill="white"/>
</mask>
<g mask="url(#mask11_2861_1371)">
<path d="M32.6862 23.813C33.2937 22.8603 33.8242 24.5526 34.4347 23.867C35.0755 23.9964 35.5277 24.5284 35.6269 25.029C36.2306 25.0211 36.6167 26.2039 37.3063 26.246C38.1458 26.6763 37.3608 27.9082 38.4462 27.9935C38.6356 28.4303 39.5487 28.2975 38.9936 28.9275C39.0557 30.1295 40.2969 29.3167 40.8747 29.7367C40.9178 31.2832 41.1454 32.8257 41.1338 34.3769C42.2324 34.4947 43.8193 34.0672 44.6091 34.5147C44.8023 35.4345 44.526 36.9173 45.0428 37.4751C47.1562 37.3372 49.2695 37.1921 51.3861 37.1162C51.5584 37.7691 51.4626 38.4079 51.5387 38.9981C51.2576 39.6803 51.5848 41.228 50.4962 41.6741C50.412 42.8975 49.1275 43.0357 48.1445 43.0093C47.1483 43.0735 46.1515 43.1323 45.1541 43.175C44.6823 42.4384 43.0636 43.2079 42.1617 43.0331C37.8283 43.2631 33.4957 43.5092 29.1675 43.8241C28.7577 38.3467 28.5145 32.8588 28.2197 27.3743C27.7557 26.9214 26.0191 27.858 26.1879 26.629C26.331 26.0849 26.6313 25.9576 26.8674 25.8239C26.53 25.4536 27.5027 25.012 26.5752 25.1213C25.7248 25.1795 26.7714 23.4778 25.653 23.3628C25.4494 22.4077 26.1587 23.4932 26.6611 23.0898C26.8883 23.9264 27.8901 22.7478 27.9208 23.8389C28.636 24.0698 29.5768 24.3838 30.1955 24.5018C30.6876 23.5212 32.042 24.3375 32.6862 23.813Z" fill="white" stroke="#424242" stroke-width="0.32538"/>
</g>
<mask id="mask12_2861_1371" style="mask-type:luminance" maskUnits="userSpaceOnUse" x="10" y="10" width="179" height="136">
<path d="M188.686 10H10V145.694H188.686V10Z" fill="white"/>
</mask>
<g mask="url(#mask12_2861_1371)">
<path d="M88.9539 32.0352C89.7097 32.0548 90.4656 32.0573 91.2216 32.0525C91.3637 33.3285 91.5496 34.6252 91.6846 35.8781C91.3321 36.2516 90.8149 36.4784 90.3992 36.7955C88.8255 37.7957 87.2534 38.7987 85.6907 39.8163C85.9746 40.1403 85.3714 40.2701 85.4595 40.5073C85.155 40.695 84.8261 41.0118 84.4657 41.1C82.8698 41.0928 81.29 41.3591 79.7031 41.4998C79.277 41.5251 78.8239 41.6988 78.4548 41.3994C77.311 40.8537 76.1892 40.2523 75.026 39.7552C73.6644 39.3858 72.262 39.1389 70.9643 38.5684C70.0346 38.2021 69.0966 37.8559 68.168 37.488C68.4742 35.4467 68.723 33.4 68.9729 31.3513C68.7208 31.2321 69.0588 30.7622 68.9421 30.4823C68.9202 30.0354 68.7843 29.5004 68.3065 29.3562C68.1648 28.888 68.7691 29.3376 68.992 29.3724C71.1916 30.214 73.4051 31.0201 75.6043 31.8622C76.1294 32.0299 76.7078 31.9025 77.2551 31.9495C78.2926 31.9574 79.3302 31.9631 80.3677 31.9701C80.8946 31.9662 81.5413 31.9708 82.1164 31.9748C84.3959 31.9718 86.6747 32.0074 88.9539 32.0352Z" fill="white" stroke="#424242" stroke-width="0.32538"/>
</g>
<mask id="mask13_2861_1371" style="mask-type:luminance" maskUnits="userSpaceOnUse" x="10" y="10" width="179" height="136">
<path d="M188.686 10H10V145.694H188.686V10Z" fill="white"/>
</mask>
<g mask="url(#mask13_2861_1371)">
<path d="M111.612 54.2782C108.842 54.759 106.049 55.0856 103.263 55.4684C102.868 55.5189 102.473 55.5693 102.078 55.6198C101.795 54.6948 102.259 53.783 102.771 53.0361C103.051 52.3781 103.018 51.6519 103.173 50.9631C103.257 50.2295 102.649 49.5596 102.909 48.8252C103.243 48.0568 103.236 47.0918 103.938 46.5292C104.256 45.992 104.578 45.4509 104.891 44.9086C104.785 44.4361 104.993 43.9568 105.125 43.5151C105.508 43.2126 105.327 42.6705 105.504 42.271C105.506 41.6617 105.859 41.1306 105.943 40.5376C106.133 40.3298 106.498 40.1952 106.393 39.8347C106.376 39.3586 106.186 38.8939 105.977 38.4725C105.986 38.1243 105.787 37.7982 105.859 37.4684C105.984 37.1137 105.857 36.7955 105.658 36.5131C105.448 36.095 105.515 35.5571 105.782 35.1699C106.027 34.8936 106.222 34.5911 106.41 34.2884C106.633 34.0205 106.99 34.0666 107.274 33.9411C109.387 33.9009 111.509 33.8403 113.616 33.7907C113.569 33.4183 113.99 33.4225 114.217 33.1719C114.521 33.2603 114.725 33.3012 115.079 33.2325C115.3 33.493 115.594 33.3406 115.839 33.6045C116.082 33.8746 116.332 33.8335 116.707 33.8167C117.711 33.8194 118.714 33.8284 119.718 33.834C119.686 35.5048 119.62 37.1752 119.566 38.8454C119.184 38.6201 119.276 39.3935 119.341 39.6107C119.496 39.9453 118.986 40.2145 119.199 40.5614C119.348 41.3122 119.496 42.063 119.644 42.8139C120.228 42.6562 119.934 43.1543 119.85 43.4954C118.902 46.8428 117.956 50.1904 117.009 53.5378C115.205 53.7471 113.411 54.0307 111.612 54.2782Z" fill="#ED232A" stroke="#424242" stroke-width="0.32538"/>
</g>
<mask id="mask14_2861_1371" style="mask-type:luminance" maskUnits="userSpaceOnUse" x="10" y="10" width="179" height="136">
<path d="M188.686 10H10V145.694H188.686V10Z" fill="white"/>
</mask>
<g mask="url(#mask14_2861_1371)">
<path d="M98.1199 37.3272C98.1419 37.5641 98.168 37.8005 98.1935 38.037C98.3912 38.1512 98.752 37.9094 98.7724 38.2319C98.8436 38.5099 98.8114 38.8494 99.1118 38.9912C99.4809 39.323 99.6337 39.8154 99.9435 40.195C100.009 40.5091 100.349 40.5651 100.509 40.8067C100.449 41.122 100.757 41.3142 101.038 41.2968C101.423 41.3769 100.986 41.593 100.769 41.5503C98.8362 41.89 96.8865 42.1082 94.9556 42.4745C92.7545 42.8389 90.5465 43.1615 88.348 43.5418C88.3028 43.806 88.2582 44.0702 88.2095 44.3338C87.8721 44.3685 87.5317 44.466 87.2098 44.308C86.9011 44.2199 86.5924 44.1319 86.2836 44.0438C86.1344 44.2505 85.7878 44.1416 85.5553 44.2151C85.2652 44.2949 85.1128 44.253 85.1727 44.0143C84.8781 44.0941 84.8193 43.7174 84.6391 43.5634C84.4263 43.2461 84.1312 42.9767 83.9727 42.6287C84.1548 42.3934 84.5273 42.3301 84.8201 42.3257C85.0486 42.3178 85.2673 42.2759 85.4787 42.369C85.6847 42.3041 85.8901 42.0356 85.8594 41.8244C85.665 41.5491 85.8585 41.2516 86.011 41.0188C85.9186 40.8273 85.828 40.4356 85.5393 40.5773C85.2347 40.3821 85.6537 40.2934 85.7243 40.1093C85.704 39.8437 85.7184 39.7197 86.0038 39.606C87.8708 38.3737 89.7866 37.217 91.637 35.9596C91.7449 35.7 91.5758 35.3579 91.5964 35.0785C91.5068 34.4823 91.4406 33.883 91.3644 33.2852C91.8106 33.3316 92.2717 33.3345 92.7087 33.4127C93.0883 33.5582 93.3655 33.8763 93.7706 33.9603C94.2608 34.2015 94.7358 34.5058 95.1426 34.8822C95.4002 35.1038 95.7044 35.2876 95.8177 35.6264C95.9485 35.8518 96.1794 36.0356 96.4032 35.8015C96.8672 35.5543 97.3476 35.2727 97.8906 35.3019C97.975 35.976 98.072 36.6479 98.1199 37.3272Z" fill="#ED232A" stroke="#424242" stroke-width="0.32538"/>
</g>
<mask id="mask15_2861_1371" style="mask-type:luminance" maskUnits="userSpaceOnUse" x="10" y="10" width="179" height="136">
<path d="M188.686 10H10V145.694H188.686V10Z" fill="white"/>
</mask>
<g mask="url(#mask15_2861_1371)">
<path d="M70.0151 38.2059C71.0247 38.6604 72.7668 38.7686 71.7469 40.1512C71.143 41.6868 71.6279 43.3147 72.0516 44.8241C72.162 46.1507 73.1248 47.5861 72.4391 48.8502C71.6796 50.3517 70.9279 51.8925 69.8888 53.2169C68.6293 53.2041 67.5474 54.0738 66.1996 53.5248C64.728 53.2382 63.6397 54.657 62.3604 55.1855C62.0991 54.9067 60.9255 54.9242 60.8454 55.8635C60.5576 56.8965 59.9934 56.6692 59.3309 56.1575C59.7525 57.996 57.4108 56.6767 56.5982 57.7249C55.7179 58.405 55.3829 59.3095 54.3191 59.5908C53.8029 60.0226 52.7596 60.8528 53.3365 59.5696C52.5174 59.7742 51.7075 60.2686 50.7515 60.1904C50.3192 61.3031 49.0737 62.561 47.7558 62.2633C46.9367 62.1341 46.1962 62.4826 45.6406 62.2764C46.2364 61.3697 46.4038 60.4839 45.9508 59.4722C45.9961 58.4951 47.5836 58.163 46.6576 57.0675C46.5482 56.0585 45.7355 55.1641 46.1912 54.2213C46.0569 53.4114 46.1524 53.6713 46.6484 53.207C46.6097 52.0093 47.7826 51.5381 48.5093 50.8253C49.047 49.9063 47.6727 49.2105 48.6991 48.4892C48.8906 47.4383 48.0459 46.108 49.1529 45.2417C49.7761 44.1757 49.5072 42.9295 50.3455 42.1187C50.7456 41.3221 51.4746 40.8473 51.4128 39.759C51.5513 39.1415 51.489 37.9742 51.4764 36.9462C52.2794 36.4023 52.861 36.9384 52.7452 37.7455C53.7716 37.6817 55.2851 38.0742 55.6485 36.7784C56.1002 36.081 56.4292 34.9523 57.3182 35.9052C59.2955 36.9811 61.2614 38.0783 63.1947 39.2316C64.4401 38.7 63.4397 36.0565 64.5311 36.0445C66.3639 36.7529 68.1739 37.519 70.0151 38.2059Z" fill="white" stroke="#424242" stroke-width="0.32538"/>
</g>
<mask id="mask16_2861_1371" style="mask-type:luminance" maskUnits="userSpaceOnUse" x="10" y="10" width="179" height="136">
<path d="M188.686 10H10V145.694H188.686V10Z" fill="white"/>
</mask>
<g mask="url(#mask16_2861_1371)">
<path d="M85.7531 42.1496C85.5845 42.5419 85.1999 42.2306 84.8983 42.3313C84.5824 42.3254 84.1737 42.3788 83.9744 42.6343C84.2442 43.1345 84.6646 43.5493 84.9784 44.0235C85.3216 44.0102 85.1316 44.4189 85.6573 44.2093C86.0596 44.2329 86.3136 43.9649 86.6791 44.1617C87.1439 44.2871 87.6011 44.4996 88.0869 44.3538C88.3961 44.3429 88.201 43.6097 88.3896 43.5902C88.6026 43.8654 89.0291 44.0736 88.8406 44.4747C88.7228 45.023 88.7198 45.5771 88.7477 46.1326C88.6246 46.8503 88.3242 47.5175 87.9656 48.1429C87.932 48.4866 87.806 48.7805 87.5519 49.0328C87.3596 49.3989 86.9255 49.66 86.9648 50.1167C86.703 50.355 86.3869 50.5626 86.4057 50.9591C86.4101 51.2754 86.2066 51.5614 86.3304 51.8782C86.4245 52.2226 86.6061 52.5685 86.7787 52.8541C86.7755 53.4471 86.8865 54.1116 86.4512 54.5898C86.3258 54.9062 86.2299 55.2323 86.0839 55.5237C85.9422 56.253 85.6922 56.9491 85.4198 57.6383C85.3368 58.1386 85.5916 58.1535 85.8147 58.2887C85.9168 58.7182 86.0188 59.1476 86.1209 59.5771C85.8094 59.253 85.3362 59.6258 85.2464 59.9849C85.0138 60.3533 84.5093 60.3019 84.1493 60.2695C83.8352 60.5453 83.6757 60.3446 83.3425 60.3647C83.1031 60.5487 82.7183 60.4405 82.5307 60.4702C82.2928 60.1641 81.953 59.9271 81.5681 59.8757C81.379 59.556 80.9466 60.0224 80.6492 60.0421C80.1781 60.2237 79.7053 60.4005 79.2355 60.5854C77.2266 59.5111 75.1835 58.494 73.1754 57.4231C72.0807 56.0324 71.0341 54.5935 69.957 53.1851C70.6753 52.052 71.4467 50.9493 71.9957 49.7197C72.2286 49.2008 72.5618 48.6983 72.7479 48.1764C72.5301 46.6333 72.098 45.1306 71.7517 43.6131C71.5429 42.9482 71.3846 42.2641 71.4931 41.5637C71.4962 41.0224 71.5843 40.4987 71.807 40.0028C71.952 39.7042 71.9958 39.217 72.2035 39.0352C73.2273 39.3208 74.281 39.5253 75.2869 39.8582C76.4781 40.4244 77.6572 41.0113 78.8418 41.5912C80.4801 41.4374 82.114 41.2033 83.7563 41.1134C84.1819 41.102 84.637 41.1778 84.9639 40.8427C85.2347 40.6543 85.5383 40.4015 85.8123 40.6294C86.1256 40.9196 85.9299 41.1861 85.7748 41.4873C85.769 41.7468 85.9969 41.9165 85.7531 42.1496Z" fill="white" stroke="#424242" stroke-width="0.32538"/>
</g>
<mask id="mask17_2861_1371" style="mask-type:luminance" maskUnits="userSpaceOnUse" x="10" y="10" width="179" height="136">
<path d="M188.686 10H10V145.694H188.686V10Z" fill="white"/>
</mask>
<g mask="url(#mask17_2861_1371)">
<path d="M105.627 41.5937C105.504 41.9308 105.516 42.302 105.419 42.6368C105.389 42.9543 105.396 43.2997 105.125 43.5109C104.992 43.9522 104.786 44.4321 104.892 44.9043C104.592 45.4401 104.258 45.9572 103.966 46.4969C103.365 46.9594 103.266 47.736 103.052 48.4095C102.822 48.884 102.796 49.413 102.969 49.9114C103.265 50.4925 103.19 51.1645 103.026 51.7766C103.037 52.4243 102.816 53.0394 102.445 53.5624C102.075 54.1754 101.87 54.909 102.079 55.6153C99.8878 55.829 97.7557 56.4406 95.5665 56.6807C93.3775 56.9755 91.2033 57.3702 89.0182 57.6879C87.8376 57.8691 86.6531 58.0255 85.4732 58.2119C85.3918 57.8242 85.4335 57.4531 85.6196 57.1015C85.8918 56.5345 85.9492 55.8778 86.1695 55.3098C86.363 55.0116 86.3506 54.5895 86.6287 54.3209C86.8764 53.8541 86.7608 53.3024 86.7802 52.7893C86.5056 52.4453 86.3037 51.9714 86.2891 51.5331C86.442 51.214 86.3467 50.822 86.5318 50.5134C86.814 50.3052 87.0085 50.0753 87.0434 49.7332C87.3095 49.3252 87.6599 48.9457 87.8977 48.5264C87.9011 47.9429 88.4126 47.5392 88.5115 46.9755C88.7598 46.4448 88.7875 45.8674 88.7233 45.2938C88.7513 44.8939 88.9033 44.4551 88.8535 44.0796C88.7349 43.8689 88.0535 43.4699 88.63 43.492C91.4179 43.0293 94.213 42.6083 96.9979 42.1303C98.4 41.9344 99.7895 41.7111 101.187 41.4854C101.143 41.1487 101.74 41.4634 101.806 41.0552C101.938 40.7039 102.353 40.6082 102.552 40.9595C102.846 41.0604 102.889 40.4774 103.16 40.3752C103.434 40.0274 103.522 39.4249 104.04 39.3359C104.262 39.4505 104.313 39.8832 104.353 40.0733C104.069 40.3718 104.74 40.4952 104.659 40.8273C104.765 41.123 105.074 41.3907 105.381 41.4725C105.521 41.28 105.89 40.882 105.708 41.37C105.681 41.4445 105.654 41.5191 105.627 41.5937Z" fill="#ED232A" stroke="#424242" stroke-width="0.32538"/>
</g>
<mask id="mask18_2861_1371" style="mask-type:luminance" maskUnits="userSpaceOnUse" x="10" y="10" width="179" height="136">
<path d="M188.686 10H10V145.694H188.686V10Z" fill="white"/>
</mask>
<g mask="url(#mask18_2861_1371)">
<path d="M24.5865 58.1439C24.6209 57.8037 24.1101 58.0552 23.8886 57.9926C21.4498 58.0671 19.0105 58.1331 16.5716 58.2088C16.3213 52.6999 16.1191 47.1888 15.8359 41.681C18.0813 41.5678 20.3249 41.4087 22.5699 41.2828C22.6927 41.1151 23.1122 41.227 23.35 41.1676C25.2164 41.0635 27.0815 40.9362 28.9445 40.7852C29.2951 45.5064 29.569 50.2332 29.8859 54.9564C29.9454 55.9175 29.9793 56.8799 30.0524 57.8401C28.2328 57.9761 26.4103 58.0843 24.5865 58.1439Z" fill="white" stroke="#424242" stroke-width="0.32538"/>
</g>
<mask id="mask19_2861_1371" style="mask-type:luminance" maskUnits="userSpaceOnUse" x="10" y="10" width="179" height="136">
<path d="M188.686 10H10V145.694H188.686V10Z" fill="white"/>
</mask>
<g mask="url(#mask19_2861_1371)">
<path d="M48.6214 48.0019C48.7168 48.3649 48.8383 48.6619 48.3142 48.8414C48.2167 49.1479 48.2915 49.4861 48.3748 49.7805C48.96 49.7204 48.4993 50.1935 48.6388 50.4278C48.415 50.5764 48.6408 50.9966 48.3185 51.1178C48.0656 51.2895 47.6763 51.589 47.3924 51.5765C47.0636 51.6677 47.2828 52.3026 46.9143 52.4627C46.608 52.6548 46.6472 52.9735 46.6142 53.2497C46.6781 53.6909 45.8551 53.3781 46.1071 53.6019C46.4887 53.7784 45.9603 54.177 46.2733 54.4823C46.1767 54.7984 45.8265 54.8923 46.0811 55.2863C45.9966 55.7345 46.3974 55.8736 46.4967 56.2722C46.7226 56.6511 46.4628 57.2342 46.9293 57.4622C46.6158 57.7913 47.2989 57.9599 46.7952 58.2022C46.8072 58.5703 46.2151 58.3837 46.2529 58.7917C45.9936 59.0149 45.7785 59.4538 46.0292 59.7092C45.732 60.1105 46.3445 60.302 46.33 60.5641C45.9904 60.8313 46.0964 61.0472 46.1676 61.435C45.7762 61.5826 45.8408 62.1113 45.755 62.1823C45.4182 62.1549 45.6693 62.7979 45.5881 63.045C45.5362 64.65 45.5099 66.2559 45.4839 67.8617C42.9597 67.8419 40.4348 67.8555 37.9104 67.8314C37.8932 67.0287 37.9499 66.2188 37.8368 65.4209C36.8806 65.4519 35.9241 65.4564 34.9675 65.4641C34.7328 65.2883 34.2233 65.451 33.8836 65.3985C33.1183 65.3917 32.353 65.4062 31.5876 65.4079C31.2074 65.6457 30.8718 65.6829 30.8387 65.147C30.6466 64.3962 30.7097 63.5904 30.6018 62.8187C30.5472 61.4552 30.3337 60.1101 30.1243 58.764C29.913 55.6341 29.7462 52.5013 29.5256 49.3717C29.4113 47.5241 29.2897 45.677 29.1641 43.83C33.2043 43.5538 37.2455 43.2793 41.2884 43.0932C42.5686 43.0138 43.8502 42.9504 45.1289 42.8477C44.9959 43.4219 45.6817 43.0766 46.0059 43.1372C47.2483 43.086 48.4914 42.9878 49.7336 42.9082C49.9073 43.2168 49.6148 43.5047 49.7145 43.837C49.6874 44.1658 49.3824 44.4194 49.3002 44.7836C49.1558 45.1131 49.1447 45.5372 48.8404 45.7162C48.4195 45.9514 48.4636 46.5541 48.6041 46.9373C48.5431 47.2345 48.8641 47.4162 48.7794 47.7817C48.8336 47.966 48.668 47.8711 48.6214 48.0019Z" fill="white" stroke="#424242" stroke-width="0.32538"/>
</g>
<mask id="mask20_2861_1371" style="mask-type:luminance" maskUnits="userSpaceOnUse" x="10" y="10" width="179" height="136">
<path d="M188.686 10H10V145.694H188.686V10Z" fill="white"/>
</mask>
<g mask="url(#mask20_2861_1371)">
<path d="M16.3168 52.2218C16.3931 54.2143 16.4931 56.2059 16.5764 58.1983C16.1177 58.2128 15.659 58.2272 15.2003 58.2416C15.0761 58.5096 15.0071 58.7803 15.0773 59.0607C14.8506 59.3109 15.1273 59.5247 15.4046 59.4706C15.6919 59.3809 15.851 59.6546 16.1526 59.6924C16.4707 59.8073 16.6706 60.0675 16.9746 60.2064C17.0947 60.4653 17.1818 60.7498 16.9772 60.9776C16.8673 61.1987 16.8172 61.4393 16.7959 61.6667C16.6311 61.8677 16.6402 62.1363 16.6875 62.3908C16.5672 62.6808 16.8133 62.9509 16.6933 63.2358C16.2519 63.2361 15.8105 63.2363 15.3691 63.2315C15.3676 62.9588 15.4672 62.5734 15.0561 62.7112C14.4427 62.7043 13.8247 62.7075 13.2095 62.7035C13.2513 62.3815 13.2048 62.1469 12.8259 62.2574C12.2079 62.2715 11.5901 62.2287 10.972 62.2534C10.9619 63.0915 10.9518 63.9297 10.9417 64.7677C10.2681 64.7548 9.59434 64.7448 8.92071 64.7331C8.87122 64.495 9.0563 64.0301 8.84862 63.9449C6.36825 63.914 3.888 63.8633 1.40789 63.794C1.41794 63.357 1.41722 62.9198 1.4252 62.4827C1.52377 62.2692 1.43455 61.9031 1.46044 61.6306C1.45446 61.0044 1.44849 60.3781 1.44251 59.752C1.76968 59.7903 1.51525 59.2641 1.58161 59.0493C1.47979 56.6575 1.33894 54.2658 1.23047 51.8756C2.50806 51.8395 3.78353 51.7767 5.06053 51.7284C4.4 51.3638 3.78748 50.9054 3.35885 50.2747C2.8935 49.7136 2.48395 49.0917 2.27347 48.3875C2.87642 48.358 3.47932 48.3266 4.0825 48.301C4.074 48.6052 4.57057 48.3496 4.77725 48.4136C6.33626 48.3442 7.89351 48.2688 9.45319 48.2188C9.43231 48.5336 9.50165 48.7001 9.85381 48.5945C11.9561 48.5196 14.0537 48.4564 16.1569 48.3832C16.2123 49.6627 16.265 50.9422 16.3168 52.2218Z" fill="white" stroke="#424242" stroke-width="0.32538"/>
</g>
<mask id="mask21_2861_1371" style="mask-type:luminance" maskUnits="userSpaceOnUse" x="10" y="10" width="179" height="136">
<path d="M188.686 10H10V145.694H188.686V10Z" fill="white"/>
</mask>
<g mask="url(#mask21_2861_1371)">
<path d="M79.2745 61.728C78.1732 63.6701 77.0809 65.6195 75.9855 67.566C76.9638 68.0749 77.9578 68.5521 78.9499 69.0331C78.31 69.3795 77.7059 69.8762 77.0438 70.1294C76.4122 69.9341 75.9709 70.1372 75.7272 70.7546C75.2558 71.5477 74.2685 71.7937 73.5561 72.3312C69.4851 74.8141 65.4134 77.2914 61.292 79.6874C59.0872 80.9956 56.8984 82.3358 54.6718 83.6045C54.0667 83.6659 54.1758 82.9384 54.0789 82.5789C53.6393 82.2136 53.7758 83.4089 53.3821 82.9727C53.2405 82.4896 52.4224 82.5468 52.3435 83.0592C51.9856 83.5833 51.6753 82.3423 51.3394 82.951C50.8759 83.1823 50.686 82.5182 51.0495 82.3062C50.9554 81.8622 50.1438 81.7104 50.6946 81.1767C50.7207 80.6687 50.2575 80.2767 50.3657 79.7399C50.1217 79.4329 49.8469 79.0635 49.6949 78.7879C49.5249 79.0671 49.1257 79.2034 48.931 78.7097C48.9825 78.1415 47.9729 78.214 48.1724 77.7117C48.5104 77.1983 47.9495 76.8602 47.5181 76.7452C47.4207 75.9925 46.9223 76.8959 46.506 76.4602C45.9374 76.4732 45.9624 75.7848 45.7697 75.3646C45.423 75.0042 45.2946 74.6053 45.3413 74.1053C45.417 70.2204 45.5153 66.3357 45.5879 62.4508C45.9761 62.5291 46.3888 62.0362 46.6242 62.3771C46.912 61.8892 47.0428 62.5535 47.4878 62.2647C47.9008 62.2592 48.2549 62.5256 48.6552 62.1844C49.1505 62.1634 49.3852 62.0553 49.656 61.6502C49.8351 61.1698 50.3581 61.107 50.647 60.7327C50.4259 60.1806 51.0527 60.0752 51.3827 60.0359C51.759 60.225 52.3709 60.1065 52.5998 59.8234C52.6879 59.5513 53.6815 59.3039 53.2743 59.8197C52.9273 60.6708 53.4563 60.2531 53.9025 59.8899C54.3422 59.5759 54.8038 59.1513 55.1599 59.2756C55.7122 58.966 55.5269 58.5898 55.9928 58.2523C56.5261 57.6642 57.2561 57.3239 58.015 57.1586C58.4453 57.0609 59.4097 57.5499 59.3007 56.8507C59.316 56.2079 59.2236 55.9902 59.8342 56.3194C60.0263 56.9665 60.3004 56.465 60.5502 56.4768C60.8587 56.0454 60.9184 55.2722 61.3957 55.073C62.1702 54.6857 62.0686 55.5632 62.6447 55.0174C63.5742 54.5038 64.4754 53.8677 65.4262 53.4362C66.2453 53.569 67.0947 53.579 67.893 53.7954C68.3043 53.5345 68.696 53.148 69.2303 53.3064C69.6668 53.1231 70.1243 53.1964 70.3337 53.6974C71.3087 54.941 72.2111 56.2519 73.2161 57.4653C75.4041 58.5858 77.5812 59.7273 79.7639 60.8581C79.6009 61.1481 79.4376 61.438 79.2745 61.728Z" fill="white" stroke="#424242" stroke-width="0.32538"/>
</g>
<mask id="mask22_2861_1371" style="mask-type:luminance" maskUnits="userSpaceOnUse" x="10" y="10" width="179" height="136">
<path d="M188.686 10H10V145.694H188.686V10Z" fill="white"/>
</mask>
<g mask="url(#mask22_2861_1371)">
<path d="M104.6 76.4593C102.369 75.2565 100.068 74.1889 97.7841 73.0923C97.5288 72.9709 97.3107 73.4133 97.0352 73.0636C97.2164 72.2949 97.2815 71.4798 97.7417 70.8099C97.9886 70.3739 98.105 69.8786 98.2892 69.4256C98.1913 68.9906 98.6355 68.947 98.9352 68.7993C99.4122 68.3831 99.767 67.8365 99.7901 67.1887C99.7457 66.777 99.6944 66.2962 100.065 65.9993C100.243 65.649 100.552 65.5684 100.857 65.4194C101.132 65.232 101.546 65.2288 101.679 64.8438C102.147 64.2564 102.097 63.458 102.181 62.7536C102.05 62.4016 102.092 62.0607 102.106 61.7098C101.968 61.3189 101.948 60.8858 101.748 60.5205C102.036 60.0798 101.546 59.628 101.783 59.1751C102.022 58.502 102.141 57.7895 102.365 57.108C102.403 56.779 102.521 56.334 102.314 56.0959C102.488 55.6732 101.878 55.6107 102.394 55.5724C104.91 55.2353 107.432 54.9286 109.94 54.5402C112.29 54.1601 114.646 53.8248 117.008 53.5312C115.211 59.9505 113.416 66.37 111.62 72.789C111.751 73.3427 111.88 73.8968 112.009 74.4508C111.69 74.5252 111.024 74.212 111.139 74.7565C111.069 75.7402 110.996 76.7236 110.966 77.7096C108.833 77.3568 106.728 76.8396 104.6 76.4593Z" fill="#ED232A" stroke="#424242" stroke-width="0.32538"/>
</g>
<mask id="mask23_2861_1371" style="mask-type:luminance" maskUnits="userSpaceOnUse" x="10" y="10" width="179" height="136">
<path d="M188.686 10H10V145.694H188.686V10Z" fill="white"/>
</mask>
<g mask="url(#mask23_2861_1371)">
<path d="M101.678 64.8573C101.543 65.2399 101.13 65.2441 100.856 65.4329C100.548 65.5764 100.242 65.6634 100.064 66.0128C99.6991 66.3085 99.7359 66.7867 99.7898 67.1965C99.7663 67.8384 99.4253 68.3863 98.9484 68.798C98.6706 68.968 98.1876 68.9786 98.2905 69.4194C98.1989 69.7565 98.0234 70.0752 97.9406 70.4233C97.8412 70.8512 97.5463 71.0983 97.2023 70.7036C96.3042 70.0282 95.3957 69.366 94.5069 68.6786C94.5658 69.151 94.4291 69.4338 93.914 69.3494C93.5726 69.4897 93.1261 68.6645 93.0414 69.2186C92.6948 70.2562 92.3485 71.2939 92.0011 72.3312C89.3024 72.047 86.5868 71.8224 83.8989 71.4982C81.3995 70.2436 78.8911 69.0067 76.3841 67.7674C75.7725 67.6618 76.176 67.2486 76.3627 66.9012C77.495 64.8855 78.6303 62.871 79.7668 60.8585C79.2839 60.6852 79.1336 60.5233 79.7176 60.4029C80.3009 60.1797 80.8842 59.9565 81.4676 59.7333C81.636 60.0195 82.1124 59.9381 82.3124 60.2454C82.5286 60.6996 82.7847 60.3417 83.1424 60.4949C83.4784 60.1256 83.7737 60.6659 84.0858 60.299C84.461 60.2584 85.0337 60.4016 85.2579 59.9605C85.3526 59.6095 85.8185 59.2656 86.1199 59.5818C86.0095 59.1114 85.8937 58.6417 85.7867 58.171C88.7988 57.7503 91.7985 57.2591 94.804 56.7968C96.9702 56.5573 99.0981 56.0656 101.245 55.7171C101.602 55.7464 102.131 55.4484 102.362 55.808C102.079 55.9004 102.58 56.3655 102.418 56.6706C102.366 57.4251 102.023 58.1236 101.9 58.8656C101.718 59.2226 101.66 59.6303 101.817 59.9952C101.857 60.3512 101.689 60.6366 101.914 60.9659C101.952 61.3741 102.24 61.7716 102.059 62.1784C102.275 62.8087 102.112 63.4644 102.027 64.1007C101.957 64.3716 101.864 64.6422 101.678 64.8573Z" fill="#ED232A" stroke="#424242" stroke-width="0.32538"/>
</g>
<mask id="mask24_2861_1371" style="mask-type:luminance" maskUnits="userSpaceOnUse" x="10" y="10" width="179" height="136">
<path d="M188.686 10H10V145.694H188.686V10Z" fill="white"/>
</mask>
<g mask="url(#mask24_2861_1371)">
<path d="M37.8864 65.7778C37.9192 66.4614 37.9088 67.1456 37.9124 67.829C40.4368 67.8531 42.9617 67.8396 45.4858 67.8593C45.4575 70.0444 45.3415 72.2421 45.3561 74.4194C45.3235 74.8276 45.5394 75.0478 45.7758 75.3635C45.9231 75.684 45.9346 76.0721 46.141 76.324C46.4249 76.4046 46.7349 76.7347 47.0526 76.5255C47.3297 76.0012 47.6581 76.8925 47.3252 76.7446C42.7768 76.7411 38.2283 76.7763 33.6806 76.8103C29.6818 76.7611 25.6828 76.7624 21.6838 76.7701C21.6972 76.2751 21.6716 75.7805 21.6708 75.2856C21.7583 74.8876 21.6179 74.3485 21.6084 73.8971C21.5725 73.3057 21.5504 72.7121 21.4933 72.1221C21.7507 71.914 21.3928 71.4179 21.4724 71.06C21.421 70.1346 21.371 69.2088 21.3246 68.2834C21.6232 68.1655 22.3622 68.4546 22.3317 68.0326C22.4943 67.793 22.3478 67.3888 22.3502 67.0718C22.5738 67.0042 22.5987 66.5095 22.4804 66.2692C22.3303 65.9804 22.3117 65.6429 22.2031 65.3752C21.6174 65.2059 22.3337 64.9239 22.5542 64.9282C22.5425 64.538 22.3483 64.3367 22.2451 64.0549C21.7316 64.233 21.9121 63.6361 21.6621 63.5288C21.8001 63.38 22.1071 63.1557 21.8343 62.8681C21.7726 62.5494 21.6182 62.3246 21.4587 62.1093C21.446 61.9271 21.0373 61.3358 21.5669 61.3937C21.5272 61.0628 21.5277 60.6092 21.3816 60.4186C21.5788 59.8815 20.9156 60.1806 21.1014 59.6371C21.2253 59.3278 21.0763 59.0089 21.0407 58.64C20.8963 58.4371 20.6395 57.9408 21.2596 58.0614C22.3676 58.0296 23.4755 57.9983 24.5833 57.9619C24.6197 58.3298 25.2762 58.0206 25.5764 58.1003C27.0713 58.029 28.5657 57.9484 30.0579 57.832C30.1305 59.3956 30.5454 60.9201 30.5794 62.4878C30.6686 63.3365 30.6774 64.2035 30.8038 65.0413C30.8912 65.5286 31.0644 65.7285 31.5293 65.4531C32.0173 65.3344 32.5812 65.4346 33.0973 65.3955C33.7171 65.3933 34.337 65.3988 34.9569 65.3882C35.2072 65.564 35.7373 65.3988 36.092 65.4531C36.6745 65.4502 37.2568 65.4327 37.8391 65.4185C37.855 65.5382 37.8705 65.658 37.8864 65.7778Z" fill="white" stroke="#424242" stroke-width="0.32538"/>
</g>
<mask id="mask25_2861_1371" style="mask-type:luminance" maskUnits="userSpaceOnUse" x="10" y="10" width="179" height="136">
<path d="M188.686 10H10V145.694H188.686V10Z" fill="white"/>
</mask>
<g mask="url(#mask25_2861_1371)">
<path d="M22.2112 65.6219C22.4558 65.6329 22.3046 66.0801 22.4275 66.2451C22.6843 66.384 22.4846 66.766 22.4875 66.9436C22.2807 67.0792 22.3719 67.3695 22.4034 67.639C22.3404 67.868 22.4637 68.2597 22.1323 68.242C21.8932 68.3249 21.3506 68.1309 21.3295 68.4124C21.3863 69.4714 21.4405 70.5309 21.5014 71.5897C21.7068 71.8492 21.4829 72.1022 21.5125 72.3434C21.5731 73.3192 21.6375 74.2936 21.7178 75.2682C21.6048 75.487 21.7109 75.8493 21.6843 76.1235C21.6555 76.4053 21.834 76.9144 21.3762 76.7677C16.2592 76.7849 11.1418 76.8258 6.02534 76.7136C5.9966 76.4066 5.85592 76.1881 6.05781 75.8912C6.22443 75.3662 6.473 74.8462 6.58858 74.3183C6.36405 73.537 6.21872 72.7412 6.16927 71.9294C6.08302 71.5416 6.19695 71.1027 5.98206 70.7544C6.2388 70.8079 5.96199 70.4287 6.03315 70.1982C5.91908 69.944 5.66987 69.5155 6.18071 69.6424C6.49716 69.6508 6.92095 69.7705 6.77615 69.3014C6.76296 67.5062 6.86768 65.7076 6.70911 63.9166C7.45372 63.9224 8.19731 63.9474 8.94215 63.9469C9.01393 64.1837 8.74856 64.743 9.07397 64.7371C9.6965 64.748 10.3191 64.7571 10.9416 64.7691C10.9517 63.931 10.9618 63.0929 10.9719 62.2548C11.7149 62.2314 12.4575 62.2789 13.2006 62.2548C13.1312 62.6364 13.2775 62.7945 13.6697 62.7064C14.2365 62.7102 14.8035 62.7064 15.3688 62.7136C15.3213 63.0703 15.3392 63.362 15.7781 63.236C16.0757 63.2064 16.4716 63.3015 16.7067 63.1879C16.7797 62.9034 16.5707 62.636 16.6931 62.3457C16.5477 62.043 16.7761 61.8077 16.7889 61.5389C16.8918 61.2961 16.9038 60.9604 17.1172 60.7574C17.1014 60.4632 17.0133 60.1295 16.6948 60.0482C16.4291 59.783 16.0684 59.6517 15.7107 59.537C15.5865 59.3224 15.0459 59.6414 14.9853 59.2722C15.1872 59.0293 14.9337 58.7041 15.1302 58.4386C15.1738 58.0662 15.6595 58.3007 15.916 58.2205C17.5584 58.1702 19.2008 58.1189 20.8434 58.0742C20.7361 58.5054 21.1553 58.3878 21.0416 58.8088C21.1127 58.9977 21.2437 59.3921 21.0973 59.5181C21.0521 59.8528 21.1106 60.081 21.3844 60.0945C21.308 60.4626 21.5417 60.5286 21.4908 60.8938C21.7227 61.2773 21.4111 61.3665 21.3135 61.547C21.2844 61.8778 21.4867 61.971 21.5091 62.2407C21.7667 62.2622 21.6619 62.6562 21.8322 62.7675C21.8292 62.9194 22.1029 63.3457 21.7998 63.3757C21.3726 63.5289 21.9868 63.6614 21.8597 63.9721C22.0274 64.117 22.4198 64.0033 22.3789 64.3694C22.4736 64.4494 22.6623 64.935 22.455 64.999C22.1198 64.8529 21.795 65.2432 22.1142 65.3771C22.2777 65.3253 22.1779 65.5352 22.2112 65.6219Z" fill="white" stroke="#424242" stroke-width="0.32538"/>
</g>
<mask id="mask26_2861_1371" style="mask-type:luminance" maskUnits="userSpaceOnUse" x="10" y="10" width="179" height="136">
<path d="M188.686 10H10V145.694H188.686V10Z" fill="white"/>
</mask>
<g mask="url(#mask26_2861_1371)">
<path d="M95.8312 80.7972C95.8371 81.6482 97.0046 82.2041 96.6015 83.1082C96.1498 83.6322 96.4149 84.3839 96.3601 85.0015C96.414 85.8902 95.9255 86.9228 96.5842 87.6869C96.7333 88.6065 96.4823 89.5475 96.4528 90.4727C96.7703 91.0856 96.3 91.692 96.4284 92.3261C96.2859 93.2471 96.2141 94.1679 96.2336 95.1045C96.1868 95.5964 95.38 95.351 94.9874 95.4989C94.2351 95.5837 93.4853 95.6915 92.7325 95.7709C92.7384 95.3391 92.3989 95.0062 92.2348 94.6241C91.9182 94.6799 91.4186 95.2185 91.3308 94.6615C90.9158 94.4109 90.3926 94.3466 89.9324 94.1784C90.0237 94.6809 90.1267 95.1819 90.2137 95.6844C89.5325 95.512 88.8539 95.3239 88.1711 95.1608C87.89 95.4673 87.244 94.9448 86.8214 94.9306C86.4468 94.749 85.6812 94.8344 85.8978 94.2334C86.0976 93.8037 85.7567 93.1612 85.3487 93.5368C85.0077 93.6634 84.6508 93.9556 84.2873 94.068C83.9941 94.4913 83.8483 94.2909 83.5497 94.7197C83.2174 94.6681 83.0605 95.3126 82.7442 95.0569C82.474 94.8072 82.0464 95.5512 81.9206 95.2289C81.8903 95.0395 81.3593 94.9583 81.4675 94.4294C81.154 94.1022 81.2424 93.6408 81.0347 93.2865C80.9886 92.6064 80.1585 92.4568 79.7288 92.038C78.0373 90.8005 76.3431 89.5664 74.6816 88.2884C75.7069 86.7964 76.8625 85.3972 77.9064 83.9211C78.2322 83.4034 78.558 82.8858 78.8838 82.3682C75.5593 80.4421 72.2461 78.4971 68.8535 76.6923C68.4226 76.4516 67.9929 76.209 67.5625 75.9675C70.1821 74.376 72.8 72.7822 75.4216 71.1941C75.7584 70.8598 75.9177 70.1592 76.3696 70.0688C76.8931 70.1916 77.3657 70.1009 77.7746 69.7431C78.2171 69.5711 78.6429 69.0144 79.0964 69.097C80.7536 69.8833 82.3681 70.7866 84.038 71.5266C86.692 71.796 89.3468 72.0584 92.001 72.3236C92.3753 71.2058 92.7484 70.0877 93.1219 68.9697C93.5072 69.3143 93.9684 69.4225 94.4678 69.2899C94.3645 68.5408 94.6775 68.7392 95.0933 69.1207C95.9266 69.6939 96.6876 70.4082 97.5647 70.8949C97.7209 71.1433 97.1609 71.7407 97.2264 72.1857C97.2185 72.5966 96.8328 73.0971 97.1467 73.4445C97.0481 73.8262 96.8143 74.1499 96.8809 74.6136C96.7959 75.0771 96.7353 75.5039 96.8927 75.9546C96.6528 76.9879 96.3647 78.0177 96.16 79.0705C96.1165 79.6172 96.1462 80.1972 95.8224 80.6588L95.8275 80.7412L95.8312 80.7972Z" fill="#ED232A" stroke="#424242" stroke-width="0.32538"/>
</g>
<mask id="mask27_2861_1371" style="mask-type:luminance" maskUnits="userSpaceOnUse" x="10" y="10" width="179" height="136">
<path d="M188.686 10H10V145.694H188.686V10Z" fill="white"/>
</mask>
<g mask="url(#mask27_2861_1371)">
<path d="M110.284 77.5977C110.757 77.7271 111.135 77.7783 110.996 77.1584C111.026 76.2517 111.111 75.3482 111.167 74.4428C111.561 74.4499 111.955 74.4587 112.349 74.4558C112.282 77.0914 112.06 79.7194 111.904 82.3497C111.635 86.0655 111.381 89.7829 111.197 93.504C111.121 95.0703 110.973 96.6328 110.868 98.1976C109.582 98.1859 108.301 98.2886 107.041 98.5566C104.459 99.047 101.837 99.2882 99.2349 99.6383C98.4381 99.6634 97.6793 99.8879 96.89 99.9633C96.3373 100.711 95.784 101.458 95.2368 102.209C95.0645 101.809 94.4228 101.595 94.6371 101.08C94.7119 100.57 94.6081 100.053 94.7694 99.5522C94.511 98.8429 94.8165 98.0992 95.0523 97.4285C95.2637 97.0025 95.5742 96.653 95.9162 96.3367C96.4933 95.3 96.0813 94.0727 96.3706 92.9698C96.4329 92.3838 96.3661 91.777 96.5693 91.2129C96.6175 90.7593 96.3428 90.3385 96.4992 89.8798C96.6052 89.1535 96.6888 88.4058 96.5913 87.6857C96.0875 87.118 96.2507 86.323 96.343 85.6385C96.4158 84.91 96.2889 84.1835 96.3923 83.4533C96.7396 83.0626 96.7853 82.4977 96.4788 82.0641C96.1224 81.5826 95.5404 80.8884 96.0208 80.3089C96.1842 79.4857 96.1609 78.6075 96.4548 77.7984C96.6265 77.1947 96.708 76.5916 96.8961 75.9964C96.9082 75.6303 96.6276 75.2719 96.877 74.9145C96.9239 74.5083 96.8257 74.0277 97.0791 73.7068C97.3173 73.4986 96.7347 72.9553 97.3227 73.2008C97.5818 73.0476 97.8757 73.0854 98.2856 73.326C100.398 74.3612 102.539 75.3393 104.606 76.4638C106.505 76.8042 108.386 77.249 110.284 77.5977Z" fill="#ED232A" stroke="#424242" stroke-width="0.32538"/>
</g>
<mask id="mask28_2861_1371" style="mask-type:luminance" maskUnits="userSpaceOnUse" x="10" y="10" width="179" height="136">
<path d="M188.686 10H10V145.694H188.686V10Z" fill="white"/>
</mask>
<g mask="url(#mask28_2861_1371)">
<path d="M81.219 94.0075C81.5265 94.2718 81.4116 94.9815 81.7513 95.0548C82.2879 95.1647 81.53 95.5155 81.3146 95.6074C80.959 95.613 80.7005 96.0697 80.45 96.2066C80.3629 96.461 80.0143 96.1681 80.0097 96.6509C79.7601 96.8022 79.4382 96.982 79.5355 97.3182C79.0774 97.4941 79.3408 97.6589 78.9118 98.0026C78.589 98.3139 78.4296 98.7864 78.1174 99.0531C78.0907 99.4703 77.2842 99.1764 76.9239 99.2979C74.1317 99.4794 71.3346 99.5938 68.5388 99.7244C68.0042 99.8531 68.3336 100.271 68.5008 100.587C68.7371 101.025 68.3716 101.1 68.2967 101.389C68.0649 101.826 68.4231 102.133 68.5072 102.526C68.5323 102.995 68.1619 102.966 67.8161 102.788C67.4779 103.01 66.9703 103.117 66.9104 102.571C66.9575 102.203 66.5412 101.824 66.2408 102.17C66.0638 102.478 65.7444 102.817 65.4405 102.391C65.1811 102.063 64.76 101.808 64.3652 102.099C64.0938 102.283 63.2762 102.344 63.6561 101.83C64.1311 101.418 63.328 101.338 63.1696 101.134C63.2023 100.781 63.0187 100.379 62.5925 100.477C62.2713 100.111 61.8111 100.129 61.5018 100.483C61.163 100.487 60.4237 100.526 60.4701 100.007C60.5878 99.7008 60.724 98.9515 60.1777 99.045C59.5213 99.2992 60.1647 98.494 59.7774 98.2929C59.5746 98.0211 58.696 97.8126 59.3256 97.5095C59.5291 97.2118 59.1318 96.6634 58.8808 96.4927C58.3008 96.3387 58.5361 95.4862 57.9325 95.3393C57.8335 95.0635 57.2247 94.7087 57.4859 94.4663C57.9657 94.5794 57.7899 94.2572 57.9594 94.0849C58.2856 94.1499 58.6067 94.1686 58.3996 93.6787C58.0352 93.0994 58.5656 92.2347 58.0213 91.7759C57.7011 91.4799 58.4988 91.2188 58.1093 90.8072C58.1239 90.4159 57.2935 90.0484 57.7362 89.7741C58.1743 89.9555 58.3882 89.7229 58.1558 89.2908C57.9488 88.7074 58.3346 88.0572 57.9139 87.527C57.7669 87.3169 57.4624 87.1796 57.2349 87.1135C56.9317 87.2583 56.2274 87.3933 56.3603 86.8254C56.3603 86.4223 56.6564 85.7714 57.1483 85.9666C57.4118 85.8568 57.6043 85.3374 57.3907 85.1227C57.0613 85.2166 56.7306 85.4012 56.5035 84.9756C55.9136 84.9139 55.9527 84.4051 56.0404 83.9586C55.8714 83.5818 55.2652 83.858 55.033 83.4518C54.8316 83.485 55.7343 83.0232 55.9625 82.8623C59.5911 80.6955 63.2278 78.541 66.8683 76.3981C67.2527 76.1433 67.6358 75.8066 68.0332 76.2395C70.7944 77.7703 73.5797 79.2566 76.2905 80.8766C77.1543 81.376 78.0181 81.8753 78.882 82.3747C78.1063 83.6995 77.21 84.9398 76.2531 86.1387C75.6958 86.8334 75.2201 87.5877 74.6798 88.295C76.7316 89.8476 78.7827 91.4046 80.9074 92.8564C81.0035 93.2285 81.1744 93.5383 81.2123 93.911L81.2177 93.9882L81.219 94.0075Z" fill="#ED232A" stroke="#424242" stroke-width="0.32538"/>
</g>
<mask id="mask29_2861_1371" style="mask-type:luminance" maskUnits="userSpaceOnUse" x="10" y="10" width="179" height="136">
<path d="M188.686 10H10V145.694H188.686V10Z" fill="white"/>
</mask>
<g mask="url(#mask29_2861_1371)">
<path d="M92.4053 94.9501C92.6314 95.1604 92.653 95.6586 92.8152 95.7717C93.9456 95.6378 95.0755 95.499 96.205 95.3569C96.1811 95.9249 95.9209 96.456 95.465 96.7909C95.0118 97.3501 94.7634 98.0621 94.6796 98.7662C94.5977 99.2019 94.8415 99.6025 94.6687 100.026C94.6528 100.492 94.6714 100.959 94.5821 101.42C94.8499 101.831 95.2774 102.113 95.4185 102.614C95.6125 103.02 95.8957 103.396 95.9183 103.856C96.2115 104.054 96.6079 104.181 96.301 104.643C96.0503 105.174 96.0031 105.757 95.9281 106.328C95.5572 107.028 95.0656 107.642 94.4444 108.135C92.3426 110.121 90.2196 112.107 88.1209 114.083C87.998 114.479 87.5427 114.483 87.2597 114.922C86.9537 115.108 86.6851 115.704 86.3416 115.598C84.6292 114.653 83.001 113.574 81.3221 112.572C78.7745 110.847 76.1076 109.312 73.4953 107.689C72.4771 107.128 71.4924 106.458 70.477 105.925C70.9694 105.727 70.5378 105.261 70.2389 105.12C69.8574 104.88 70.0128 104.139 69.4119 104.2C68.9629 104.159 68.7772 103.556 69.0586 103.237C69.2716 102.975 69.0977 102.348 68.7068 102.663C68.1903 103.097 68.6915 102.434 68.3989 102.202C68.0584 101.913 68.3707 101.585 68.2785 101.221C68.795 101.18 68.4692 100.732 68.4646 100.412C68.0435 100.172 68.2499 99.7555 68.616 99.7278C71.6596 99.5909 74.7013 99.4353 77.7423 99.2643C78.2371 99.3766 78.1097 98.8604 78.474 98.6281C78.5946 98.2167 79.0204 98.0017 79.2165 97.6693C78.949 97.3596 79.73 97.569 79.4958 97.1226C79.6379 96.8111 80.0511 96.7675 80.1052 96.4002C80.2379 96.2906 80.4948 96.298 80.6297 96.058C80.9461 95.8128 81.1226 95.5614 81.5125 95.5127C81.7482 95.2141 82.4 95.4374 82.3954 95.0323C82.701 94.9709 83.0655 95.3033 83.2641 94.83C83.6056 94.8945 83.6859 94.207 83.955 94.4921C84.0337 94.1801 84.3338 94.0297 84.6703 93.9228C84.9233 93.6964 85.2703 93.6383 85.468 93.4181C86.0822 93.4095 85.9051 93.9519 85.8886 94.3779C85.7663 94.8559 86.4775 94.751 86.7778 94.9285C87.2166 95.0589 87.6572 95.1849 88.095 95.3179C88.2886 94.9659 88.8586 95.4574 89.1956 95.4312C89.4923 95.4061 90.3487 95.9731 90.1636 95.4304C90.0846 95.0166 90.0086 94.6023 89.9299 94.1884C90.3886 94.379 90.9804 94.396 91.3493 94.7178C91.4408 95.1706 91.8617 94.7314 92.1445 94.6737C92.2956 94.5398 92.3174 94.8825 92.4053 94.9501Z" fill="#ED232A" stroke="#424242" stroke-width="0.32538"/>
</g>
<mask id="mask30_2861_1371" style="mask-type:luminance" maskUnits="userSpaceOnUse" x="10" y="10" width="179" height="136">
<path d="M188.686 10H10V145.694H188.686V10Z" fill="white"/>
</mask>
<g mask="url(#mask30_2861_1371)">
<path d="M110.347 105.497C108.484 105.758 106.614 105.963 104.753 106.235C102.396 106.557 100.036 106.873 97.6813 107.187C96.8508 107.291 96.0189 107.403 95.1914 107.531C95.3674 107.047 95.7992 106.682 95.9661 106.189C95.9848 105.703 96.041 105.21 96.2576 104.77C96.2854 104.534 96.5314 104.236 96.3123 104.038C96.0813 104.028 95.8329 103.891 95.8743 103.624C95.8416 103.329 95.6784 103.061 95.515 102.817C95.4524 102.597 95.2591 102.382 95.248 102.173C95.7887 101.432 96.3336 100.694 96.8792 99.9571C97.2903 99.9045 97.7048 99.8649 98.1017 99.7562C98.8426 99.6436 99.5916 99.6208 100.331 99.4926C101.526 99.3395 102.723 99.2016 103.916 99.0341C105.366 98.8912 106.789 98.5733 108.226 98.3472C108.81 98.2582 109.395 98.1964 109.987 98.2123C110.277 98.2089 110.567 98.1985 110.858 98.1914C110.758 99.6662 110.684 101.142 110.576 102.615C110.458 103.573 110.445 104.538 110.347 105.497Z" fill="#ED232A" stroke="#424242" stroke-width="0.32538"/>
</g>
<mask id="mask31_2861_1371" style="mask-type:luminance" maskUnits="userSpaceOnUse" x="10" y="10" width="179" height="136">
<path d="M188.686 10H10V145.694H188.686V10Z" fill="white"/>
</mask>
<g mask="url(#mask31_2861_1371)">
<path d="M105.619 106.124C107.197 105.893 108.783 105.729 110.361 105.504C110.288 106.45 110.182 107.399 110.194 108.346C110.052 108.688 110.275 108.949 110.459 109.218C111.16 110.295 111.833 111.391 112.508 112.484C109.678 114.179 106.836 115.853 104.023 117.577C104.873 118.918 105.671 120.301 106.554 121.621C106.503 121.922 106.349 122.193 106.405 122.505C106.371 122.807 106.617 123.099 106.419 123.412C106.404 123.799 105.993 123.633 105.744 123.843C105.638 124.242 105.563 124.707 105.115 124.859C104.696 125.084 104.191 125.164 103.885 125.561C103.464 125.86 102.947 126.059 102.72 126.558C102.513 126.891 102.228 127.198 102.087 127.557C101.633 127.403 101.178 127.257 100.726 127.102C100.62 127.177 100.193 127.031 100.166 126.846C100.186 126.588 99.9767 126.375 99.7599 126.407C99.7624 126.095 99.5821 126.365 99.5056 126.596C99.316 126.75 99.0244 126.455 98.7896 126.428C98.3389 126.252 97.8892 126.079 97.4401 125.899C97.6606 124.865 97.9714 123.845 98.2032 122.814C98.2567 122.125 98.3764 121.444 98.4171 120.754C98.4732 120.043 98.1665 119.364 98.2433 118.65C98.2009 117.697 98.5367 116.762 98.4811 115.813C98.4285 115.307 98.0301 114.98 97.7116 114.633C97.4449 114.025 97.2267 113.389 96.9372 112.791C96.6074 112.362 96.3757 111.84 95.935 111.511C96.1065 111.146 95.6879 111.048 95.5858 110.786C95.4093 110.059 96.1778 109.637 96.4749 109.085C96.44 108.728 95.9171 108.73 95.7411 108.444C95.6264 108.134 95.2468 107.982 95.1836 107.674C95.2594 107.355 95.8206 107.523 96.0953 107.407C99.2701 106.982 102.444 106.559 105.619 106.124ZM102.663 127.388C102.761 127.844 102.17 127.496 102.483 127.265C102.555 127.167 102.698 127.292 102.663 127.388Z" fill="#ED232A" stroke="#424242" stroke-width="0.32538"/>
</g>
<mask id="mask32_2861_1371" style="mask-type:luminance" maskUnits="userSpaceOnUse" x="10" y="10" width="179" height="136">
<path d="M188.686 10H10V145.694H188.686V10Z" fill="white"/>
</mask>
<g mask="url(#mask32_2861_1371)">
<path d="M97.2963 113.681C97.4707 114.006 97.5757 114.36 97.7334 114.69C98.0815 115.002 98.4246 115.359 98.4802 115.846C98.5318 116.46 98.3468 117.065 98.3006 117.676C98.2099 118.475 98.1777 119.299 98.3869 120.082C98.4918 120.765 98.3318 121.444 98.2693 122.121C98.3449 122.391 97.9533 122.299 97.8113 122.229C96.8425 121.597 95.8192 121.049 94.8279 120.452C92.5695 119.123 90.3093 117.798 88.031 116.505C87.5112 116.227 86.9922 115.947 86.4727 115.668C86.9479 115.227 87.4143 114.778 87.8749 114.322C88.0993 114.536 88.0418 113.996 88.2687 113.945C88.9072 113.322 89.5933 112.715 90.243 112.091C91.912 110.534 93.5571 108.952 95.2362 107.406C95.1341 107.628 95.1678 107.886 95.3971 108.007C95.6359 108.243 95.7553 108.586 96.0879 108.719C96.2707 108.812 96.5991 108.949 96.4203 109.203C96.0741 109.665 95.4745 110.083 95.5608 110.734C95.5714 111.034 96.061 111.067 95.9393 111.403C95.9022 111.636 96.2495 111.692 96.3152 111.909C96.6914 112.444 97.1044 112.968 97.2717 113.613L97.2852 113.651L97.2963 113.681Z" fill="#ED232A" stroke="#424242" stroke-width="0.32538"/>
</g>
<mask id="mask33_2861_1371" style="mask-type:luminance" maskUnits="userSpaceOnUse" x="10" y="10" width="179" height="136">
<path d="M188.686 10H10V145.694H188.686V10Z" fill="white"/>
</mask>
<g mask="url(#mask33_2861_1371)">
<path d="M165.784 109.136C166.975 108.697 165.665 109.827 165.125 109.85C164.34 110.175 163.751 110.913 162.816 110.782C162.242 110.878 162.945 109.926 163.18 109.707C163.922 109.631 164.564 109.303 165.366 109.23C165.505 109.197 165.644 109.168 165.784 109.136ZM114.296 135.264C113.946 133.154 113.747 131.006 113.312 128.921C113.275 128.165 112.586 127.935 112.697 127.095C112.724 126.441 112.067 125.943 112.064 125.385C112.029 124.203 112.817 124.95 113.482 125.039C114.445 124.855 114.165 126.088 115.127 125.786C115.506 125.406 114.898 124.245 115.606 124.195C116.095 124.874 116.846 125.894 117.735 125.362C118.982 125.49 120.109 126.039 121.269 126.474C122.191 126.095 123.177 125.775 124.06 125.359C124.325 124.742 123.884 123.501 124.916 123.555C125.86 123.224 126.827 123.455 127.696 123.879C128.782 123.587 130.053 123.681 131.206 123.754C133.007 124.182 134.788 123.26 136.583 123.689C137.287 123.859 137.654 122.95 138.429 123.014C139.248 122.716 140.099 122.579 140.956 122.711C141.882 122.514 142.947 122.564 143.773 122.108C144.294 121.667 144.726 121.241 145.295 120.846C146.064 120.036 147.445 120.123 147.945 119.007C148.167 118.008 149.117 118.358 149.789 117.941C150.746 117.49 150.977 115.996 152.144 115.927C152.939 115.867 153.487 114.924 154.25 115.012C154.61 115.387 156.023 114.335 155.39 115.386C155.026 116.236 154.597 116.481 153.859 116.935C153.341 117.223 153.732 116.728 153.029 117.408C152.417 117.938 152.145 117.514 152.739 117.994C153.073 118.381 153.633 118.543 154.129 118.521C154.053 118.984 154.064 119.715 154.642 120.095C155.198 120.352 156.095 119.877 156.618 120.542C157.091 120.996 157.706 120.438 157.876 119.986C158.368 119.342 159.249 120.298 159.119 120.868C159.124 121.46 159.716 122.072 160.148 122.478C160.69 122.782 161.071 122.179 161.189 121.749C161.999 122.024 162.044 121.841 162.172 121.143C163.182 121.429 163.675 120.154 164.642 120.099C165.554 120.07 164.783 118.851 165.597 118.784C166.246 118.555 167.081 118.271 167.65 118.722C168.229 118.657 169.266 118.69 168.465 119.416C167.661 120.549 166.06 120.381 164.977 121.126C162.059 122.555 159.028 123.734 156.154 125.255C152.403 127.11 148.675 129.034 144.701 130.376C141.854 131.431 138.964 132.38 136.156 133.422C133.411 134.405 130.817 135.733 128.181 136.961C125.814 137.85 123.366 138.537 120.925 139.198C120.14 139.379 119.247 139.482 118.481 139.315C118.272 138.316 117.207 138.947 116.556 139.156C115.967 139.318 114.84 140.067 114.527 139.692C114.444 138.229 114.619 136.815 114.308 135.37L114.304 135.34L114.296 135.264ZM161.018 117.895C160.806 118.44 160.736 119.161 160.035 119.435C159.483 119.073 159.355 118.79 159.095 117.701C159.142 117.286 159.373 116.895 159.682 117.032C160.096 117.33 160.977 117.279 161.018 117.895Z" fill="#ED232A" stroke="#424242" stroke-width="0.32538"/>
</g>
<mask id="mask34_2861_1371" style="mask-type:luminance" maskUnits="userSpaceOnUse" x="10" y="10" width="179" height="136">
<path d="M188.686 10H10V145.694H188.686V10Z" fill="white"/>
</mask>
<g mask="url(#mask34_2861_1371)">
<path d="M97.4382 125.91C97.8993 126.093 98.3589 126.276 98.8232 126.45C99.0296 126.524 99.2314 126.615 99.4394 126.682C99.5318 126.637 99.5147 126.452 99.5814 126.442C99.6391 126.37 99.648 126.224 99.7652 126.255C99.6573 126.342 99.6892 126.446 99.8101 126.399C99.9251 126.406 99.9614 126.51 100.059 126.521C100.137 126.57 100.128 126.708 100.155 126.796C100.163 126.896 100.177 127.007 100.298 127.017C100.428 127.07 100.569 127.119 100.693 127.173C100.731 127.052 100.872 127.192 100.959 127.197C101.338 127.312 101.712 127.449 102.09 127.57C101.992 127.796 102.068 128.055 101.982 128.287C101.946 128.447 101.883 128.606 101.931 128.771C101.969 128.853 102.078 128.897 102.093 128.999C102.187 129.148 102.1 129.329 102.172 129.486C102.125 129.587 102.034 129.594 102.001 129.479C101.941 129.365 101.876 129.249 101.832 129.13C101.857 129.019 101.914 128.905 101.831 128.805C101.807 128.647 101.69 128.755 101.648 128.839C101.578 128.892 101.588 129.047 101.514 129.065C101.408 129.051 101.29 128.959 101.2 129.053C101.079 129.09 101.052 129.19 101.045 129.304C101.007 129.526 100.925 129.772 101.056 129.98C101.113 130.151 101.261 130.267 101.364 130.41C101.477 130.483 101.632 130.511 101.677 130.653C101.788 130.841 101.898 131.029 102.009 131.217C101.927 131.281 101.795 131.263 101.7 131.238C101.496 131.165 101.297 131.063 101.087 131.017C100.814 130.969 100.579 131.157 100.313 131.167C99.9842 131.205 99.654 131.255 99.3469 131.38C99.2431 131.53 99.0509 131.646 99.0629 131.849C98.8648 131.96 98.6415 131.862 98.4357 131.826C98.4359 131.682 98.3378 131.688 98.2288 131.653C97.9451 131.535 97.6292 131.47 97.3907 131.268C97.3298 131.161 97.2332 131.135 97.1167 131.154C97.0601 131.009 96.9277 130.9 96.9342 130.733C96.9477 130.526 96.9589 130.314 96.9262 130.109C96.9528 130 96.8923 129.905 96.9051 129.793C96.8929 129.575 97.0305 129.387 97.0854 129.182C97.2068 129.016 97.2951 128.831 97.3862 128.648C97.5339 128.438 97.7179 128.238 97.7691 127.98C97.8541 127.898 97.8216 127.76 97.7343 127.691C97.6615 127.62 97.5897 127.848 97.4979 127.809C97.3685 127.832 97.4063 127.612 97.3007 127.694C97.1621 127.652 97.0353 127.58 96.9023 127.523C97.0856 127.169 97.1677 126.777 97.2868 126.399C97.3342 126.238 97.3849 126.078 97.4214 125.914L97.4382 125.91ZM102.442 128.552C102.546 128.463 102.629 128.592 102.691 128.666C102.763 128.84 102.694 129.029 102.696 129.21C102.57 129.268 102.517 129.156 102.454 129.067C102.438 128.896 102.422 128.724 102.442 128.552Z" fill="white" stroke="#424242" stroke-width="0.32538"/>
</g>
<mask id="mask35_2861_1371" style="mask-type:luminance" maskUnits="userSpaceOnUse" x="10" y="10" width="179" height="136">
<path d="M188.686 10H10V145.694H188.686V10Z" fill="white"/>
</mask>
<g mask="url(#mask35_2861_1371)">
<path d="M97.1887 127.651C97.3154 127.687 97.363 127.649 97.4106 127.777C97.5485 127.906 97.6415 127.571 97.7352 127.702C97.8511 127.795 97.781 127.924 97.7311 128.026C97.6608 128.344 97.3657 128.546 97.2621 128.85C97.1699 129.029 97.0356 129.185 96.9883 129.385C96.9007 129.567 96.847 129.783 96.9129 129.976C96.9136 130.219 96.9471 130.469 96.9151 130.715C96.9077 130.885 97.0405 130.996 97.0985 131.143C97.2571 131.094 97.3295 131.219 97.4342 131.306C97.569 131.358 97.6494 131.46 97.6762 131.601C97.7809 131.745 97.56 131.771 97.4996 131.865C97.4812 132.003 97.3379 132.034 97.2768 132.147C97.1727 132.193 97.1031 132.379 96.9813 132.29C96.9237 132.159 96.7731 132.26 96.7798 132.383C96.6687 132.516 96.9588 132.597 96.7637 132.662C96.6691 132.688 96.5566 132.8 96.5195 132.916C96.4019 133.143 96.2043 133.333 96.0881 133.567C96.067 133.7 95.9146 133.772 95.9174 133.901C95.9487 134.046 95.8361 134.178 95.8838 134.327C95.9061 134.454 95.9274 134.603 95.8937 134.723C95.7403 134.948 95.6179 135.199 95.6361 135.474C95.5456 135.318 95.4502 135.464 95.3211 135.511C95.2004 135.578 95.0472 135.566 94.9164 135.56C94.781 135.555 94.7074 135.646 94.662 135.774C94.582 135.949 94.5357 136.118 94.4417 136.283C94.2516 136.438 94.0581 136.592 93.8677 136.748C93.7408 136.62 93.675 136.419 93.7636 136.252C93.7718 136.114 93.8933 136.05 93.9466 135.949C93.9714 135.82 94.028 135.688 93.9422 135.569C93.9444 135.435 93.7634 135.426 93.7312 135.335C93.8248 134.616 93.9617 133.902 94.1107 133.194C94.614 132.218 95.1619 131.266 95.6832 130.301C95.9065 129.994 95.9731 129.616 96.1027 129.267C96.3042 128.657 96.6123 128.091 96.8838 127.512C96.9854 127.558 97.0871 127.604 97.1887 127.651ZM93.0923 135.919C93.1237 135.838 93.1985 135.671 93.2632 135.831C93.1862 135.989 93.1294 136.158 93.0395 136.31C92.8202 136.242 93.066 136.042 93.0923 135.919Z" fill="white" stroke="#424242" stroke-width="0.32538"/>
</g>
<mask id="mask36_2861_1371" style="mask-type:luminance" maskUnits="userSpaceOnUse" x="10" y="10" width="179" height="136">
<path d="M188.686 10H10V145.694H188.686V10Z" fill="white"/>
</mask>
<g mask="url(#mask36_2861_1371)">
<path d="M112.017 125.637C112.207 125.765 112.325 125.946 112.392 126.144C112.419 126.38 112.573 126.597 112.69 126.776C112.721 127.106 112.687 127.46 112.756 127.776C112.864 127.989 113.064 128.13 113.193 128.23C113.079 128.523 113.247 128.777 113.372 129.034C113.578 129.994 113.637 130.979 113.819 131.943C114.049 133.678 114.353 135.404 114.547 137.141C114.479 137.369 114.564 137.62 114.478 137.833C114.498 138.518 114.53 139.203 114.536 139.888C113.234 140.33 111.874 140.558 110.543 140.892C110.157 140.958 109.775 141.155 109.385 141.011C108.914 140.911 108.421 140.892 107.943 140.917C107.379 141.008 106.821 141.167 106.245 141.106C105.19 141.084 104.135 141.067 103.081 141.043C103.149 140.821 103.389 140.604 103.64 140.663C103.655 140.624 103.702 140.273 103.598 140.139C103.421 140.102 103.477 139.724 103.235 139.832C103.044 139.992 102.888 139.814 102.731 139.69C102.679 139.558 102.584 139.224 102.746 139.125C102.974 138.965 103.335 138.943 103.449 138.663C103.624 138.784 103.571 138.745 103.548 138.421C103.505 138.164 103.784 138.115 103.973 138.065C104.267 138.033 104.005 137.692 104.024 137.514C103.958 137.251 104.055 136.976 104.093 136.717C104.096 136.405 104.059 136.077 104.093 135.759C104.097 135.444 104.043 135.139 103.946 134.837C104.173 134.682 104.464 134.64 104.73 134.578C104.83 134.318 105.074 134.093 104.981 133.794C104.998 133.575 104.938 133.378 104.731 133.272C104.232 132.836 103.677 132.458 103.206 131.994C103.012 131.729 102.811 131.469 102.613 131.206C102.773 130.889 102.984 130.581 103.104 130.253C103.028 129.931 103.367 129.737 103.509 129.483C103.684 129.207 103.969 128.989 104.054 128.666C103.956 128.448 103.82 128.152 104.186 128.155C104.425 128.017 104.65 128.094 104.871 128.226C105.193 128.361 105.518 128.539 105.837 128.649C106.054 128.532 106.348 128.464 106.507 128.306C106.546 128.005 106.484 127.667 106.735 127.443C106.959 127.164 107.154 126.677 107.582 126.748C107.872 126.869 108.146 126.657 108.404 126.549C108.699 126.264 109.121 126.166 109.496 126.019C109.735 125.945 109.943 126.204 110.17 126.273C110.492 126.272 110.835 126.141 111.16 126.072C111.388 126.159 111.598 126.028 111.819 125.919C111.953 125.893 111.953 125.732 112.017 125.637Z" fill="#ED232A" stroke="#424242" stroke-width="0.32538"/>
</g>
<mask id="mask37_2861_1371" style="mask-type:luminance" maskUnits="userSpaceOnUse" x="10" y="10" width="179" height="136">
<path d="M188.686 10H10V145.694H188.686V10Z" fill="white"/>
</mask>
<g mask="url(#mask37_2861_1371)">
<path d="M104.934 134.164C104.845 134.296 104.814 134.508 104.675 134.584C104.426 134.63 104.158 134.683 103.948 134.826C104.045 135.127 104.098 135.433 104.095 135.748C104.08 136.017 104.067 136.306 104.101 136.569C104.12 136.797 104.002 137 104.012 137.23C103.975 137.492 104.098 137.734 104.121 137.998C103.937 138.078 103.744 138.097 103.571 138.21C103.548 138.387 103.555 138.566 103.593 138.743C103.523 138.668 103.475 138.582 103.335 138.821C103.115 138.931 102.895 139.04 102.675 139.149C102.661 139.319 102.651 139.546 102.731 139.678C102.863 139.775 103.004 139.944 103.153 139.863C103.291 139.727 103.483 139.847 103.476 140.019C103.605 140.122 103.725 140.246 103.64 140.435C103.678 140.619 103.736 140.695 103.48 140.651C103.313 140.66 103.213 140.838 103.099 140.945C103.234 140.673 102.931 140.765 102.762 140.746C102.374 140.703 102.01 140.849 101.637 140.932C101.107 141.07 100.584 141.248 100.085 141.474C99.3988 141.806 98.7199 142.158 97.9924 142.395C97.616 142.532 97.2286 142.684 96.859 142.811C96.8657 142.582 96.8393 142.35 96.9196 142.131C96.9124 141.93 96.5386 141.822 96.8769 141.806C97.3996 141.69 97.9312 141.619 98.4605 141.551C98.6704 141.563 98.865 141.459 99.032 141.326C99.2904 141.161 99.5697 141.013 99.8101 140.828C99.9783 140.546 100.189 140.278 100.331 139.988C100.329 139.654 100.381 139.301 100.345 138.978C100.183 138.761 100.014 138.548 99.8451 138.336C99.5932 138.471 99.5601 138.264 99.5292 138.055C99.4416 137.909 99.2624 137.715 99.4373 137.568C99.603 137.47 99.6026 137.371 99.538 137.18C99.4387 137.112 99.3813 136.985 99.3707 136.786C99.3104 136.677 99.2329 136.637 99.2046 136.484C99.1726 136.326 99.1623 136.163 99.1181 136.008C98.8331 136.093 98.6152 136.312 98.417 136.527C98.2755 136.427 98.2067 136.69 98.1093 136.52C98.0047 136.408 98.0243 136.27 97.9929 136.168C97.8043 136.111 97.9774 135.986 97.8154 135.925C97.6606 135.847 97.6823 135.738 97.6293 135.631C97.5516 135.527 97.3399 135.467 97.34 135.341C97.2935 135.218 97.2202 135.088 97.2491 134.93C97.1865 134.639 96.9336 134.467 96.6859 134.346C96.5961 134.153 96.3644 134.033 96.1623 133.995C95.9201 134.148 95.8868 134.157 95.9303 133.872C96.0121 133.728 96.1045 133.561 96.1953 133.405C96.3201 133.206 96.4984 133.031 96.578 132.817C96.6201 132.673 96.9796 132.639 96.7812 132.528C96.7322 132.407 96.875 132.096 96.9889 132.281C97.1332 132.362 97.2737 132.142 97.3697 132.043C97.5045 131.96 97.5342 131.783 97.7004 131.714C97.7125 131.553 97.52 131.31 97.8261 131.487C98.0156 131.542 98.1949 131.653 98.3911 131.671C98.3915 131.887 98.6595 131.833 98.8074 131.885C99.0341 131.937 99.0635 131.762 99.1327 131.611C99.2486 131.467 99.3549 131.309 99.5556 131.292C99.9546 131.151 100.396 131.194 100.785 131.024C101.149 130.896 101.466 131.193 101.808 131.241C102.059 131.112 102.046 131.41 102.223 131.462C102.413 131.532 102.531 131.135 102.653 131.245C102.971 131.635 103.216 132.098 103.652 132.375C104.082 132.734 104.525 133.078 104.948 133.445C104.959 133.669 105.044 133.91 104.965 134.125L104.946 134.15L104.934 134.164Z" fill="white" stroke="#424242" stroke-width="0.32538"/>
</g>
<mask id="mask38_2861_1371" style="mask-type:luminance" maskUnits="userSpaceOnUse" x="10" y="10" width="179" height="136">
<path d="M188.686 10H10V145.694H188.686V10Z" fill="white"/>
</mask>
<g mask="url(#mask38_2861_1371)">
<path d="M97.6283 135.713C97.7273 135.779 97.6491 135.868 97.7885 135.925C97.9471 135.969 97.844 136.058 97.9052 136.121C98.0337 136.171 97.9839 136.251 98.0395 136.367C97.9997 136.387 98.158 136.682 98.1971 136.606C98.2551 136.432 98.3362 136.619 98.4314 136.528C98.5555 136.393 98.6771 136.259 98.8368 136.169C98.9043 136.112 99.1123 135.952 99.1341 136.09C99.1698 136.278 99.1938 136.466 99.2339 136.652C99.3452 136.628 99.3281 136.807 99.3838 136.878C99.423 136.968 99.3683 137.192 99.5239 137.115C99.5268 137.233 99.6093 137.395 99.5713 137.484C99.4467 137.504 99.3766 137.652 99.3507 137.764C99.4347 137.938 99.5645 138.089 99.5797 138.289C99.5581 138.512 99.7947 138.288 99.8718 138.388C100.034 138.605 100.231 138.812 100.363 139.042C100.343 139.378 100.355 139.725 100.317 140.055C100.133 140.329 99.9682 140.621 99.7733 140.884C99.4314 141.095 99.0888 141.311 98.7492 141.522C98.6231 141.578 98.503 141.54 98.3764 141.588C97.8095 141.636 97.2476 141.739 96.6936 141.867C96.5355 141.804 96.43 141.676 96.3214 141.551C95.8062 141.588 95.2929 141.67 94.7772 141.686C94.56 141.701 94.3429 141.639 94.1748 141.499C94.1145 141.373 94.1657 141.272 94.2621 141.182C94.3638 141.047 94.474 140.894 94.5287 140.742C94.5142 140.596 94.4533 140.479 94.3259 140.402C94.1813 140.238 93.9394 140.267 93.7449 140.202C93.6196 140.157 93.4339 140.196 93.3915 140.036C93.2891 139.876 93.1861 139.717 93.1798 139.521C93.1409 139.35 93.0993 139.178 93.1751 139.011C93.2226 138.775 93.2963 138.552 93.4212 138.345C93.5606 138.091 93.7798 137.889 93.9585 137.661C93.9319 137.361 93.9111 137.06 93.8806 136.76C94.0729 136.589 94.2975 136.447 94.4735 136.263C94.5424 136.123 94.5924 135.992 94.6466 135.843C94.7114 135.762 94.7268 135.558 94.863 135.596C94.9723 135.539 95.0963 135.608 95.2135 135.562C95.3386 135.543 95.4543 135.465 95.5554 135.389C95.674 135.599 95.657 135.359 95.6593 135.246C95.7165 135.062 95.8049 134.873 95.9232 134.713C95.936 134.527 95.8863 134.341 95.893 134.155C96.0211 134.111 96.1468 133.948 96.2849 134.047C96.4393 134.096 96.5867 134.199 96.675 134.331C96.7446 134.45 96.9338 134.464 97.0243 134.578C97.1674 134.687 97.2241 134.872 97.2735 135.038C97.1496 135.143 97.3429 135.229 97.3341 135.328C97.2981 135.415 97.4398 135.495 97.5187 135.556C97.5528 135.604 97.692 135.643 97.6283 135.713Z" fill="white" stroke="#424242" stroke-width="0.32538"/>
</g>
<mask id="mask39_2861_1371" style="mask-type:luminance" maskUnits="userSpaceOnUse" x="10" y="10" width="179" height="136">
<path d="M188.686 10H10V145.695H188.686V10Z" fill="white"/>
</mask>
<g mask="url(#mask39_2861_1371)">
<path d="M87.6878 144.339L87.6662 144.352L87.3287 144.447L87.2984 144.456L86.9997 144.75L86.9781 144.767L86.9045 144.776L86.8699 144.78L86.7055 144.802L86.5107 144.828L86.4025 144.884H86.3982L86.3333 144.919L86.2943 144.936L86.2294 144.971L86.0476 145.061L85.9265 145.035L85.7707 144.78L85.7188 144.525L85.8096 144.321L85.814 144.313L85.8399 144.257L85.8486 144.244L85.8616 144.235L85.9005 144.196L86.1775 143.936V143.932L86.1818 143.906L86.1948 143.742L86.2164 143.465L86.0217 142.954L86.0087 142.915L86.1818 142.772L86.3679 142.621L86.4761 142.534L86.6579 142.383L86.8699 142.387H87.0733L87.1166 142.331L87.1815 142.253L87.2854 142.119L87.3719 141.647L87.4368 141.283L87.5234 140.825L87.7744 140.474L87.822 140.258L87.796 139.609L87.6273 139.574L87.6013 139.457L87.6446 138.912L87.796 138.721L87.9648 138.509L88.0297 138.427L88.1249 138.384L88.35 138.271L88.562 138.293L88.6659 138.397L88.6962 138.423L88.9515 138.488L88.9862 138.496L89.2891 138.574L89.6267 138.531L89.7522 138.514H89.7608L90.0464 138.475H90.0594L90.4273 138.423L90.7043 138.354H90.7129L90.7519 138.341L90.873 138.315L90.8947 138.306L90.9553 138.293L90.9682 138.289L91.0678 138.263L91.5395 138.146L91.5914 138.133L91.942 138.154H91.9593L91.9723 138.172L91.9852 138.193L92.0242 138.254L92.1151 138.384L92.1367 138.41L92.1757 138.47L92.2016 138.786L92.2449 139.258L92.3964 139.578L92.405 139.596L92.4959 139.795L92.5911 139.937L92.6214 139.985L92.7469 140.175L92.5392 140.639L92.2276 141.063L91.5914 141.716L91.4486 141.859L91.4443 141.868L91.3145 142.023L91.2322 142.127L90.7389 142.742L90.7302 142.755H90.7259L90.6913 142.725L90.5831 142.798L90.3753 142.945L90.1633 143.17L89.8344 143.521L89.7305 143.352L89.6526 143.317L89.5877 143.287L89.4406 143.317L89.4059 143.348L89.2328 143.491L89.1549 143.551L89.129 143.577L89.0511 143.638L89.0165 143.668L88.7611 143.811L88.4236 143.997L88.2807 143.949L88.2418 143.971L87.8826 144.209L87.7657 144.287L87.6878 144.339Z" fill="white" stroke="#424242" stroke-width="0.325381"/>
</g>
<mask id="mask40_2861_1371" style="mask-type:luminance" maskUnits="userSpaceOnUse" x="10" y="10" width="179" height="136">
<path d="M188.686 10H10V145.694H188.686V10Z" fill="white"/>
</mask>
<g mask="url(#mask40_2861_1371)">
<path d="M102.688 127.358C102.612 128.348 102.158 126.761 102.688 127.358ZM158.952 117.966C160.735 120.57 162.091 117.795 159.386 116.936C158.786 117.023 158.436 117.498 158.952 117.966ZM163.662 110.69C167.033 109.102 165.861 108.919 163.11 109.724C162.506 110.486 161.877 111.228 163.662 110.69ZM168.69 118.822C167.394 118.584 165.019 118.026 164.904 119.992C163.013 120.191 162.268 121.988 161.132 121.747C159.962 124.104 159.094 120.201 158.223 119.718C157.332 121.449 155.514 120.164 154.307 119.822C154.219 118.44 153.815 118.622 152.696 117.998C152.527 117.678 153.598 117.433 153.866 116.924C155.742 116.137 156.8 114.07 154.14 114.976C152.342 115.64 150.725 116.948 149.322 118.169C147.721 119.069 145.883 120.466 144.225 121.728C142.036 123.343 138.728 122.169 136.557 123.681C133.022 123.561 129.292 124.219 125.916 123.406C124.531 123.215 123.832 124.054 124.001 125.406C121.711 127.748 119.352 125.009 117.011 125.485C114.96 121.889 115.576 127.266 114.112 125.113C111.908 123.779 111.998 127.162 109.635 125.98C107.852 126.41 106.683 127.279 105.854 128.647C103.438 126.689 103.735 130.591 102.197 131.464C101.528 130.503 100.298 129.286 101.821 128.701C102.52 130.719 101.604 127.793 102.324 127.175C103.567 124.92 106.99 124.631 106.545 121.81C105.945 119.798 102.33 117.292 106.047 116.377C107.79 114.719 112.687 113.837 111.948 111.584C108.67 108.275 111.003 103.58 110.806 99.4896C111.319 91.174 111.946 82.8637 112.361 74.5434C110.682 71.6956 113.74 67.5026 114.082 64.1591C116.056 57.0871 118.043 50.0187 120.047 42.9559C118.311 40.4196 120.193 37.2882 119.725 33.9866C120.055 24.9995 120.614 15.5121 120.64 6.8062C120.755 5.24935 118.283 5.58466 119.053 3.97597C119.048 2.34039 117.285 3.17742 116.331 3.17991C116.602 4.39586 115.388 6.88664 114.332 4.64137C114.951 3.12267 114.233 1.93475 115.26 0.369835C115.757 -0.991807 117.248 -2.63088 116.848 -4.22267C115.884 -4.99775 115.323 -6.17277 116.288 -7.02468C116.117 -8.23 115.731 -9.54255 115.083 -10.8916C114.791 -12.6345 115.841 -14.9159 114.076 -15.9758C114.999 -18.3717 114.86 -21.1064 116.151 -22.9823C117.418 -24.6176 119.243 -25.8599 117.988 -28.4165C116.873 -30.9732 119.837 -32.9534 118.821 -35.6085C118.422 -37.7291 116.982 -38.9411 116.026 -40.7382C115.933 -41.9118 115.614 -43.2118 116.414 -44.1503C116.625 -45.7837 116.428 -48.1734 117.682 -49.8614C117.435 -51.2819 114.971 -52.0072 116.539 -53.6299C117.147 -55.2738 118.248 -57.0458 116.948 -58.7249C117.971 -61.0975 112.671 -59.0189 111.256 -59.6105C97.6439 -59.2976 83.9106 -58.4793 70.3774 -59.4495C68.4409 -57.8655 66.6327 -61.1232 64.6174 -59.3567C62.0657 -58.7016 59.8808 -58.1393 57.7883 -56.1311C54.8598 -55.14 52.3224 -53.2561 49.4452 -51.8958C47.9855 -49.5857 44.9681 -48.207 42.7915 -46.0599C38.9503 -41.7337 33.247 -38.5766 31.2152 -33.066C29.3288 -30.9056 27.201 -29.5272 24.5963 -29.2613C21.4739 -27.8131 20.026 -26.4317 18.5392 -23.7645C15.5858 -23.4328 13.4201 -22.2705 12.9387 -19.0009C13.2279 -16.5356 15.7946 -15.9369 16.2271 -13.357C17.1325 -12.4166 19.709 -13.0776 20.8442 -11.9381C22.0121 -9.62059 20.06 -8.03257 17.9343 -7.89231C15.3985 -9.33536 15.4497 -5.96868 17.59 -5.04864C18.342 -1.10304 19.9954 4.10318 17.2145 7.45778C14.4688 9.18902 11.5461 6.23507 9.18331 9.07535C6.92353 11.0054 3.1761 12.1564 1.81553 15.4499C-0.114143 15.7479 -1.34076 17.8003 -3.58079 17.5768C-6.17308 18.4815 -8.77048 20.0303 -11.6007 18.6411C-15.2174 18.2583 -18.8861 18.9082 -22.5681 18.8944C-25.33 19.4103 -28.2101 22.1533 -30.5529 19.2799C-33.155 17.9718 -34.7314 15.3415 -37.9541 15.7533C-43.817 14.0312 -49.9249 14.677 -56.0202 14.4636C-64.4811 13.9143 -72.5332 17.3744 -80.6157 19.525C-79.7893 21.2858 -79.773 23.7616 -79.982 25.4404C-80.4802 26.7892 -81.3022 28.493 -79.0039 28.3833C-78.8959 30.6738 -78.4293 33.3236 -75.2158 34.1357C-74.8568 36.0857 -74.9278 36.7533 -73.5344 38.1288C-73.1276 40.2346 -72.936 42.153 -75.3511 43.3504C-77.0782 44.6158 -80.671 44.7007 -80.3835 47.5469C-82.8461 48.4777 -82.2086 52.2599 -85.2502 52.201C-88.6006 53.6849 -91.5566 55.2032 -93.8552 58.1447C-97.3206 60.3694 -100.842 62.9231 -104.516 64.6649C-104.512 68.7232 -104.521 72.7811 -104.496 76.8393C-53.7245 76.9185 -2.87825 76.6341 47.8579 76.9295C48.457 77.3058 48.7249 79.4284 49.6524 78.939C50.7949 79.2977 50.7046 81.7424 51.0205 82.5725C50.9798 83.1284 52.4421 83.4166 52.6824 82.7949C53.5819 83.0098 53.6075 83.0131 54.2004 82.646C53.9234 84.4321 56.7078 82.9163 56.1589 84.8375C56.6697 85.4549 58.2978 84.8886 57.262 86.0303C56.0457 86.017 56.3828 87.9038 57.5644 87.2858C58.5828 87.7754 58.5958 90.1201 57.7505 90.1608C58.3439 91.2541 58.492 93.1731 58.3272 94.1564C57.3348 94.3604 57.752 95.221 58.5593 96.0734C59.8044 96.9878 58.8745 97.8881 60.043 98.6795C60.1523 99.1832 61.014 99.2839 60.7097 100.389C62.1142 100.233 63.3125 100.369 63.9097 101.692C63.2016 102.397 65.9463 102.427 66.2311 102.314C67.1313 101.854 67.3006 103.641 68.5661 102.876C69.8652 102.022 68.3903 104.687 70.0117 104.58C70.7189 106.752 73.3256 107.325 75.4203 108.836C82.884 113.564 90.5911 118.12 98.3042 122.289C98.063 125.423 96.5677 128.149 95.318 130.94C94.6774 132.37 94.1015 133.817 93.792 135.344C94.2807 136.523 93.7374 137.893 93.1739 139.181C93.2589 140.446 94.9848 140.263 94.2846 141.508C97.0466 140.467 96.5018 143.904 98.7931 142.095C101.126 140.627 103.297 140.638 105.663 141.066C109.968 141.212 114.119 140.171 118.168 138.685C120.611 140.554 124.431 137.61 127.304 137.298C137.42 132.264 148.538 129.744 158.417 124.115C161.691 122.139 165.992 121.504 168.736 118.961L168.69 118.822ZM102.601 129.206C102.709 127.599 102.613 129.314 102.601 129.206ZM93.3255 135.814C93.0335 136.948 92.9262 135.63 93.3255 135.814ZM92.6454 139.901C92.5258 138.437 91.8905 137.679 90.4845 138.391C88.8219 138.289 86.9955 138.177 87.8356 140.44C88.1359 142.434 85.6387 142.176 86.2436 143.891C84.9334 145.633 87.796 144.496 88.4864 143.953C90.2702 143.05 92.053 142.116 92.6454 139.901Z" stroke="#424242" stroke-width="0.619355"/>
</g>
</g>
<defs>
<clipPath id="clip0_2861_1371">
<rect width="160" height="135.694" fill="white" transform="translate(10 10)"/>
</clipPath>
</defs>
</svg>
