<?xml version="1.0" encoding="utf-8"?>
<!-- Generator: Adobe Illustrator 19.2.1, SVG Export Plug-In . SVG Version: 6.00 Build 0)  -->
<svg version="1.1" id="Layer_1" xmlns="http://www.w3.org/2000/svg" xmlns:xlink="http://www.w3.org/1999/xlink" x="0px" y="0px"
	 viewBox="0 0 148.4 148.4" style="enable-background:new 0 0 148.4 148.4;" xml:space="preserve">
<style type="text/css">
	.st0{fill:#ED212A;}
	.st1{fill:#FFFFFF;}
</style>
<g>
	<rect class="st0" width="148.4" height="148.4"/>
	<g>
		<path class="st1" d="M27.1,97.2h-8.6v-23h8.3c6.5,0,13.1,2.7,13.1,11.4C40,93.7,33.5,97.2,27.1,97.2z M26.7,79H24v13.4h2.6
			c3.9,0,7.6-1.6,7.6-6.7C34.2,80.4,30.6,79,26.7,79z"/>
		<path class="st1" d="M62.3,97.2l-1.8-4.5h-8.9l-1.7,4.5h-6l9.7-23H59l9.5,23H62.3z M56.1,80.4l-2.9,7.9H59L56.1,80.4z"/>
		<path class="st1" d="M74.8,97.2v-23h5.6v23H74.8L74.8,97.2z"/>
		<path class="st1" d="M89.7,97.2v-23h5.6v18.2h8.9v4.9L89.7,97.2L89.7,97.2z"/>
		<path class="st1" d="M121.6,87.5v9.7H116v-9.7l-8.7-13.3h6.7l4.9,8.5l4.9-8.5h6.5L121.6,87.5z"/>
		<path class="st1" d="M31.3,129.7h-5.6l-8.7-23h6.3l5.3,16.3h0.2l5.3-16.3h6.1L31.3,129.7z"/>
		<path class="st1" d="M56,130.3c-7.2,0-12.5-4.9-12.5-12.2s5.3-12,12.5-12s12.5,4.6,12.5,12C68.5,125.3,63.2,130.3,56,130.3z
			 M56,111c-3.9,0-6.6,3-6.6,7c0,4.2,2.7,7.1,6.6,7.1s6.6-3,6.6-7.1C62.6,114.1,60,111,56,111z"/>
		<path class="st1" d="M75.2,129.7v-23h5.6v23H75.2L75.2,129.7z"/>
		<path class="st1" d="M99.7,130.3c-7.1,0-12.4-4.9-12.4-12.1c0-7.3,5.5-12.1,12.4-12.1c3.2,0,6.7,1.2,8.6,3.4l-3.8,3.8
			c-1-1.4-2.9-2.1-4.6-2.1c-3.9,0-6.6,3-6.6,7c0,4.2,2.7,7,6.5,7c2.2,0,3.9-1,4.9-2.3l3.9,3.6C106.6,128.8,103.5,130.3,99.7,130.3z"
			/>
		<path class="st1" d="M114.5,129.7v-23H130v4.7h-10.1v4.3h9.5v4.5h-9.5v4.8h10.7v4.7H114.5L114.5,129.7z"/>
	</g>
</g>
</svg>
