<svg width="5192" height="5933" viewBox="0 0 5192 5933" fill="none" xmlns="http://www.w3.org/2000/svg">
<path d="M5191.38 4449.75C4866.68 4449.75 4829.14 4078.94 4328.08 4078.94C3824.81 4078.94 3785.47 4449.75 3461.88 4449.75C3140.96 4449.75 3097.4 4078.94 2595.69 4078.94C2099.24 4078.94 2048.53 4449.75 1732.39 4449.75C1406.21 4449.75 1370.82 4078.94 866.195 4078.94C361.577 4078.94 325.585 4449.75 0 4449.75V3522.72C0 3215.64 249.14 2966.5 556.219 2966.5H741.625V1297.84H1483.25V2966.5H2224.88V1297.84H2966.5V2966.5H3708.12V1297.84H4449.75V2966.5H4635.16C4942.24 2966.5 5191.38 3215.64 5191.38 3522.72V4449.75ZM5191.38 5933H0V4820.56C502.405 4820.56 541.931 4449.75 866.195 4449.75C1190.09 4449.75 1228.35 4820.56 1732.39 4820.56C2228.85 4820.56 2279.54 4449.75 2595.69 4449.75C2921.86 4449.75 2957.24 4820.56 3461.88 4820.56C3964.3 4820.56 4003.81 4449.75 4328.08 4449.75C4646.6 4449.75 4690.22 4820.56 5191.38 4820.56V5933ZM1112.44 1112.44C906.752 1112.44 741.625 947.31 741.625 741.625C741.625 382.4 1112.44 475.104 1112.44 0C1251.49 0 1483.25 341.843 1483.25 648.922C1483.25 956.001 1318.12 1112.44 1112.44 1112.44ZM2595.69 1112.44C2390 1112.44 2224.88 947.31 2224.88 741.625C2224.88 382.4 2595.69 475.104 2595.69 0C2734.74 0 2966.5 341.843 2966.5 648.922C2966.5 956.001 2801.37 1112.44 2595.69 1112.44ZM4078.94 1112.44C3873.25 1112.44 3708.12 947.31 3708.12 741.625C3708.12 382.4 4078.94 475.104 4078.94 0C4217.99 0 4449.75 341.843 4449.75 648.922C4449.75 956.001 4284.62 1112.44 4078.94 1112.44Z" fill="#1F1F1F"/>
</svg>
