<svg width="4451" height="5933" viewBox="0 0 4451 5933" fill="none" xmlns="http://www.w3.org/2000/svg">
<path d="M1390.78 834.328C1390.78 373.536 1764.38 0 2225.25 0C2686.12 0 3059.72 373.536 3059.72 834.328C3059.72 1295.11 2686.12 1668.66 2225.25 1668.66C1764.38 1668.66 1390.78 1295.11 1390.78 834.328ZM4341.87 850.238C4197.04 705.424 3962.21 705.424 3817.38 850.238L2813.37 1854.06H1637.11L633.116 850.238C488.289 705.424 253.455 705.424 108.629 850.238C-36.2096 995.052 -36.2096 1229.83 108.629 1374.65L1205.34 2471.16V5562.19C1205.34 5766.98 1371.39 5933 1576.22 5933H1761.65C1966.48 5933 2132.53 5766.98 2132.53 5562.19V4264.34H2317.97V5562.19C2317.97 5766.98 2484.01 5933 2688.84 5933H2874.28C3079.11 5933 3245.15 5766.98 3245.15 5562.19V2471.16L4341.87 1374.64C4486.7 1229.82 4486.7 995.052 4341.87 850.238Z" fill="#1F1F1F"/>
</svg>
