<svg width="5934" height="3560" viewBox="0 0 5934 3560" fill="none" xmlns="http://www.w3.org/2000/svg">
<path d="M5770.21 826.935L3183.92 32.4693C3042.98 -10.8231 2890.92 -10.8231 2750.08 32.4693L163.695 826.935C-54.565 893.959 -54.565 1182.54 163.695 1249.57L614.586 1388.07C515.655 1510.34 454.832 1659.5 448.805 1822.84C359.517 1874.02 296.654 1966.35 296.654 2076.57C296.654 2176.51 349.318 2260.59 425.162 2314.36L188.451 3379.33C167.867 3471.94 238.334 3559.82 333.185 3559.82H853.43C948.374 3559.82 1018.84 3471.94 998.256 3379.33L761.546 2314.36C837.389 2260.59 890.054 2176.51 890.054 2076.57C890.054 1969.32 830.065 1879.58 744.856 1827.48C751.903 1688.24 823.111 1565.13 936.691 1487.07L2749.99 2044.13C2834 2069.9 2995.14 2102.07 3183.82 2044.13L5770.21 1249.66C5988.57 1182.54 5988.57 894.052 5770.21 826.935ZM3270.98 2327.71C3006.45 2408.91 2781.05 2364.05 2662.84 2327.71L1318.23 1914.71L1186.75 2966.52C1186.75 3294.23 1983.76 3559.82 2966.95 3559.82C3950.14 3559.82 4747.15 3294.23 4747.15 2966.52L4615.68 1914.62L3270.98 2327.71Z" fill="#1F1F1F"/>
</svg>
