<svg width="5470" height="5934" viewBox="0 0 5470 5934" fill="none" xmlns="http://www.w3.org/2000/svg">
<path d="M1390.9 0C1800.55 0 2132.65 332.095 2132.65 741.75C2132.65 1151.4 1800.55 1483.5 1390.9 1483.5C981.244 1483.5 649.149 1151.4 649.149 741.75C649.149 332.095 981.244 0 1390.9 0ZM2773.37 4104.88L2217.06 1879.63C2202.01 1819.45 2167.28 1766.03 2118.39 1727.85C2069.49 1689.67 2009.24 1668.94 1947.21 1668.94H1815.55C1552.33 1789.97 1240.81 1795.2 966.247 1668.94H834.586C772.554 1668.94 712.302 1689.67 663.409 1727.85C614.515 1766.03 579.785 1819.45 564.74 1879.63L8.42726 4104.88C-35.4055 4280.19 97.275 4450.5 278.274 4450.5H927.305V5655.84C927.305 5809.47 1051.84 5934 1205.46 5934H1576.34C1729.96 5934 1854.49 5809.47 1854.49 5655.84V4450.5H2503.52C2684.22 4450.5 2817.27 4280.47 2773.37 4104.88Z" fill="#1F1F1F"/>
<path d="M4357.24 1C4766.83 1 5098.87 333.039 5098.87 742.625C5098.87 1152.21 4766.83 1484.25 4357.24 1484.25C3947.66 1484.25 3615.62 1152.21 3615.62 742.625C3615.62 333.039 3947.66 1 4357.24 1ZM4913.46 1669.66H4781.82C4518.65 1790.67 4207.18 1795.89 3932.66 1669.66H3801.02C3493.83 1669.66 3244.8 1918.68 3244.8 2225.88V3801.83C3244.8 3955.43 3369.32 4079.94 3522.91 4079.94H3708.32V5655.89C3708.32 5809.49 3832.83 5934 3986.43 5934H4728.05C4881.65 5934 5006.16 5809.49 5006.16 5655.89V4079.94H5191.57C5345.17 4079.94 5469.68 3955.43 5469.68 3801.83V2225.88C5469.68 1918.68 5220.66 1669.66 4913.46 1669.66Z" fill="#1F1F1F"/>
</svg>
