<svg width="5934" height="3561" viewBox="0 0 5934 3561" fill="none" xmlns="http://www.w3.org/2000/svg">
<path d="M3263.7 2076.9H3115.35V1260.97C3115.35 1219.99 3082.16 1186.8 3041.18 1186.8H2915.26C2871.31 1186.8 2828.39 1199.78 2791.85 1224.17L2649.72 1318.92C2641.61 1324.32 2634.65 1331.26 2629.22 1339.35C2623.8 1347.44 2620.03 1356.52 2618.12 1366.07C2616.2 1375.62 2616.19 1385.45 2618.08 1395.01C2619.97 1404.56 2623.73 1413.65 2629.13 1421.75L2711.47 1545.16C2716.86 1553.26 2723.81 1560.23 2731.9 1565.65C2739.99 1571.07 2749.06 1574.85 2758.61 1576.76C2768.16 1578.67 2778 1578.68 2787.55 1576.79C2797.1 1574.9 2806.19 1571.15 2814.29 1565.74L2818.65 1562.87V2076.9H2670.3C2629.32 2076.9 2596.12 2110.09 2596.12 2151.07V2299.42C2596.12 2340.41 2629.32 2373.6 2670.3 2373.6H3263.7C3304.68 2373.6 3337.88 2340.41 3337.88 2299.42V2151.07C3337.88 2110.09 3304.68 2076.9 3263.7 2076.9ZM5637.3 0H296.7C132.866 0 0 132.866 0 296.7V3263.7C0 3427.53 132.866 3560.4 296.7 3560.4H5637.3C5801.13 3560.4 5934 3427.53 5934 3263.7V296.7C5934 132.866 5801.13 0 5637.3 0ZM445.05 3115.35V2521.95C772.811 2521.95 1038.45 2787.59 1038.45 3115.35H445.05ZM445.05 1038.45V445.05H1038.45C1038.45 772.811 772.811 1038.45 445.05 1038.45ZM2967 2818.65C2475.41 2818.65 2076.9 2353.67 2076.9 1780.2C2076.9 1206.64 2475.41 741.75 2967 741.75C3458.59 741.75 3857.1 1206.64 3857.1 1780.2C3857.1 2353.85 3458.41 2818.65 2967 2818.65ZM5488.95 3115.35H4895.55C4895.55 2787.59 5161.19 2521.95 5488.95 2521.95V3115.35ZM5488.95 1038.45C5161.19 1038.45 4895.55 772.811 4895.55 445.05H5488.95V1038.45Z" fill="#1F1F1F"/>
</svg>
